{"glyphs":{"0":{"ha":624,"x_min":18,"x_max":594,"o":"m 442 831 q 372 872 410 858 q 292 886 332 889 q 243 876 264 886 q 226 867 236 874 q 217 860 221 864 q 214 857 215 858 q 214 861 214 860 l 210 868 q 181 825 201 871 q 181 823 181 824 q 181 822 181 822 q 169 814 174 818 q 118 760 140 790 q 101 711 101 735 q 111 683 101 692 q 115 682 113 682 q 82 543 94 613 q 81 556 82 551 q 78 557 79 558 q 72 542 75 556 q 54 217 39 371 q 51 451 39 326 q 96 679 61 560 l 99 694 l 97 703 q 92 690 94 701 q 43 450 54 565 q 39 442 42 450 q 36 418 38 428 q 33 396 35 407 q 33 388 33 392 q 32 379 32 383 q 32 372 32 375 q 31 358 31 367 q 31 347 31 349 q 33 417 31 356 l 36 450 l 38 467 l 40 485 q 42 507 42 497 l 38 514 q 33 499 35 513 q 19 321 19 406 q 38 140 21 228 l 43 118 q 49 96 46 106 q 61 50 54 72 q 101 -40 78 0 q 117 -62 108 -51 q 133 -85 125 -75 q 178 -125 154 -108 q 240 -151 207 -144 q 313 -150 276 -160 q 372 -124 343 -143 q 418 -87 396 -110 q 453 -46 436 -69 q 479 -4 465 -26 q 547 174 521 69 q 579 536 594 351 q 578 549 579 540 q 565 644 574 601 q 535 743 554 699 q 475 819 513 793 l 471 824 q 442 831 442 843 m 214 850 q 235 850 218 847 q 214 842 225 847 q 214 850 214 846 m 128 686 q 135 715 131 697 q 142 739 140 733 q 154 756 147 747 q 117 633 132 693 q 123 664 118 643 q 128 686 128 685 m 114 360 q 114 369 114 367 l 114 386 q 129 517 117 443 l 135 550 l 140 582 q 149 614 143 592 q 151 628 149 617 q 157 647 154 640 q 196 774 171 703 q 204 800 200 786 q 267 825 235 819 q 350 814 308 833 q 419 763 389 797 q 333 815 381 803 q 285 819 308 822 q 239 806 263 817 q 232 803 238 806 q 225 799 228 801 q 217 793 219 796 q 206 782 207 788 q 197 767 199 774 q 203 760 197 761 q 219 765 208 760 q 247 779 224 768 q 299 789 274 790 q 350 772 325 788 q 397 732 375 758 q 429 676 417 708 q 460 533 451 622 q 461 379 467 456 q 454 315 460 347 q 443 253 451 288 q 408 131 429 185 q 351 24 385 69 q 317 -14 335 0 q 281 -31 299 -28 q 253 -25 267 -32 q 224 4 238 -17 q 209 26 215 14 q 197 50 203 38 q 176 104 185 75 q 163 164 167 139 q 161 174 163 168 q 159 185 160 179 q 157 194 158 190 l 153 225 q 147 349 146 293 q 143 394 147 375 q 135 415 139 415 q 178 635 144 522 q 179 656 182 653 q 174 646 176 657 q 164 617 172 642 q 161 603 164 615 q 157 586 158 592 q 143 526 146 540 q 125 403 131 471 l 122 372 q 122 363 122 368 q 122 351 122 357 q 121 342 121 344 q 122 279 121 336 q 123 261 122 272 q 124 247 124 250 l 125 232 l 126 217 q 128 206 128 213 q 130 195 129 200 q 131 186 131 190 l 136 154 q 172 38 149 88 q 187 10 179 24 q 203 -14 194 -3 q 242 -49 221 -37 q 285 -57 263 -60 q 332 -35 308 -53 q 372 8 353 -18 q 404 61 390 33 q 383 25 394 42 q 372 8 379 18 q 360 -8 365 -1 q 315 -46 339 -33 q 267 -58 290 -61 q 222 -37 244 -57 q 185 7 201 -21 q 139 125 156 54 q 135 142 136 132 l 132 157 q 128 172 131 160 q 125 189 126 183 q 117 254 118 240 q 114 321 115 265 q 114 339 114 326 q 114 353 114 351 q 114 357 114 354 q 114 360 114 360 m 288 -140 q 219 -131 253 -144 q 190 -117 204 -125 q 165 -97 175 -107 q 126 -56 144 -81 q 132 -56 131 -57 q 199 -119 161 -97 q 249 -137 222 -133 q 303 -137 276 -142 q 350 -121 326 -133 q 288 -140 319 -137 m 522 574 q 488 714 513 657 q 519 608 508 669 q 532 501 528 561 q 518 267 539 385 q 490 151 507 208 q 447 40 472 90 q 419 -7 435 15 q 385 -51 404 -32 q 339 -89 364 -74 q 311 -101 324 -97 q 296 -106 310 -101 q 289 -107 296 -106 q 281 -107 285 -107 l 272 -107 q 265 -107 271 -107 q 257 -107 260 -107 q 249 -106 249 -106 q 219 -94 235 -101 q 172 -57 194 -82 q 139 -11 154 -37 q 114 39 125 13 q 83 144 94 89 l 78 171 q 75 186 76 176 q 74 197 74 196 l 69 225 l 67 251 q 71 465 57 356 q 65 314 63 389 q 83 163 68 242 q 125 24 99 83 q 163 -42 142 -14 q 222 -93 190 -76 q 304 -101 261 -114 q 372 -61 340 -92 q 421 -1 399 -36 q 454 64 439 28 q 463 92 461 79 q 483 151 474 119 q 528 431 524 288 q 522 574 529 501 "},"1":{"ha":283,"x_min":64,"x_max":208,"o":"m 183 764 q 179 826 182 799 q 171 854 178 843 q 153 851 158 869 q 147 918 151 889 q 128 950 143 944 q 117 947 121 953 q 115 926 114 940 q 119 750 121 881 q 110 856 114 824 q 108 864 110 860 l 108 869 q 104 878 107 875 q 88 885 96 890 q 81 857 81 879 q 83 710 82 836 q 83 634 83 685 q 83 558 83 583 q 74 344 83 533 q 67 51 64 154 q 73 30 67 40 q 85 19 79 19 q 86 -93 85 -14 l 88 -97 q 93 -101 90 -104 q 94 -96 94 -101 q 101 400 90 78 q 101 381 101 394 q 100 358 101 367 q 118 -157 94 22 q 119 -164 118 -161 q 142 -199 126 -196 q 151 -172 154 -201 q 150 -150 151 -167 q 149 -125 149 -133 q 144 -78 146 -101 q 156 -128 150 -106 q 156 -131 156 -129 q 163 -136 158 -139 q 163 -129 164 -135 q 160 -81 163 -107 q 156 -31 157 -53 q 162 -37 158 -37 q 164 -29 165 -37 q 164 -11 164 -17 l 164 8 q 164 26 164 14 q 164 44 164 39 q 165 119 164 78 q 178 -92 169 14 l 179 -96 q 185 -101 182 -103 q 186 -94 186 -100 l 183 -68 l 182 -40 l 179 -12 q 178 3 179 -7 q 178 15 178 13 q 181 15 179 14 q 182 19 182 17 q 183 61 183 58 q 184 46 183 54 q 185 31 185 38 q 185 16 185 25 q 186 1 186 7 q 186 -4 186 -1 q 194 -11 190 -14 q 196 -4 196 -10 q 197 354 192 118 q 203 628 203 590 q 203 633 203 631 q 207 715 206 678 q 200 751 208 736 q 183 764 192 767 m 149 201 q 153 6 149 92 q 149 75 149 69 q 146 110 147 97 q 146 120 146 114 q 146 133 146 126 q 144 144 146 139 q 146 278 144 189 q 146 410 147 368 q 143 424 146 418 l 143 451 q 148 577 144 489 q 151 714 151 665 q 153 615 154 647 q 150 400 153 532 q 149 201 147 307 m 182 240 q 178 242 179 242 q 179 272 178 249 q 181 307 181 294 q 181 315 181 310 q 182 324 182 321 l 182 240 "},"2":{"ha":690,"x_min":68,"x_max":621,"o":"m 581 121 q 450 28 496 58 q 518 82 485 54 q 526 96 529 93 q 517 92 525 99 q 381 -1 431 29 q 388 8 389 6 q 375 4 386 11 q 313 -28 331 -21 q 297 -32 304 -31 q 285 -35 290 -33 q 261 -29 271 -35 q 244 -4 249 -22 q 243 3 243 0 q 242 13 242 7 q 240 24 240 17 l 240 35 l 242 24 q 243 13 242 17 q 244 3 243 7 q 246 -3 244 0 q 264 -25 251 -19 q 281 -29 271 -29 q 290 -28 285 -29 q 296 -26 293 -26 q 301 -25 299 -25 q 353 1 321 -18 q 457 71 399 29 q 468 85 472 81 q 458 81 467 86 q 383 29 417 51 q 344 6 367 19 q 307 -14 321 -8 q 301 -12 307 -12 q 294 -14 299 -14 l 292 -15 l 290 -15 q 283 -15 286 -15 q 271 -11 275 -14 l 271 -10 l 271 -11 q 289 -12 278 -14 q 296 -11 290 -12 q 304 -8 300 -10 q 324 1 313 -4 q 338 15 336 7 q 326 14 338 19 q 288 -3 304 1 q 286 -3 288 -3 l 285 -3 q 281 -3 282 -3 q 275 -1 278 -3 q 271 10 271 3 l 271 11 l 269 11 q 269 14 269 13 q 269 17 269 15 q 268 26 269 19 q 268 53 268 43 q 281 158 268 99 q 310 268 292 210 q 347 378 325 319 q 392 486 365 425 q 407 520 399 501 q 424 560 415 539 q 440 596 433 582 q 486 713 469 665 q 504 776 497 746 l 506 783 l 507 788 l 507 789 l 507 790 l 508 794 q 510 801 508 797 q 511 808 511 806 q 512 815 511 811 q 514 822 513 819 q 513 878 518 853 q 507 893 510 885 q 493 918 503 906 q 453 953 478 940 q 399 967 428 965 q 340 960 375 968 l 333 958 l 329 957 q 319 956 328 957 q 301 949 311 953 q 240 911 264 936 q 229 886 221 890 q 144 814 182 854 q 115 765 118 786 q 133 764 115 751 q 100 718 115 742 q 85 693 90 704 q 72 666 76 678 q 69 643 68 654 q 76 624 71 633 q 88 614 81 617 q 97 610 92 611 q 103 611 101 610 q 103 617 104 613 q 99 642 99 635 q 101 656 99 649 q 108 669 104 661 q 113 678 110 672 q 117 685 117 683 q 120 690 118 688 q 124 696 122 693 q 126 700 125 699 q 171 756 147 731 q 285 844 218 807 q 160 729 208 794 q 153 718 157 725 q 147 710 150 714 q 143 699 143 703 q 142 683 140 689 q 149 679 144 678 q 181 708 158 681 q 300 811 228 768 q 335 829 318 822 q 351 836 343 833 q 356 837 353 836 q 360 839 360 838 l 367 840 q 379 842 374 843 q 390 838 386 842 q 393 828 393 833 q 392 822 393 825 l 392 815 q 374 750 385 785 q 292 560 358 707 q 210 363 240 444 q 176 258 190 310 q 150 151 158 197 q 140 33 139 89 q 143 1 142 15 q 146 -17 144 -7 l 147 -21 q 149 -28 147 -25 q 153 -40 151 -36 q 176 -85 161 -67 q 215 -117 193 -106 q 217 -117 215 -117 q 218 -118 218 -118 q 253 -128 235 -126 q 286 -125 269 -129 q 317 -110 318 -118 q 372 -87 343 -103 q 415 -64 386 -81 q 497 -12 454 -40 q 508 1 513 -3 q 499 -3 506 3 q 392 -68 443 -39 q 325 -99 351 -90 q 315 -101 319 -100 q 303 -104 310 -103 q 276 -106 289 -106 q 229 -94 250 -106 q 189 -57 204 -82 q 178 -31 182 -44 q 174 -17 175 -25 l 172 -11 l 171 -6 q 168 17 169 6 q 168 36 168 32 q 169 75 168 56 q 194 224 172 140 q 293 500 226 344 q 267 435 279 468 q 190 189 214 301 q 174 57 174 117 q 175 24 174 38 q 176 6 175 14 q 179 -14 178 -6 q 197 -57 185 -39 q 232 -87 211 -78 q 297 -96 260 -101 q 313 -92 306 -94 q 326 -87 319 -90 q 350 -78 338 -83 q 392 -54 367 -69 q 429 -31 410 -43 q 574 75 490 10 q 621 133 618 111 q 581 121 621 150 m 283 222 q 279 226 282 225 q 314 329 294 275 q 322 353 315 335 q 283 222 299 285 m 310 -42 q 300 -44 304 -43 q 292 -46 296 -46 q 254 -43 269 -51 q 233 -22 240 -37 q 228 -8 229 -17 q 225 -1 225 -3 q 224 7 225 0 q 221 42 221 21 q 221 76 219 60 q 236 185 222 125 q 264 292 247 236 q 340 500 289 367 q 346 521 346 513 l 365 565 q 428 714 413 672 q 453 793 443 754 l 454 799 q 456 804 454 801 l 458 815 q 461 840 461 828 q 451 886 464 868 q 425 906 442 900 q 390 913 410 913 q 356 908 376 913 q 340 904 349 907 q 325 899 333 901 q 340 904 333 903 q 356 908 349 907 q 392 914 376 914 q 426 908 411 914 q 454 888 444 901 q 465 860 463 876 q 465 829 467 847 q 460 801 465 828 q 454 779 456 785 q 442 733 450 760 q 408 647 428 694 q 373 565 397 619 q 338 482 349 510 q 246 214 275 333 q 224 75 226 135 q 224 40 224 58 q 225 22 224 36 q 226 7 225 14 q 228 -2 228 1 q 231 -8 229 -6 q 235 -22 232 -15 q 256 -42 242 -36 q 292 -46 269 -49 q 300 -43 296 -44 q 310 -40 304 -43 q 329 -32 319 -37 q 310 -42 319 -37 "},"3":{"ha":767,"x_min":68,"x_max":700,"o":"m 86 649 q 90 657 88 651 q 94 671 92 663 q 101 688 97 679 q 153 764 114 717 q 221 831 185 800 q 299 886 257 861 q 319 899 300 888 q 328 903 321 899 l 336 907 l 353 915 q 360 918 354 915 q 369 922 367 921 q 331 901 347 911 q 321 896 322 896 l 308 888 q 286 872 293 878 q 242 838 265 858 q 200 799 215 814 q 189 786 196 793 q 185 781 189 785 q 181 776 182 778 q 172 761 172 767 q 165 742 165 749 q 172 738 167 736 q 218 775 182 739 q 338 865 271 829 l 342 868 l 344 869 l 347 871 q 356 875 351 874 q 367 879 361 878 q 372 878 369 879 q 375 874 375 876 q 374 864 376 869 q 369 853 372 858 q 364 843 368 850 l 364 842 l 361 838 l 356 829 q 351 819 354 825 q 346 811 347 813 q 303 742 332 789 q 258 671 274 694 q 190 540 214 599 q 188 535 189 538 q 187 531 188 533 q 185 526 186 529 q 183 522 185 524 l 181 514 q 176 500 179 510 q 169 443 167 469 q 190 393 172 414 q 235 363 207 372 q 264 356 247 357 q 278 353 271 354 l 289 351 q 325 349 306 350 q 347 347 333 347 q 372 345 360 346 q 393 344 383 344 q 458 338 432 342 q 488 331 474 335 q 515 324 503 328 q 554 301 540 314 q 564 288 560 296 q 569 271 568 281 q 572 251 572 261 q 569 229 572 240 q 553 181 565 207 q 538 154 544 165 q 522 128 532 143 q 485 79 506 103 q 396 -4 444 32 q 363 -33 378 -18 q 351 -51 349 -47 q 307 -69 326 -64 q 286 -74 296 -72 q 278 -74 282 -74 q 269 -74 274 -74 q 243 -62 253 -71 q 238 -56 240 -60 q 235 -49 236 -53 q 231 -39 233 -42 q 226 -46 228 -39 q 231 -59 228 -54 q 238 -68 233 -64 q 269 -82 249 -79 q 281 -82 276 -82 q 292 -82 286 -82 q 315 -76 303 -81 q 367 -53 339 -69 q 467 21 419 -24 q 547 115 513 64 q 578 171 567 146 q 597 225 593 200 q 596 279 603 253 q 587 302 593 292 q 572 321 581 313 q 524 349 554 338 q 494 357 510 353 q 463 363 482 360 q 329 374 442 365 q 371 371 339 372 q 419 368 403 369 q 486 360 456 365 q 546 340 521 353 q 588 306 574 326 q 603 254 601 285 q 593 197 604 228 q 565 139 583 169 q 488 32 533 81 q 386 -51 442 -17 q 331 -82 354 -72 q 278 -94 301 -94 q 233 -82 253 -94 q 219 -69 224 -76 q 211 -51 214 -62 q 210 4 207 -33 q 218 68 211 36 q 231 153 233 136 q 221 157 229 164 q 199 115 210 147 q 176 17 182 68 q 174 -35 174 -14 q 185 -82 175 -62 q 171 -31 174 -61 q 171 26 169 -8 q 169 46 172 42 q 164 33 167 46 q 158 -21 160 4 q 168 -78 158 -54 q 204 -124 178 -106 q 260 -143 228 -140 q 242 -146 243 -143 q 246 -149 242 -147 q 260 -153 250 -151 q 350 -139 301 -157 q 428 -99 383 -126 q 558 13 501 -53 q 517 -33 539 -11 q 471 -75 496 -54 q 419 -110 447 -93 q 365 -140 390 -129 q 301 -160 332 -156 q 285 -162 293 -161 l 275 -162 l 267 -161 q 232 -156 249 -161 q 171 -117 194 -144 q 151 -85 158 -103 q 143 -50 146 -68 q 138 -25 140 -31 q 135 -39 135 -25 q 140 -76 136 -58 q 158 -112 147 -97 q 188 -143 171 -131 q 224 -161 204 -154 q 263 -169 243 -167 q 301 -168 281 -171 q 369 -147 333 -164 q 381 -146 369 -150 q 425 -122 401 -137 q 438 -115 429 -121 q 447 -110 447 -110 q 468 -96 463 -99 q 407 -136 440 -117 q 336 -167 369 -157 q 303 -179 310 -175 q 322 -181 303 -183 q 418 -140 367 -171 q 497 -86 460 -117 q 626 57 572 -25 q 651 99 639 74 q 675 143 665 121 q 697 256 699 201 q 686 318 697 288 q 653 378 676 351 q 601 419 631 403 q 547 443 576 433 q 521 450 535 447 l 508 453 l 496 456 q 447 463 472 460 q 356 468 422 465 q 313 471 331 469 l 303 472 l 293 472 l 293 474 q 293 474 293 474 l 294 478 l 297 488 q 306 506 300 493 q 308 513 306 507 q 313 524 311 519 q 351 594 325 551 q 399 671 367 621 q 444 743 431 721 q 450 754 447 749 q 463 775 456 763 q 482 807 476 796 l 501 846 q 507 858 504 851 q 513 873 510 865 q 518 885 517 881 l 522 894 l 524 897 q 524 899 524 899 l 524 903 l 526 919 q 526 949 528 944 q 518 975 524 961 q 510 989 514 982 q 499 1001 504 996 q 471 1018 486 1013 q 444 1025 460 1024 q 431 1025 439 1025 q 424 1024 431 1025 q 417 1022 419 1022 q 404 1019 410 1021 q 399 1018 400 1018 l 397 1017 l 394 1017 q 393 1016 394 1017 q 392 1015 392 1015 q 371 1004 379 1010 q 356 994 360 999 q 349 983 344 985 q 340 980 346 982 q 331 976 335 978 q 322 971 326 974 q 297 958 300 960 q 288 953 294 957 l 279 947 q 264 938 274 944 q 207 896 233 918 q 161 839 169 864 q 158 833 158 836 q 181 839 158 824 q 129 785 154 814 q 85 724 100 749 q 69 674 71 699 q 76 646 68 654 q 86 649 82 639 m 560 424 q 614 394 590 413 q 660 346 642 375 q 682 285 676 318 q 678 288 679 289 q 661 336 674 313 q 631 378 649 360 q 590 408 613 396 q 547 426 572 418 q 507 439 532 432 q 560 424 538 432 m 421 807 q 442 846 421 808 q 445 852 443 849 q 449 859 447 856 q 451 865 450 863 l 456 875 q 460 885 460 882 l 467 903 q 467 908 467 904 q 469 913 468 911 q 471 922 471 918 q 472 940 474 932 q 464 958 471 950 q 472 931 474 947 q 468 904 472 918 l 463 890 l 461 882 q 460 878 461 881 q 458 875 458 876 q 454 866 457 872 q 449 855 451 860 q 444 844 446 850 l 429 815 l 414 789 q 386 742 399 763 q 355 694 379 731 q 320 640 331 657 q 294 593 310 622 q 267 540 278 564 l 256 514 l 246 488 q 242 468 242 476 q 243 447 240 456 q 257 432 247 438 q 278 426 265 428 q 288 425 282 425 l 294 424 q 301 424 297 424 q 331 421 315 422 q 377 419 336 421 q 439 414 418 417 q 496 407 471 411 q 551 390 528 400 q 604 360 583 379 q 640 308 629 339 q 642 188 663 253 q 621 135 635 163 q 592 86 610 113 q 560 39 578 64 q 524 -3 540 14 q 482 -42 501 -26 q 461 -60 481 -43 q 439 -76 440 -75 q 393 -107 421 -90 q 342 -131 365 -122 q 413 -93 374 -118 q 475 -46 444 -72 q 579 72 535 6 q 617 136 599 103 q 643 208 636 175 q 643 289 653 250 q 628 326 639 308 q 601 360 617 346 q 529 396 574 382 q 454 411 497 406 q 371 416 425 414 q 307 418 317 418 q 290 419 299 419 q 285 419 288 419 q 281 418 282 418 q 256 424 265 419 q 238 440 243 429 q 233 469 232 453 q 238 483 235 475 q 242 497 238 488 l 249 514 q 251 523 249 517 q 256 529 254 529 q 269 561 258 538 q 343 685 292 607 q 421 807 403 778 "},"4":{"ha":574,"x_min":54,"x_max":504,"o":"m 68 297 q 75 261 71 278 q 113 183 88 215 q 149 149 128 163 q 174 136 161 142 q 201 126 186 129 q 254 125 226 122 q 296 133 272 128 q 310 140 303 136 q 308 96 308 115 q 314 75 308 85 q 324 65 319 65 l 322 13 q 321 -40 322 0 q 322 -49 321 -44 q 328 -44 328 -54 q 338 165 331 40 q 343 167 340 165 q 347 -103 340 13 q 349 -112 347 -107 q 369 -143 354 -142 q 381 -119 381 -144 q 379 -74 379 -97 q 379 -51 379 -67 q 379 -29 379 -36 q 386 -78 383 -61 q 389 -83 386 -82 q 394 -79 394 -90 q 394 -33 394 -33 q 393 14 393 -3 q 398 8 394 8 q 401 15 401 8 q 404 86 403 61 q 410 156 408 135 q 411 -44 410 32 q 414 -51 411 -49 q 418 -47 419 -58 q 418 57 418 -6 q 420 57 419 56 q 421 61 421 58 q 425 100 421 61 q 425 43 425 50 q 428 32 425 36 q 435 38 433 26 q 439 214 435 111 q 440 221 446 221 q 440 243 440 228 q 479 269 460 256 q 503 307 503 288 q 475 307 503 325 q 443 285 458 294 q 454 638 454 532 q 454 643 454 640 q 458 719 457 682 q 451 753 460 739 q 435 767 443 768 q 431 825 433 801 q 424 849 429 839 q 404 849 411 867 q 403 911 404 879 l 403 918 q 383 944 399 943 q 372 922 372 944 q 372 879 372 907 q 372 838 372 851 q 372 795 372 824 q 371 753 371 767 q 361 854 367 799 q 361 863 361 858 l 361 868 q 357 875 360 874 q 346 885 353 883 q 333 856 332 886 q 335 572 336 722 q 317 274 333 533 q 311 274 315 275 q 278 261 296 267 q 263 256 263 256 q 247 253 251 253 q 225 251 233 250 q 222 253 224 251 q 217 256 219 254 q 207 268 211 261 q 198 288 201 276 q 192 317 194 300 q 189 333 190 322 q 186 351 188 340 q 179 499 178 414 q 182 575 181 529 q 185 653 183 617 q 185 658 185 656 q 193 736 189 696 q 190 771 196 756 q 175 785 183 786 q 178 844 176 815 q 172 871 178 860 q 154 872 164 889 q 165 936 160 907 q 158 972 171 961 q 138 953 144 983 q 110 778 119 875 q 114 885 110 838 q 114 893 114 889 l 115 899 q 113 908 115 906 q 101 919 110 919 q 86 892 90 921 q 64 589 68 778 q 64 331 56 413 q 68 297 65 319 m 396 272 q 394 272 394 272 q 392 271 393 271 q 393 290 393 283 q 396 293 394 292 q 396 272 396 288 m 346 254 q 344 253 344 253 l 343 253 q 343 263 343 260 q 346 264 346 264 q 346 254 346 263 m 339 174 q 339 185 339 185 q 344 188 339 186 q 343 176 343 179 q 339 174 343 176 m 392 49 q 390 181 390 138 q 390 183 390 181 q 390 188 390 186 q 392 188 390 188 q 394 189 393 189 q 392 49 393 179 m 394 197 q 390 196 392 196 q 390 201 390 197 q 390 206 390 204 q 390 211 390 208 q 392 213 390 211 q 394 214 393 213 q 394 197 394 201 m 425 274 l 426 279 q 428 281 426 281 q 429 282 429 282 l 429 276 q 425 274 429 275 m 431 349 l 429 293 q 426 292 426 292 l 429 333 q 431 342 431 338 q 431 349 431 347 m 394 471 q 404 719 403 679 q 406 625 406 657 q 400 422 404 540 q 396 301 397 363 q 393 300 394 300 q 396 432 397 386 q 393 444 396 439 l 394 471 m 351 422 q 350 383 351 390 q 349 333 350 372 q 346 272 347 294 q 344 272 346 272 q 344 271 344 272 q 351 422 349 368 m 310 263 q 317 267 314 264 q 315 257 317 264 q 300 251 307 254 q 296 253 300 254 q 258 244 279 249 q 310 263 283 251 m 304 244 q 315 249 310 246 q 315 244 315 247 q 315 240 315 242 q 278 229 296 233 q 246 222 256 224 q 219 225 231 221 q 304 244 243 219 m 183 290 q 181 290 182 290 q 175 318 178 301 q 171 347 172 338 q 169 363 171 356 q 183 290 176 315 m 124 482 q 129 610 124 531 q 139 739 133 678 q 138 708 139 725 q 137 672 138 690 q 135 642 136 654 q 132 431 129 488 q 140 336 133 382 q 165 249 150 276 q 193 218 176 231 q 229 207 210 207 q 274 215 247 207 q 314 229 293 221 q 256 207 282 215 q 224 204 238 203 q 196 211 210 204 q 158 254 172 225 q 142 314 147 276 q 128 442 133 360 q 124 454 126 449 q 124 482 124 474 m 86 386 q 93 322 89 353 q 108 254 100 281 q 125 221 115 236 q 150 189 135 203 q 186 165 167 174 q 231 157 207 157 q 269 161 249 157 q 303 172 283 165 q 311 175 303 172 q 311 165 311 168 q 283 157 297 161 q 246 151 263 153 q 203 154 222 149 q 163 174 181 160 q 132 201 146 185 q 113 236 121 217 q 94 303 101 263 q 83 428 85 363 q 86 386 85 408 "},"5":{"ha":782,"x_min":65,"x_max":746,"o":"m 207 828 q 204 826 206 826 l 179 814 q 154 801 174 811 q 138 783 143 796 q 140 765 133 771 q 108 739 121 751 q 99 724 101 732 q 101 712 97 717 q 111 708 104 707 q 94 694 107 706 q 78 682 81 683 q 71 657 65 671 q 92 653 75 640 q 181 715 135 686 q 132 671 161 699 q 129 667 131 669 l 126 664 q 124 658 124 663 q 129 644 122 649 q 147 647 136 639 q 297 742 217 700 q 283 701 293 729 q 268 660 274 674 l 246 596 l 229 550 q 211 496 218 519 q 208 482 208 485 l 207 476 l 206 469 q 206 447 204 458 q 209 429 207 439 q 215 413 211 419 q 229 396 221 403 q 249 386 238 390 q 268 383 257 383 q 272 383 271 383 l 278 383 l 288 383 q 299 385 290 383 l 311 388 q 317 389 311 388 l 324 392 l 336 396 q 361 407 354 404 q 372 412 363 407 q 388 419 382 417 l 411 432 l 426 439 q 456 454 446 450 q 504 474 482 467 l 515 478 l 526 481 q 550 485 543 485 q 588 483 571 488 q 607 469 600 479 q 619 440 615 460 q 622 396 624 422 q 608 296 621 347 q 576 197 597 250 q 532 103 553 142 q 476 28 506 54 q 468 21 471 22 q 461 14 465 17 q 453 8 457 11 q 446 4 450 7 q 436 0 440 1 q 435 0 435 0 l 435 1 q 432 -3 433 -1 q 431 -3 431 -3 q 430 -4 431 -4 q 428 -4 429 -4 q 426 -4 428 -4 q 422 -7 424 -6 q 419 -3 421 -4 q 418 3 419 -1 q 414 15 415 8 q 414 51 413 32 q 418 92 414 67 q 429 132 424 117 l 431 147 q 424 142 429 154 q 406 50 407 92 q 407 10 404 26 q 418 -17 410 -7 q 435 -25 425 -25 q 447 -24 440 -25 q 463 -17 454 -22 q 481 -4 471 -12 q 499 11 489 1 q 529 49 514 26 q 581 139 556 83 q 619 239 604 192 q 643 342 636 292 q 647 394 647 371 q 644 444 649 422 q 649 411 647 429 q 649 394 649 401 q 648 390 649 393 q 647 383 647 386 q 647 378 647 381 q 594 164 642 279 q 546 65 569 103 q 481 -12 517 15 q 443 -32 461 -28 q 417 -28 429 -36 q 413 -24 415 -26 q 407 -17 410 -21 q 399 -1 403 -10 q 393 42 393 15 q 396 93 393 68 q 408 143 400 118 q 425 193 415 169 q 447 244 435 219 q 467 317 469 293 q 465 319 465 318 q 433 289 460 338 q 368 133 385 199 q 393 222 376 172 l 396 235 q 388 231 396 249 q 357 146 368 186 q 343 56 343 99 q 338 68 340 68 q 337 67 338 68 q 335 63 336 67 q 333 54 333 60 q 342 -19 332 11 q 392 -85 356 -64 q 436 -97 411 -97 q 458 -94 447 -97 q 479 -89 468 -93 q 515 -69 497 -82 q 531 -58 517 -68 q 544 -46 542 -49 q 524 -64 533 -56 q 501 -79 514 -72 q 475 -93 488 -87 q 460 -97 468 -96 q 442 -100 450 -100 q 408 -97 425 -101 q 378 -82 393 -93 q 365 -72 371 -78 q 354 -60 358 -65 q 339 -33 344 -47 q 326 22 328 -8 q 325 49 325 36 l 325 63 l 326 75 q 347 174 331 121 q 349 194 354 193 q 343 185 346 194 q 319 79 324 129 q 318 51 318 58 q 318 24 317 35 q 332 -37 321 -11 q 333 -49 331 -39 q 347 -71 339 -61 q 357 -82 353 -78 q 368 -92 363 -87 q 425 -115 393 -112 q 382 -103 401 -114 q 363 -90 372 -97 q 358 -86 360 -87 l 354 -83 q 347 -75 350 -78 q 326 -42 335 -60 q 315 -6 319 -25 q 307 22 311 17 q 303 7 304 21 q 315 -42 307 -19 q 328 -65 321 -54 q 346 -87 336 -78 q 399 -121 368 -111 q 463 -124 429 -131 q 513 -104 488 -118 q 533 -90 522 -99 q 542 -83 538 -87 q 550 -76 550 -76 q 582 -46 567 -64 q 608 -12 597 -29 q 650 57 631 18 q 682 126 665 86 q 731 275 715 204 q 743 356 739 315 l 744 375 l 744 396 q 742 442 744 419 q 732 490 739 468 q 704 542 721 519 q 656 585 685 569 q 597 604 629 599 q 544 604 572 607 q 521 601 532 603 q 499 596 510 599 q 419 568 461 588 q 385 551 406 561 l 368 543 l 360 539 l 357 538 l 357 538 q 356 536 357 536 q 356 535 356 536 q 356 538 354 536 q 357 538 356 538 l 354 539 l 354 540 l 356 540 l 356 542 q 356 546 356 546 q 357 554 357 550 q 358 567 358 561 q 351 593 361 594 q 386 699 372 651 q 394 751 396 733 q 376 749 392 775 q 381 762 378 753 q 386 775 383 771 q 443 792 413 783 q 517 810 478 801 q 589 825 557 819 q 601 832 596 826 q 604 843 606 838 q 665 844 638 846 q 669 846 668 843 q 667 851 672 850 q 526 840 607 857 q 453 822 494 833 q 396 804 422 813 l 396 806 l 399 806 q 403 807 401 807 q 479 832 436 819 q 554 851 521 844 q 700 867 638 871 q 725 879 717 867 q 713 897 732 893 q 654 903 685 903 q 671 906 663 904 q 686 908 681 907 q 690 910 689 908 q 688 915 694 915 q 625 915 658 919 q 628 920 628 917 q 622 924 628 924 q 526 914 569 921 q 664 933 603 935 q 668 936 667 933 q 665 942 674 942 q 592 936 632 942 q 588 939 590 938 q 560 938 564 938 q 600 944 579 942 q 608 950 607 944 q 603 954 608 954 q 497 935 554 949 q 399 907 450 924 q 207 828 289 872 m 238 788 q 361 843 294 819 q 379 850 365 844 q 378 847 379 847 q 357 838 367 842 q 350 832 351 836 l 347 831 q 331 824 343 842 q 183 756 244 790 q 238 788 214 776 m 715 275 q 721 306 718 288 q 678 149 710 232 q 675 153 676 153 q 715 275 701 218 m 376 492 l 397 503 l 419 514 q 465 535 444 526 q 514 550 490 544 q 568 557 543 557 q 624 546 599 557 q 669 507 651 533 q 690 456 685 486 q 696 407 696 435 q 694 361 696 389 q 681 269 692 317 q 619 97 661 189 q 575 17 597 49 q 511 -53 546 -26 q 468 -76 490 -69 q 443 -83 456 -82 q 417 -82 429 -85 q 374 -56 392 -76 q 350 -12 357 -37 q 365 -43 356 -29 q 390 -68 376 -58 q 425 -81 407 -79 q 461 -78 442 -83 q 518 -43 489 -68 q 563 6 542 -22 q 622 113 593 49 q 667 228 650 175 q 692 349 686 290 q 693 411 694 383 q 681 475 692 449 q 667 497 675 490 q 624 538 651 525 q 560 550 596 551 q 528 546 543 549 l 513 543 l 499 539 q 388 492 458 526 l 365 481 q 344 471 354 475 q 324 463 335 467 q 301 456 307 456 q 290 456 294 454 q 281 461 283 457 q 278 472 278 467 q 281 483 278 475 q 294 528 285 501 q 285 496 288 510 q 282 479 283 488 q 281 472 281 475 q 285 465 282 468 q 300 460 289 460 q 315 463 307 460 q 346 476 332 469 q 376 492 358 482 m 282 590 q 335 757 322 718 q 346 761 338 758 q 282 590 314 675 m 601 911 q 517 890 572 906 q 425 863 431 865 q 425 865 425 864 q 479 883 454 875 q 601 911 550 906 m 446 904 q 406 893 424 899 l 396 892 q 446 908 422 900 q 446 904 446 906 "},"6":{"ha":538,"x_min":-1,"x_max":469,"o":"m 426 290 q 382 336 410 317 q 333 363 358 353 l 321 368 q 307 372 319 368 q 282 379 301 374 q 229 385 254 385 q 211 382 217 386 q 221 378 213 381 q 276 372 250 376 q 331 354 308 365 q 383 324 360 343 q 426 272 411 301 q 442 206 443 242 q 428 144 440 175 q 365 54 408 97 q 274 -6 322 14 q 217 -17 246 -15 q 158 -8 186 -18 q 108 19 132 0 q 70 60 86 36 q 44 108 54 83 q 29 160 35 132 q 51 92 38 121 q 83 44 64 65 q 128 8 103 22 q 183 -12 154 -8 q 243 -11 213 -17 q 344 42 296 0 q 382 81 365 58 q 413 128 401 104 q 432 185 428 158 q 433 218 435 200 q 426 251 432 238 q 388 307 415 282 q 336 340 367 326 q 224 361 285 361 q 132 351 181 361 q 167 492 144 419 q 169 499 168 494 q 215 610 189 554 q 227 647 224 629 q 229 674 231 664 q 222 685 228 685 q 261 767 240 724 q 275 813 275 797 q 257 813 274 829 q 315 894 285 857 q 325 908 319 900 q 333 921 331 917 q 342 928 338 925 q 346 932 346 932 q 340 943 350 939 q 325 943 333 946 q 314 938 319 942 q 304 929 308 935 q 292 915 303 928 q 281 901 285 907 q 260 874 272 892 q 221 815 240 846 q 156 692 188 761 q 226 843 189 776 q 233 856 231 850 l 238 863 q 242 875 243 871 q 238 896 249 897 q 224 888 232 896 q 204 863 215 879 q 96 646 146 769 q 25 417 47 525 q 7 315 13 365 q 1 265 4 292 q 0 211 0 236 q 19 100 1 149 q 49 46 31 72 q 92 -1 67 18 q 150 -35 118 -24 q 219 -44 183 -46 q 285 -31 253 -43 q 340 -1 314 -19 q 388 38 365 15 l 397 49 l 407 60 q 425 83 418 74 q 456 142 444 113 q 465 176 461 157 q 467 215 468 199 q 465 232 467 222 q 464 239 464 236 q 461 246 463 243 q 458 254 460 250 q 456 260 457 257 q 449 272 451 268 q 426 290 433 294 m 381 235 q 383 188 389 214 q 378 164 382 178 q 367 142 372 150 q 338 100 356 119 q 261 42 303 60 q 215 32 238 33 q 171 38 193 31 q 103 96 131 53 q 71 183 79 131 q 65 201 68 196 q 65 244 64 221 q 69 304 65 272 q 76 304 74 304 q 76 169 67 222 q 100 104 83 132 q 144 54 117 74 q 206 35 172 35 q 238 39 222 35 q 269 50 254 43 q 300 69 285 58 q 326 93 314 81 q 368 150 354 121 q 383 217 386 186 q 373 247 381 233 q 351 272 365 261 q 381 235 372 256 m 215 65 q 185 69 199 64 q 157 86 169 75 q 146 97 153 90 q 179 74 161 81 q 197 68 189 69 q 201 68 199 68 l 207 68 q 212 68 208 68 q 217 68 215 68 q 215 65 215 67 m 167 324 q 242 325 207 328 q 161 315 206 326 q 154 313 157 315 q 149 307 147 310 q 158 307 150 306 q 233 311 199 313 q 306 297 271 310 q 294 296 296 299 q 296 293 294 294 q 303 289 299 290 q 346 263 329 279 q 368 225 364 246 q 343 140 378 188 q 365 201 364 174 q 346 253 368 232 q 319 272 336 264 q 288 285 306 279 q 251 293 275 289 q 214 294 229 296 q 200 290 204 294 q 208 288 200 288 q 246 286 233 288 q 256 285 251 285 l 265 283 q 272 281 265 282 q 282 279 279 279 l 292 276 l 300 272 q 315 265 307 271 q 342 247 332 257 q 342 242 338 246 q 350 207 351 226 q 344 231 350 221 q 325 251 339 242 q 311 256 317 258 q 314 247 306 253 q 338 224 332 236 q 339 199 342 213 q 325 163 338 182 q 313 144 319 153 q 296 126 304 133 q 260 97 279 110 q 224 83 240 86 q 193 83 207 79 q 165 99 179 86 q 153 112 158 104 q 142 128 147 119 q 133 146 138 135 q 126 167 129 154 q 122 267 118 206 q 128 317 124 290 q 167 324 149 321 m 96 440 q 163 628 119 528 q 114 486 135 557 q 81 333 90 407 q 72 329 76 332 q 96 440 81 383 "},"7":{"ha":638,"x_min":68,"x_max":572,"o":"m 558 508 q 525 513 542 511 q 543 518 535 515 q 545 522 544 518 q 543 525 546 525 q 507 526 526 528 q 509 532 510 529 q 506 536 508 535 q 477 538 496 536 q 451 542 458 540 q 528 543 493 546 q 531 546 529 543 q 528 551 532 551 q 488 551 514 553 q 486 556 488 554 q 469 558 486 556 q 493 558 483 558 q 496 560 494 558 q 493 568 500 568 q 442 568 467 569 q 449 597 447 592 q 472 693 464 650 q 486 794 483 747 q 486 853 488 829 q 479 888 485 871 q 474 906 476 897 q 464 924 469 917 q 458 933 461 929 q 403 985 436 968 q 375 994 389 992 q 361 997 368 997 q 354 999 357 999 q 349 999 350 999 q 306 997 329 1000 q 283 992 294 996 q 265 985 272 989 q 253 976 258 981 q 247 967 249 971 q 247 960 246 963 q 176 928 211 947 q 157 914 165 921 q 147 900 150 906 q 149 892 146 894 q 161 890 153 889 q 94 849 128 872 q 69 813 68 831 q 73 806 69 808 q 83 806 76 804 q 100 815 90 808 q 282 903 197 881 q 175 849 229 885 q 167 844 171 847 l 161 840 q 156 832 156 836 q 155 815 146 819 q 186 822 164 810 q 278 864 232 849 l 289 867 l 301 871 q 305 872 303 871 q 309 872 307 872 q 313 874 311 872 q 324 875 319 875 q 342 876 335 876 q 350 876 346 876 q 357 871 354 875 q 358 869 357 871 l 358 868 q 361 865 360 867 q 364 858 363 863 q 368 811 369 843 q 344 674 365 753 q 308 553 331 621 q 261 540 283 547 q 260 539 260 540 q 229 535 246 538 q 219 522 222 532 q 219 506 217 513 q 200 496 207 500 q 192 480 193 490 q 199 467 192 469 q 176 458 188 463 q 169 447 171 456 q 172 432 168 439 q 182 428 175 425 q 242 446 201 433 q 208 425 229 438 q 206 424 207 425 l 204 422 q 203 418 203 421 q 204 402 200 410 q 215 397 208 394 q 261 414 243 407 q 208 258 222 300 q 206 232 204 244 q 211 217 207 219 q 169 94 200 182 q 168 83 167 88 q 175 86 171 75 q 234 255 193 142 q 294 426 275 368 q 297 427 296 426 q 299 428 297 428 q 266 328 289 399 q 231 218 243 257 q 201 120 218 179 q 172 11 185 61 q 169 -8 169 1 q 181 -44 167 -44 q 197 -19 190 -46 q 229 89 210 24 q 218 29 222 56 l 218 19 q 225 24 222 13 q 258 135 235 56 q 258 128 257 131 q 267 133 263 121 q 326 297 281 178 q 254 60 265 101 l 253 50 q 260 53 256 40 q 297 178 285 139 q 303 181 300 174 q 321 226 304 186 q 299 158 301 167 q 299 144 296 150 q 306 150 301 138 q 351 285 317 183 q 403 443 385 386 q 488 443 411 443 q 494 448 492 443 q 496 458 497 453 q 535 454 518 457 q 536 461 536 458 q 413 469 476 472 q 413 470 413 469 q 413 472 413 471 q 556 478 453 476 q 568 492 565 478 q 558 508 571 507 m 386 550 l 383 550 l 383 551 q 385 551 385 551 q 386 551 386 551 q 386 550 386 551 m 374 515 q 375 515 374 515 q 376 515 376 515 q 375 514 375 514 q 374 513 374 513 q 374 515 374 514 m 411 518 q 413 521 411 519 q 412 519 413 521 q 411 518 411 518 m 347 944 q 317 943 333 946 q 347 946 333 946 q 379 939 365 946 q 411 915 397 931 q 429 882 422 900 q 438 813 439 854 q 432 747 436 781 q 406 621 424 694 q 390 565 399 594 q 389 565 390 565 q 388 565 388 565 q 404 635 397 603 q 404 650 407 643 q 413 683 408 667 q 432 810 428 754 q 426 879 435 853 q 408 913 419 897 q 379 938 396 929 q 347 944 365 943 m 358 632 q 346 586 347 588 q 339 558 343 576 q 338 558 338 558 q 358 632 349 597 m 244 482 q 278 494 265 490 q 290 497 281 494 q 290 495 290 497 q 288 492 289 493 q 244 482 264 486 m 318 499 l 319 503 q 321 506 321 504 q 322 506 321 506 q 322 502 322 504 q 321 499 321 500 q 318 499 319 499 m 269 175 q 317 333 299 275 q 326 366 321 349 q 339 405 332 383 q 350 439 346 426 q 353 439 353 439 q 269 175 332 368 m 386 429 q 382 432 385 432 q 384 437 383 433 q 386 442 385 440 q 388 442 386 442 q 389 442 389 442 q 388 436 389 440 q 386 429 386 432 m 397 468 q 394 468 397 468 q 396 469 394 468 q 397 470 396 469 q 397 471 397 471 q 397 468 397 469 m 444 521 q 426 519 438 519 q 427 521 426 519 q 428 522 428 522 q 494 526 464 526 q 482 524 489 525 q 469 523 475 524 q 457 522 464 522 q 444 521 450 521 "},"8":{"ha":629,"x_min":67,"x_max":563,"o":"m 74 592 q 82 560 76 575 l 88 544 q 96 529 90 538 q 131 478 110 503 q 172 438 147 458 q 213 406 188 424 l 250 378 q 283 350 272 361 q 300 336 292 343 q 299 334 300 336 q 299 332 299 332 q 267 229 276 281 q 254 122 256 176 q 256 68 253 93 q 261 14 257 40 q 250 143 249 74 q 254 208 250 174 q 267 272 258 240 q 272 292 268 275 q 276 306 275 301 q 279 326 281 319 q 274 353 286 360 q 260 333 268 349 q 240 285 249 314 q 218 67 210 176 q 242 -47 224 1 q 271 -103 253 -78 q 294 -131 282 -119 q 331 -154 311 -146 q 396 -161 361 -167 q 451 -140 425 -157 q 490 -101 474 -125 q 515 -60 504 -83 q 540 26 533 -18 q 543 114 546 68 q 497 274 538 196 q 465 329 483 301 q 494 543 486 454 q 486 422 492 496 l 486 404 q 490 401 488 399 q 493 414 492 404 q 517 646 513 539 q 519 633 518 639 q 522 631 521 628 q 526 647 525 633 q 529 738 529 708 q 513 831 526 792 q 453 913 493 883 q 403 936 429 929 q 349 939 378 943 q 426 931 390 946 q 489 883 463 915 q 522 818 511 854 q 535 750 532 788 q 536 685 538 724 q 533 622 535 649 q 522 497 529 561 q 521 478 521 486 l 525 472 q 528 485 526 474 q 540 617 536 556 q 543 683 543 646 q 543 753 544 725 q 546 764 544 753 q 536 819 543 794 q 511 878 528 851 q 532 838 524 858 q 544 794 539 818 q 551 715 551 761 q 554 683 550 692 q 560 700 558 685 q 551 806 561 763 q 544 833 549 818 q 532 861 539 847 q 497 913 518 890 q 442 953 472 939 q 372 968 410 968 q 307 957 340 968 q 253 932 279 949 q 240 925 244 928 q 228 917 235 921 q 206 899 219 910 q 167 860 185 881 q 132 818 149 840 q 118 794 125 806 l 110 782 l 104 769 q 71 657 75 713 q 74 592 68 624 m 319 189 q 322 257 325 240 q 304 247 318 279 q 325 311 313 279 q 342 293 335 301 q 367 261 356 278 q 388 228 378 244 q 404 192 396 211 q 424 119 418 157 q 425 82 425 103 q 422 46 425 65 q 415 11 419 29 q 412 3 414 10 q 408 -6 410 -3 q 401 -19 406 -14 q 399 -26 401 -21 q 389 -36 394 -32 q 388 -37 389 -36 q 386 -39 388 -37 q 382 -40 385 -40 q 379 -42 382 -40 l 378 -42 l 378 -42 l 378 -40 l 378 -40 q 376 -39 378 -40 q 371 -32 374 -36 q 365 -22 368 -26 q 356 -3 361 -14 q 347 18 351 7 q 339 35 342 29 q 328 53 333 47 q 321 56 324 60 q 319 189 313 121 m 472 18 q 468 1 469 7 l 465 -6 l 463 -14 q 450 -43 458 -29 q 410 -86 433 -74 q 357 -92 382 -101 q 347 -85 351 -89 q 338 -76 342 -82 q 321 -54 328 -68 q 338 -76 329 -67 q 347 -84 342 -81 q 357 -90 353 -87 q 389 -92 372 -96 q 418 -78 406 -89 q 457 -17 442 -58 q 474 100 478 38 q 447 215 471 158 q 346 360 415 293 q 350 367 349 364 q 389 324 371 346 q 456 211 433 271 q 481 82 481 147 q 472 18 481 49 m 468 667 q 439 374 464 550 q 438 365 439 369 q 403 404 421 386 q 385 424 394 413 q 388 429 386 428 q 403 456 401 450 q 393 461 406 465 q 364 440 381 456 q 344 458 353 451 q 310 485 332 468 q 285 504 288 501 q 235 546 251 529 q 217 568 226 554 q 203 590 207 582 q 196 613 199 600 q 194 636 194 624 q 204 689 194 660 q 217 714 210 701 q 232 740 224 728 q 271 786 249 765 q 293 807 282 797 q 317 822 304 815 q 361 840 339 836 q 390 836 378 843 q 415 813 404 829 q 424 799 418 807 q 427 792 424 797 q 432 785 431 788 q 446 769 442 769 q 449 715 450 747 q 446 654 449 692 q 435 531 443 594 q 436 507 432 508 q 440 519 439 506 q 454 656 450 590 q 458 722 457 700 q 453 783 458 758 q 449 796 451 789 q 444 808 447 801 q 433 832 440 821 q 399 863 418 854 q 376 868 388 867 q 351 867 365 868 q 299 844 326 861 q 274 826 288 838 q 250 804 261 815 q 208 754 226 781 q 192 726 200 740 q 179 697 185 713 q 167 636 168 665 q 169 607 167 621 q 179 579 172 593 l 182 572 l 186 567 q 191 559 188 564 q 194 553 194 554 q 215 529 206 539 q 268 485 235 510 q 286 471 275 479 q 308 455 297 463 q 326 440 318 447 q 288 469 314 450 q 250 499 263 488 q 169 600 182 550 q 188 725 154 657 q 225 782 203 754 q 272 831 246 810 q 328 864 300 854 q 383 874 358 876 q 406 865 396 871 q 428 850 417 860 q 457 801 447 831 q 468 667 471 760 m 125 697 q 182 807 140 753 q 222 853 200 832 q 271 890 246 875 q 326 917 300 910 q 392 922 360 928 q 423 913 408 919 q 450 897 438 907 q 490 849 475 878 q 511 790 504 824 q 518 732 517 765 q 504 815 515 781 q 457 889 489 860 q 418 913 438 904 q 374 921 397 921 q 290 899 333 921 q 225 850 257 881 q 172 788 194 822 q 135 715 147 753 q 119 632 118 671 q 125 589 119 610 l 128 579 l 132 569 l 133 564 l 136 558 q 142 549 140 550 q 194 485 160 515 q 235 451 213 468 q 281 419 257 435 q 319 389 304 403 q 325 385 321 388 l 324 383 l 322 382 q 297 401 310 392 q 255 433 288 410 q 206 472 222 457 q 161 515 179 494 q 129 571 140 542 q 117 635 117 601 q 125 697 117 665 m 104 739 q 106 733 104 733 q 85 640 88 688 q 89 590 85 615 q 106 542 94 564 q 132 500 115 522 q 99 554 111 526 q 83 618 86 583 q 104 739 79 676 "},"9":{"ha":610,"x_min":18,"x_max":603,"o":"m 165 315 q 196 326 181 318 q 203 329 201 328 l 208 333 q 219 340 215 338 q 231 347 224 343 l 235 351 l 239 356 q 256 371 247 363 q 286 403 271 386 q 329 463 306 428 q 365 522 344 488 q 432 643 394 574 l 447 674 l 449 676 l 450 678 l 450 681 l 453 683 q 461 697 458 693 q 469 708 465 704 q 472 713 472 713 q 475 713 474 714 q 476 708 476 711 q 478 678 479 694 q 476 672 478 676 l 476 669 l 476 668 l 475 668 l 475 664 q 471 600 475 647 q 453 474 465 538 q 422 350 440 414 q 414 306 417 333 q 417 282 411 285 q 406 256 414 276 q 401 244 406 254 q 396 229 397 235 q 372 179 378 189 q 319 81 353 136 q 313 63 313 69 q 321 68 313 54 q 490 538 454 283 q 503 665 501 604 l 503 671 l 504 675 l 504 683 q 504 701 504 701 q 503 740 504 722 q 496 779 501 761 q 492 789 494 786 q 483 789 488 793 q 478 782 481 788 l 472 774 q 436 706 458 750 q 460 753 450 735 q 481 789 471 774 q 488 794 483 794 q 496 788 493 794 q 501 768 497 782 q 507 686 508 736 l 507 676 l 506 665 q 506 651 506 664 q 504 632 506 639 l 503 599 q 501 581 501 593 q 499 565 500 568 q 478 435 492 494 q 443 306 464 369 q 396 182 424 243 q 338 64 374 131 q 264 -40 300 0 q 213 -104 218 -92 q 213 -111 211 -108 q 218 -112 214 -114 q 257 -92 233 -111 q 325 -19 292 -64 q 379 67 354 19 q 325 -29 353 13 q 317 -49 315 -44 q 328 -39 318 -50 q 386 50 357 -1 q 411 97 407 88 q 435 146 431 136 q 433 133 433 138 q 444 143 433 121 q 550 451 517 299 q 488 226 528 332 q 442 119 471 181 q 415 67 418 72 l 401 42 q 388 17 394 31 q 379 -4 378 1 q 388 4 379 -10 q 419 57 404 31 q 424 65 421 60 q 429 76 426 71 q 433 85 432 81 l 447 113 q 496 225 476 175 q 501 232 497 226 q 512 257 506 240 q 519 275 518 274 q 524 290 521 282 q 530 306 526 297 q 535 321 533 315 q 490 192 517 258 q 483 167 483 176 l 485 163 q 493 176 489 164 q 589 518 563 340 q 594 563 593 549 q 599 607 597 594 q 601 651 601 640 l 601 681 q 601 721 603 683 q 597 800 599 789 q 585 868 593 836 q 581 883 583 869 q 575 896 578 888 q 563 915 568 908 q 549 929 557 922 q 535 939 540 935 q 525 943 529 942 q 518 944 521 943 l 517 944 q 515 944 515 944 q 514 944 514 944 q 511 946 513 946 q 494 944 499 946 l 481 942 q 476 940 479 942 l 472 939 l 464 935 l 460 933 q 458 931 460 933 l 456 929 l 446 921 q 442 917 446 919 q 436 911 438 914 l 426 894 q 388 825 417 881 q 349 749 367 783 l 325 701 q 286 626 301 654 q 246 556 265 588 q 203 490 222 515 q 181 463 192 475 q 168 451 174 456 q 163 446 164 447 l 160 443 l 157 442 q 147 435 151 438 l 146 435 l 146 435 l 146 433 q 146 433 146 433 l 144 433 q 144 435 144 433 l 144 435 q 143 440 143 439 q 142 453 142 446 q 147 521 140 483 q 157 586 156 561 q 157 607 158 600 q 154 613 156 611 q 150 614 153 614 q 207 721 171 667 q 238 775 232 758 q 238 779 238 776 q 218 776 239 792 q 325 854 279 840 q 347 860 340 858 q 367 858 358 861 q 376 850 374 856 q 379 846 378 849 q 381 844 379 844 q 383 847 381 844 q 386 858 386 853 q 379 876 388 868 q 347 889 368 889 q 332 888 340 889 q 318 885 324 886 q 293 875 306 881 q 249 849 272 865 q 178 779 213 819 q 121 699 144 740 q 79 608 96 654 q 196 815 115 725 q 208 828 206 824 l 218 838 q 231 853 229 847 q 238 878 251 878 q 179 838 218 878 q 40 606 82 739 q 32 574 35 583 q 25 540 29 560 q 19 469 19 503 q 32 390 21 424 q 60 346 42 364 q 101 318 76 326 q 165 315 132 307 m 511 931 q 513 931 511 931 q 514 931 514 931 q 518 929 517 931 q 524 928 521 929 q 539 915 529 925 q 564 882 554 900 q 579 825 572 864 q 588 753 586 788 q 583 756 586 757 q 569 861 582 813 q 532 921 558 897 q 518 929 526 926 q 508 931 511 931 q 500 931 504 931 q 511 931 507 931 m 89 439 q 92 525 83 478 q 90 440 85 478 q 96 421 93 429 q 97 418 96 419 q 97 417 97 417 q 99 413 97 417 q 103 406 100 408 q 126 385 111 389 q 149 383 138 381 q 168 390 158 385 q 178 396 172 392 q 189 404 185 400 q 226 442 208 419 q 290 533 254 474 q 346 633 315 576 q 372 685 354 651 l 401 744 q 432 806 419 781 l 440 819 l 444 826 q 449 833 447 832 l 456 844 l 461 853 l 464 856 l 478 874 q 482 880 479 876 q 488 886 485 883 q 492 892 490 889 q 503 897 497 896 q 515 894 510 899 q 524 885 519 890 q 528 874 528 876 q 538 850 533 863 q 544 824 543 836 q 554 763 551 797 q 556 696 554 751 q 556 688 556 696 q 556 679 556 681 l 556 664 l 554 636 q 526 422 549 528 q 465 218 504 319 q 539 511 517 354 q 551 656 549 579 q 553 696 553 688 q 553 707 553 700 q 553 718 553 714 q 552 728 553 722 q 551 740 551 735 q 543 822 550 786 q 533 857 539 840 q 526 872 531 865 q 519 888 521 885 q 513 893 517 892 q 503 896 508 896 q 490 886 496 894 l 481 875 l 476 868 l 471 861 l 461 849 l 451 833 l 449 831 q 446 825 447 826 l 440 815 q 438 809 440 813 q 434 802 436 806 q 431 796 432 799 q 392 717 414 763 q 388 707 389 711 q 385 700 386 703 q 382 688 382 693 q 354 633 364 654 q 258 471 301 532 q 197 404 228 429 q 161 382 178 388 q 125 381 142 374 q 100 404 110 386 q 93 420 96 411 q 89 439 90 429 "},"\u0000":{"ha":0,"x_min":0,"x_max":0,"o":""},"\n":{"ha":0,"x_min":0,"x_max":0,"o":""},"\r":{"ha":0,"x_min":0,"x_max":0,"o":""}," ":{"ha":419,"x_min":0,"x_max":0,"o":""},"!":{"ha":249,"x_min":39,"x_max":210,"o":"m 186 818 q 185 869 186 846 q 178 892 183 882 q 160 892 167 908 q 161 949 161 925 l 160 957 q 143 979 157 979 q 131 960 132 981 q 122 808 126 893 q 117 900 119 850 q 117 907 117 903 l 117 913 q 113 919 115 917 q 103 928 108 926 q 93 923 97 929 q 88 903 89 917 q 82 647 85 800 q 67 433 79 590 q 54 218 57 299 q 56 205 54 211 q 63 194 58 199 q 69 190 67 190 q 65 96 67 131 q 67 89 65 92 q 72 92 72 82 q 99 511 85 293 q 96 476 97 492 q 90 39 85 179 q 92 31 92 35 q 113 3 97 4 q 124 25 122 3 q 124 65 124 44 q 124 106 124 90 q 131 63 128 78 l 133 57 q 139 60 138 50 q 139 103 139 93 q 138 144 139 115 q 144 139 140 139 q 147 146 147 139 q 156 272 149 188 q 156 181 156 242 q 156 92 156 121 q 158 85 156 88 q 164 89 163 79 q 164 113 164 93 q 164 136 164 132 q 164 159 164 143 q 164 183 164 175 q 167 186 167 181 q 171 222 167 188 q 169 171 169 172 q 174 161 169 164 q 179 165 179 156 q 184 299 181 225 q 191 433 188 374 q 197 568 194 493 q 203 703 200 643 q 203 707 203 704 q 208 775 207 760 q 208 789 208 782 q 205 801 207 796 q 199 811 203 807 q 193 817 196 815 q 186 818 190 818 m 153 693 q 146 510 151 626 q 140 343 143 431 q 139 258 140 314 q 138 175 138 201 q 136 293 136 261 q 138 365 136 324 q 142 447 140 407 q 143 519 143 488 q 139 531 143 526 l 140 556 q 148 680 143 599 q 153 776 153 761 q 153 693 153 714 m 175 375 q 171 375 174 375 l 175 432 q 176 446 176 438 l 175 375 m 178 -110 l 176 -107 l 176 -104 q 175 -103 176 -103 q 178 -94 176 -99 q 169 -92 178 -93 q 154 -89 160 -89 q 150 -85 153 -86 q 125 -74 138 -74 q 126 -65 125 -69 q 117 -53 128 -61 q 101 -49 106 -43 q 93 -65 96 -56 q 90 -85 90 -74 q 86 -72 88 -79 q 85 -58 85 -65 q 85 -57 85 -58 l 85 -56 q 82 -51 85 -54 q 68 -43 76 -46 q 57 -49 60 -42 q 56 -60 56 -53 q 54 -72 54 -65 q 54 -92 53 -81 q 57 -107 56 -99 l 60 -121 q 58 -137 60 -129 q 55 -155 57 -146 q 51 -172 53 -164 q 45 -189 49 -179 q 40 -206 42 -199 q 42 -208 40 -207 q 48 -210 44 -210 q 56 -211 51 -211 q 46 -231 51 -221 l 53 -231 q 82 -146 76 -192 l 82 -153 q 74 -203 81 -171 q 68 -240 68 -236 q 74 -245 67 -243 q 89 -247 81 -247 q 99 -243 97 -246 q 106 -226 103 -235 q 108 -235 107 -231 q 113 -236 110 -236 q 117 -235 115 -236 q 121 -218 119 -228 q 126 -218 124 -218 q 130 -217 129 -218 q 143 -192 131 -215 q 136 -228 142 -211 l 143 -228 q 149 -210 146 -221 q 151 -208 151 -210 q 157 -201 154 -204 q 154 -211 156 -207 l 154 -212 l 164 -212 q 176 -157 174 -183 q 178 -131 179 -143 q 178 -117 178 -124 q 178 -110 178 -112 m 129 -144 q 122 -211 128 -192 q 122 -204 122 -208 q 122 -196 122 -200 q 124 -187 122 -192 q 125 -173 124 -183 q 126 -158 126 -162 q 126 -143 126 -153 q 122 -140 125 -142 l 122 -136 q 122 -114 122 -121 q 122 -106 122 -110 q 122 -99 122 -103 q 124 -93 122 -96 q 128 -108 126 -106 q 129 -144 131 -125 m 163 -169 q 158 -169 160 -169 q 161 -158 161 -162 l 163 -156 q 163 -169 163 -162 "},"\"":{"ha":547,"x_min":68,"x_max":478,"o":"m 233 921 q 178 840 194 889 q 179 849 179 846 q 224 938 188 874 q 222 942 224 939 q 217 947 221 944 q 210 951 214 949 q 201 953 206 953 q 196 951 197 953 q 182 936 189 944 q 183 946 183 942 q 180 949 183 947 q 175 950 176 951 q 164 932 169 942 q 156 935 158 939 q 144 922 151 931 q 133 910 136 913 q 154 949 143 932 q 149 953 151 954 q 136 932 142 944 q 131 932 132 933 q 128 928 131 931 q 124 925 125 926 q 131 938 126 931 q 122 940 125 942 q 74 811 78 876 q 74 810 74 811 q 69 793 71 801 q 76 785 68 789 q 92 779 85 781 q 96 764 93 771 q 108 756 99 758 q 122 757 117 753 q 126 741 124 747 q 143 738 128 735 q 157 744 158 740 q 156 751 156 749 q 156 758 156 754 q 156 775 156 764 q 165 756 161 761 q 167 754 165 756 q 171 753 168 753 q 186 754 176 753 q 194 756 194 756 q 193 764 193 757 l 192 778 q 192 807 192 796 q 197 824 194 815 q 206 843 200 833 q 215 859 211 853 q 226 876 218 865 q 236 892 233 888 q 233 897 238 894 q 224 901 229 900 q 239 918 231 911 q 233 921 236 924 m 104 876 l 103 872 q 107 890 104 881 q 111 889 110 889 q 104 876 106 879 m 151 899 q 145 887 149 894 q 140 874 142 879 q 135 861 138 868 q 133 847 133 854 q 136 844 133 846 l 135 839 q 124 786 126 807 q 122 807 122 800 q 131 850 124 829 q 161 926 144 901 q 158 917 160 922 q 154 908 156 913 q 151 899 153 903 m 478 949 q 471 953 475 954 q 406 867 429 919 q 408 875 407 871 q 464 971 419 901 q 460 979 465 974 q 449 988 456 985 q 438 988 442 990 q 422 971 429 979 q 424 982 424 976 q 421 985 424 983 q 417 986 418 988 q 403 968 408 978 q 394 971 399 976 q 381 957 390 967 q 369 944 372 947 q 396 986 381 968 q 389 990 392 993 q 374 969 383 983 q 369 969 371 971 q 361 963 367 967 q 369 974 367 969 q 368 978 371 975 q 361 979 364 982 q 299 842 310 913 q 300 840 299 842 q 293 822 296 832 q 299 812 292 817 q 314 806 306 807 q 317 790 314 797 q 320 786 317 789 q 327 782 324 783 q 335 780 331 781 q 342 781 339 779 q 340 765 340 772 q 348 758 340 761 q 362 753 356 754 q 371 757 368 753 q 378 796 374 771 q 383 771 379 786 q 383 768 383 769 l 385 767 q 388 765 385 765 q 403 760 394 761 q 411 765 411 760 q 417 828 414 807 q 424 847 419 838 q 435 867 428 857 q 446 885 442 878 q 459 904 450 892 q 471 921 468 917 q 469 926 472 922 q 460 932 465 931 q 478 949 468 942 m 336 910 l 335 907 q 342 925 336 914 q 344 924 343 924 q 336 910 339 915 m 386 932 q 378 915 385 928 q 367 894 371 903 q 363 876 364 886 q 365 874 363 875 l 363 867 q 346 811 351 833 q 347 833 346 825 q 360 881 351 858 q 399 961 381 935 q 392 945 396 956 q 386 932 388 935 "},"#":{"ha":728,"x_min":3,"x_max":663,"o":"m 631 1072 q 558 901 596 996 q 592 1007 583 983 q 594 1015 593 1011 l 596 1021 q 596 1031 597 1028 q 590 1043 596 1040 q 565 1021 578 1053 q 460 738 511 882 q 325 733 399 744 q 350 803 342 781 q 355 831 354 817 q 352 852 356 844 q 343 860 349 860 q 361 924 353 893 q 361 956 365 943 q 344 958 356 975 q 349 975 346 965 q 355 992 353 985 q 360 1009 357 1000 q 365 1026 364 1018 q 364 1067 375 1054 q 342 1049 353 1079 q 278 865 311 964 q 306 978 288 906 q 308 988 307 982 l 310 993 q 308 1003 311 1000 q 300 1017 307 1015 q 279 990 289 1018 q 190 704 232 846 q 163 694 175 699 q 160 693 161 694 q 121 683 139 689 q 106 671 111 681 q 106 654 101 661 q 78 639 90 647 q 68 623 69 633 q 75 610 67 613 q 44 599 58 604 q 33 578 35 593 q 49 567 35 563 q 132 594 71 574 q 86 568 121 589 q 82 567 83 568 l 79 565 q 76 560 76 564 q 78 544 72 551 q 93 540 83 536 q 144 561 129 554 q 135 533 142 551 q 129 514 129 515 q 114 511 117 511 q 96 497 101 507 q 94 479 90 486 q 61 463 72 469 q 49 444 50 456 q 57 432 47 433 q 22 417 36 424 q 10 394 8 410 q 28 386 11 379 q 96 411 64 400 q 94 407 96 410 q 93 406 94 406 q 69 390 83 400 q 65 389 67 390 l 63 386 q 58 382 58 385 q 58 373 57 378 q 60 365 58 368 q 67 362 63 363 q 78 364 72 361 q 79 364 78 364 q 82 365 81 365 q 24 151 46 247 q 24 127 21 139 q 32 114 26 115 l 18 56 q 16 47 17 51 q 15 40 15 43 q 13 33 14 38 q 11 25 11 29 l 4 -4 q 6 -14 3 -10 q 11 -10 10 -21 q 76 249 42 126 q 114 378 93 311 q 115 379 114 378 q 18 -81 43 118 q 18 -96 17 -87 q 33 -131 19 -129 q 47 -106 42 -131 q 51 -77 49 -96 q 56 -54 54 -58 q 60 -26 57 -44 q 65 -3 64 -8 q 61 -60 61 -43 q 63 -68 61 -64 q 69 -64 67 -75 q 73 -38 69 -56 q 78 -11 76 -21 q 88 42 86 35 q 89 36 88 38 q 96 42 93 29 q 115 119 108 96 q 138 197 131 175 l 131 169 l 125 140 q 122 123 124 133 q 117 103 119 113 q 114 85 115 93 q 111 71 113 79 q 108 57 110 63 q 106 44 107 51 q 103 29 104 36 q 97 0 100 19 q 93 -26 94 -19 l 94 -36 q 100 -33 97 -43 q 105 -3 101 -24 q 110 26 108 17 q 116 56 113 36 q 121 85 119 76 q 126 88 124 82 q 139 132 126 89 q 125 68 126 79 q 125 56 124 61 q 129 53 128 53 q 133 60 132 53 q 218 388 165 208 q 223 403 219 393 q 226 418 226 414 q 230 419 228 418 q 233 419 232 419 q 343 435 283 431 q 276 231 303 322 q 276 206 274 218 q 282 193 278 194 l 267 138 q 264 128 265 133 q 261 119 263 124 q 258 110 260 114 l 251 82 q 251 71 249 75 q 257 75 254 67 q 332 319 294 207 q 372 435 351 375 q 373 435 372 435 q 375 435 374 435 q 261 8 294 196 q 260 -12 258 -3 q 274 -42 261 -42 q 288 -18 283 -40 q 299 31 299 29 q 311 79 303 44 q 304 25 306 42 q 306 17 304 21 q 313 21 310 11 q 318 44 314 28 q 324 71 322 61 q 335 121 335 117 q 338 115 336 117 q 344 119 342 108 q 367 194 358 171 q 392 267 383 247 q 338 54 360 150 q 339 44 336 49 q 344 49 342 39 q 350 76 346 58 q 357 104 354 94 q 371 160 368 150 q 375 163 374 157 q 390 204 376 164 q 374 143 376 154 q 375 129 371 133 q 382 136 379 126 q 475 432 419 272 q 504 431 492 432 q 515 434 510 429 q 521 444 521 439 q 575 429 550 439 q 579 431 578 428 q 578 436 583 433 q 483 458 538 453 q 485 462 485 460 q 486 465 486 464 q 547 458 518 464 q 611 443 583 453 q 636 450 626 439 q 631 469 646 461 q 581 489 607 481 q 590 488 585 488 q 600 487 594 488 q 610 486 606 486 q 614 488 613 486 q 613 493 618 492 q 557 508 588 503 q 562 513 561 510 q 557 517 563 515 q 508 526 532 522 q 509 529 508 528 q 510 531 510 531 q 596 517 557 528 q 601 518 599 515 q 600 524 606 522 q 533 536 571 532 q 531 540 535 540 q 515 544 528 542 q 515 546 515 546 q 543 542 531 544 q 550 546 547 542 q 547 551 554 550 q 518 556 535 554 q 543 624 532 593 q 553 624 549 622 q 563 631 558 625 q 560 650 574 642 q 554 653 560 650 q 592 753 567 685 q 593 758 593 756 q 626 836 606 786 q 633 873 635 856 q 624 890 632 890 q 643 951 633 919 q 646 981 649 968 q 628 985 642 1000 q 654 1049 647 1033 q 654 1086 663 1071 q 631 1072 644 1103 m 192 479 l 193 481 l 194 481 q 194 478 194 479 q 193 476 193 476 q 192 475 193 475 q 190 475 190 475 q 191 477 190 475 q 192 479 192 479 m 139 461 q 139 461 139 461 q 139 461 139 461 m 169 392 q 142 288 143 293 q 94 81 122 210 q 124 228 110 171 q 169 399 136 282 q 170 399 169 399 q 172 400 171 400 q 170 396 171 399 q 169 392 169 393 m 171 642 q 138 632 153 636 q 172 646 161 642 q 171 642 171 643 m 196 363 l 185 319 q 182 322 183 321 l 203 390 q 205 397 203 390 q 208 407 207 403 q 196 363 204 390 m 211 536 q 207 535 210 536 q 203 533 204 533 l 208 550 q 221 589 210 556 q 225 590 222 589 q 229 592 228 592 q 211 536 221 564 m 456 728 m 453 517 l 451 513 q 450 513 451 513 q 449 513 449 513 q 450 514 449 513 q 450 517 450 515 q 451 517 450 517 q 453 517 453 517 m 450 713 q 449 710 450 711 q 449 708 449 710 q 424 713 435 711 q 450 713 436 713 m 319 718 q 358 725 342 722 q 358 721 358 722 q 324 718 342 721 l 319 718 m 308 682 q 383 693 351 690 q 443 696 415 697 q 442 693 443 693 q 413 692 428 693 q 307 679 347 689 q 308 682 307 681 m 317 635 q 424 646 375 646 q 422 640 422 642 q 413 642 415 640 q 297 632 364 643 q 317 635 303 632 m 418 564 q 418 562 418 563 q 418 561 418 561 q 418 564 418 563 m 390 560 q 353 558 371 560 q 267 547 310 556 q 283 604 272 568 q 346 613 314 610 q 411 614 379 615 q 390 560 403 593 m 401 514 q 400 511 401 513 q 400 513 400 511 q 400 514 400 514 l 401 514 m 297 818 l 282 767 q 269 724 276 746 l 268 724 q 265 724 265 724 q 297 818 278 763 m 247 669 q 253 671 251 671 q 252 667 253 669 q 250 663 251 664 q 244 661 249 663 q 245 665 244 663 q 247 669 246 668 m 353 461 q 315 457 333 460 q 338 460 319 458 q 353 461 344 461 m 371 510 q 301 500 332 507 q 294 494 297 499 q 278 493 290 494 q 247 488 264 490 q 249 492 249 489 q 250 494 250 494 q 307 504 279 500 q 372 513 340 508 q 371 510 372 511 m 356 543 l 347 543 q 386 547 363 544 q 385 545 385 546 q 385 544 385 544 q 356 543 367 543 m 385 464 q 383 463 383 464 q 383 463 383 463 q 382 463 382 463 q 382 464 382 464 l 383 464 l 385 464 m 400 354 q 343 157 378 283 q 379 297 364 244 q 424 435 393 347 q 425 435 424 435 q 400 354 406 375 m 435 463 q 433 463 435 463 q 432 463 432 463 l 433 467 l 436 467 q 435 463 435 464 m 457 422 l 443 382 q 440 383 442 383 l 458 433 q 460 433 460 433 q 457 422 457 425 m 469 460 q 469 464 469 461 q 469 462 469 463 q 469 460 469 461 m 468 560 q 466 560 468 560 q 464 560 464 560 q 465 574 467 568 l 475 601 q 479 613 476 606 q 483 621 482 618 q 490 619 488 619 q 468 560 479 589 m 493 626 q 486 629 492 626 q 490 639 489 638 q 497 638 490 639 q 493 626 494 633 m 536 510 q 503 513 522 511 q 503 513 503 513 q 504 514 503 514 q 536 510 521 513 m 514 685 q 508 686 513 686 q 514 703 511 694 q 519 701 519 701 q 517 693 519 699 q 514 685 515 688 m 558 806 q 540 757 549 779 q 522 708 535 740 q 517 710 522 708 q 575 854 540 769 l 558 806 "},"$":{"ha":657,"x_min":65,"x_max":589,"o":"m 586 -15 q 585 -4 586 -14 l 583 6 q 579 25 582 8 q 551 100 569 64 q 481 206 524 156 q 421 264 454 236 q 419 453 419 358 q 422 555 421 489 q 422 650 422 621 q 422 657 422 654 q 428 760 425 717 q 424 792 428 776 q 415 815 421 807 q 404 819 410 822 q 404 823 404 821 q 404 827 404 825 q 404 831 404 829 q 416 836 411 835 q 431 840 421 838 q 443 842 440 842 q 463 836 454 842 q 471 836 467 833 q 469 842 475 838 q 458 847 463 846 q 444 850 453 849 q 429 849 436 850 q 411 843 418 846 q 403 840 408 842 q 403 853 403 843 q 440 864 424 863 q 458 863 449 864 q 475 857 465 861 q 506 832 490 849 q 517 815 511 824 q 528 793 522 806 q 563 731 550 742 q 574 735 571 724 q 568 774 576 746 q 536 849 556 819 q 472 896 508 885 q 544 846 513 888 q 557 835 553 836 q 554 846 560 835 q 485 907 528 890 q 438 914 463 915 q 399 906 418 913 q 397 907 399 906 q 401 912 401 910 q 397 913 401 914 q 394 922 396 918 q 404 925 400 924 q 461 930 432 933 q 517 910 490 926 q 536 900 531 900 q 529 910 540 901 q 471 936 501 931 q 406 933 440 942 q 390 929 399 932 q 381 939 386 939 q 372 928 375 939 q 368 1010 371 968 l 368 1018 q 347 1053 361 1051 q 338 1022 336 1054 q 340 922 339 976 q 331 918 336 921 q 330 925 331 919 q 329 933 329 931 q 328 944 329 939 l 328 951 q 324 961 326 958 q 311 974 318 974 q 300 936 299 972 q 301 899 301 921 q 299 896 301 897 q 296 893 296 894 q 265 868 278 879 q 210 811 235 842 q 121 679 157 751 q 104 643 113 663 l 96 624 q 89 604 90 608 q 78 563 82 583 q 71 519 74 542 q 78 424 65 468 q 126 333 92 374 q 194 275 153 304 q 233 250 208 265 q 258 235 258 235 q 297 208 279 221 q 303 17 299 106 q 282 35 290 31 q 276 38 279 38 q 274 18 268 38 q 222 125 244 69 q 186 178 203 169 q 178 172 178 182 q 186 133 176 160 q 257 -15 214 56 q 304 -85 282 -58 q 328 -111 315 -99 l 328 -114 q 289 -75 308 -99 q 232 7 264 -43 q 224 21 229 13 l 218 31 q 208 42 213 40 q 188 50 190 63 q 204 -3 183 36 q 243 -65 224 -37 q 292 -128 267 -103 q 324 -156 307 -143 q 331 -161 329 -160 l 332 -174 l 336 -243 l 338 -250 q 343 -254 340 -257 q 344 -247 344 -253 q 339 -167 342 -210 l 342 -168 q 353 -174 347 -172 q 371 -322 361 -251 q 374 -336 372 -329 q 399 -375 385 -374 q 406 -343 410 -375 q 394 -225 403 -307 q 407 -287 403 -268 l 408 -293 q 414 -297 411 -300 q 415 -290 417 -296 q 404 -193 411 -247 q 406 -194 406 -193 q 407 -194 407 -194 q 422 -196 414 -196 q 428 -243 426 -226 l 429 -250 q 435 -254 432 -256 q 436 -247 436 -253 q 431 -197 433 -225 q 456 -197 443 -199 q 507 -183 483 -196 q 551 -150 533 -172 q 576 -104 568 -131 q 586 -58 585 -83 q 586 -15 588 -37 m 276 864 q 299 883 282 871 q 301 885 300 885 q 301 886 301 886 l 303 883 l 303 881 q 296 876 300 881 q 233 822 263 851 q 276 864 253 844 m 236 803 q 303 867 265 838 q 303 858 303 861 q 268 829 283 844 q 175 721 215 781 q 236 803 201 764 m 101 399 q 86 447 92 422 q 82 496 82 471 q 86 493 85 493 q 97 417 86 451 q 136 347 110 378 q 161 321 146 335 q 101 399 119 357 m 297 267 q 262 289 286 274 q 224 314 238 304 q 153 378 176 346 q 128 422 136 399 q 117 472 119 446 q 126 568 113 515 q 158 656 136 608 q 206 736 179 699 q 264 807 232 774 q 303 844 282 826 q 303 843 303 843 q 239 776 269 814 q 169 668 197 724 q 144 611 154 638 q 126 551 132 581 q 119 488 118 518 q 122 454 119 474 q 131 422 126 435 q 146 392 136 407 q 167 365 154 379 q 215 322 186 343 q 267 289 231 311 q 297 271 282 281 q 297 267 297 271 m 297 324 q 261 346 268 342 q 185 415 206 383 q 165 510 161 454 q 193 611 169 556 q 246 707 215 661 q 303 776 271 743 q 303 764 303 768 q 208 632 244 706 q 197 608 206 628 q 188 583 188 588 q 172 535 178 558 q 175 442 161 481 q 233 368 188 403 q 297 324 250 354 m 303 564 q 299 354 299 432 l 294 356 q 292 357 293 357 q 218 418 238 393 q 200 450 206 433 q 194 488 194 468 q 214 576 194 528 q 304 726 246 658 q 303 643 303 697 q 303 564 303 589 m 340 886 q 333 882 338 885 q 333 886 333 883 q 333 890 333 889 q 340 896 336 893 q 340 886 340 892 m 340 810 q 340 807 340 810 q 340 803 340 804 q 340 806 340 803 q 339 810 339 808 l 340 810 m 340 915 l 340 908 q 340 904 340 906 q 332 900 338 903 q 332 908 332 906 q 340 915 336 911 m 324 365 q 324 338 324 354 q 324 350 324 340 q 324 365 324 360 m 324 307 l 324 307 q 324 307 324 307 m 324 254 q 325 253 325 253 q 325 251 325 253 q 325 247 325 249 q 324 248 325 247 q 324 249 324 249 q 324 254 324 254 m 332 -21 q 325 188 326 83 q 326 186 325 188 q 339 -31 331 74 q 332 -21 335 -25 m 336 -121 q 336 -119 336 -119 q 347 -128 342 -124 q 347 -129 347 -128 q 336 -121 342 -125 m 369 304 q 367 381 368 349 q 364 396 367 390 q 364 416 364 403 q 364 432 364 429 q 365 535 364 479 q 369 653 367 590 q 372 757 371 715 q 374 633 374 682 q 371 367 371 431 q 372 303 371 336 q 371 303 372 303 q 369 304 369 304 m 372 221 q 373 220 372 221 q 375 219 374 219 q 375 210 375 213 q 373 210 374 210 q 372 211 372 211 q 372 221 372 219 m 392 -71 q 390 -71 392 -71 q 379 50 383 -1 q 375 144 376 90 q 378 140 375 143 q 392 -71 383 42 m 410 188 q 410 183 410 186 q 410 178 410 179 q 408 179 410 178 q 407 181 407 181 q 406 187 406 183 q 406 192 406 190 q 407 190 407 190 q 410 188 408 189 m 406 -71 q 403 19 403 -33 q 410 -71 406 -19 q 406 -71 407 -71 m 424 -72 q 424 -53 424 -58 q 425 -72 424 -57 q 424 -72 425 -72 m 426 81 q 439 58 435 68 q 452 32 447 44 q 461 6 457 19 q 467 -21 464 -4 q 468 -44 468 -33 q 468 -50 468 -46 q 463 -65 467 -60 q 458 -72 461 -69 q 453 -74 456 -74 q 440 -74 449 -75 q 436 -74 439 -74 q 426 81 431 3 m 515 -78 q 488 -117 507 -103 q 440 -129 468 -131 q 503 -99 483 -131 q 517 -24 521 -71 q 492 64 513 19 q 443 142 474 104 q 424 164 435 151 q 424 169 424 165 q 424 174 424 172 q 458 132 443 153 q 510 31 494 82 q 521 -24 519 3 q 515 -78 524 -54 "},"%":{"ha":1074,"x_min":19,"x_max":1007,"o":"m 750 639 q 753 643 751 640 q 780 678 763 656 q 803 708 797 700 q 818 742 815 724 q 811 761 819 758 q 846 813 824 778 q 856 840 854 826 q 840 849 856 858 q 849 862 843 853 q 860 875 856 871 q 869 888 863 879 q 881 901 876 896 q 890 938 896 922 q 864 931 885 956 l 835 894 l 807 860 q 751 788 793 843 l 781 833 q 810 879 783 838 q 814 888 813 883 l 818 892 q 819 901 821 897 q 819 914 822 910 q 789 899 810 928 q 611 646 703 786 q 549 556 604 636 q 465 435 494 476 q 326 218 383 313 q 320 197 321 208 q 324 182 319 185 q 265 86 319 175 q 264 78 263 82 q 269 79 264 69 q 540 500 417 314 q 518 465 528 482 q 256 14 354 210 q 249 -29 242 -12 q 275 -17 257 -49 q 288 6 279 -10 q 299 25 296 21 q 322 67 322 67 q 303 18 310 36 q 301 10 300 13 q 308 13 304 4 q 333 56 328 47 q 346 78 338 64 q 357 100 354 93 q 358 92 356 93 q 365 97 361 90 q 406 161 390 139 q 447 224 435 207 q 342 38 394 132 l 340 29 q 346 29 340 19 q 371 74 351 39 q 401 128 390 108 q 407 129 403 124 q 431 164 407 131 q 400 111 403 118 l 397 100 q 406 101 399 92 q 572 372 483 233 q 750 639 650 493 m 374 132 q 442 257 419 218 q 514 374 465 297 q 583 486 563 451 q 588 499 588 493 l 604 522 q 757 739 668 619 q 740 712 750 728 q 719 681 729 696 q 701 656 710 667 q 581 475 618 532 q 554 433 571 458 q 541 411 550 425 q 528 390 532 397 q 475 304 478 310 q 374 132 457 274 m 524 321 q 521 324 524 322 l 558 379 q 568 393 564 388 q 545 356 560 379 q 524 321 531 332 m 1000 315 q 989 353 997 332 q 968 388 981 372 q 939 415 956 406 q 932 419 935 418 q 924 424 928 422 q 911 428 918 426 q 885 422 885 433 q 846 432 867 429 l 846 433 q 846 435 846 435 q 822 435 846 451 q 796 435 810 436 q 756 421 768 433 q 765 407 746 410 q 722 396 739 404 q 689 364 699 385 q 686 344 685 356 q 644 279 664 314 q 639 276 643 283 q 610 231 621 250 q 649 299 626 264 q 653 315 653 308 q 643 311 651 321 q 618 267 628 285 q 594 221 604 243 q 563 114 569 164 q 561 54 558 83 l 563 39 q 565 22 563 36 q 568 7 565 22 q 574 -8 571 -1 q 581 -26 576 -18 q 585 -36 582 -31 q 592 -46 589 -42 q 622 -79 604 -65 q 710 -104 660 -107 l 715 -104 l 721 -104 q 732 -101 726 -103 q 751 -97 740 -100 q 783 -83 767 -92 q 811 -67 797 -76 q 833 -51 828 -56 q 876 -14 853 -36 q 914 29 896 6 q 972 126 950 75 q 982 153 974 131 q 990 179 989 175 q 994 193 994 192 q 997 207 997 203 q 1003 238 1000 221 q 1003 246 1003 242 q 1000 315 1007 283 m 807 375 q 829 372 818 374 q 853 367 840 369 q 874 357 865 361 q 801 368 843 371 q 807 375 804 372 m 756 372 q 760 374 757 374 q 738 349 747 360 q 756 372 746 360 m 719 356 q 735 367 725 363 q 713 338 722 353 q 719 356 714 347 m 774 336 q 782 336 778 336 q 799 338 789 338 q 832 333 817 338 q 858 324 847 331 q 874 308 868 318 q 883 254 886 290 q 878 218 882 236 q 867 181 874 201 q 793 74 842 119 q 742 33 769 50 q 718 22 728 25 q 708 19 713 19 q 704 19 708 19 q 703 19 704 19 q 693 28 694 21 q 693 31 693 28 q 692 35 692 33 q 689 47 692 36 q 686 72 686 61 q 718 185 686 121 q 724 208 724 196 q 719 224 725 221 q 792 319 751 275 l 796 331 q 789 328 794 335 q 708 221 743 279 q 661 100 669 156 q 663 39 657 67 q 665 25 665 28 q 669 14 668 18 q 683 -1 675 4 q 703 -7 692 -7 q 728 -3 714 -8 q 783 32 750 6 q 765 18 767 19 q 746 6 754 11 q 718 -6 731 -3 q 694 -8 706 -10 q 675 3 682 -6 q 668 11 671 7 q 665 17 668 13 q 663 24 664 21 q 658 39 663 26 q 657 46 658 40 q 657 50 657 47 q 656 54 657 53 q 656 86 654 71 q 668 151 657 118 q 696 217 679 183 q 732 278 713 249 q 774 336 751 308 m 651 276 q 689 335 668 307 q 689 333 689 333 q 697 324 693 326 q 700 321 699 322 q 694 313 696 315 q 694 323 697 321 q 686 317 692 325 q 638 239 660 278 q 599 153 613 194 q 651 276 614 211 m 717 -89 q 694 -90 706 -90 q 653 -81 672 -89 q 592 -21 613 -64 q 596 -21 594 -22 q 640 -72 613 -54 q 706 -90 668 -90 q 714 -89 707 -90 q 718 -89 714 -89 q 721 -89 721 -89 q 736 -86 729 -87 q 717 -89 726 -89 m 950 225 q 814 -4 925 86 q 789 -24 799 -17 q 763 -40 776 -32 q 694 -57 726 -58 q 659 -47 675 -56 q 632 -21 643 -37 q 622 -6 626 -14 q 615 11 618 3 q 608 42 611 26 q 621 167 599 99 q 672 275 636 217 q 613 117 622 189 q 608 75 610 97 q 614 32 610 51 q 628 -10 619 6 q 661 -44 640 -33 q 710 -54 682 -57 q 754 -42 731 -53 q 790 -19 771 -33 l 799 -12 l 807 -7 q 822 7 811 -3 q 832 21 829 14 q 856 47 844 33 q 936 186 910 107 q 951 268 950 231 q 946 311 951 290 q 928 351 940 333 q 944 322 938 338 q 953 289 950 307 q 950 225 957 260 m 278 326 q 299 346 286 333 q 338 389 319 367 q 400 483 372 432 q 425 535 414 507 q 444 589 438 564 q 449 601 444 589 q 453 617 451 614 q 458 646 456 632 q 464 710 464 681 q 463 719 464 714 q 449 792 463 758 q 429 829 442 810 q 417 846 421 840 q 401 861 410 853 q 367 882 386 875 q 338 889 351 889 q 323 889 329 890 q 314 885 317 888 q 313 881 311 883 q 261 883 288 885 q 214 874 238 882 q 176 847 185 864 q 177 838 174 840 q 190 836 181 835 q 151 815 171 828 q 118 786 131 801 q 106 757 106 772 q 111 739 104 744 q 71 632 88 688 q 67 629 69 636 q 47 575 56 600 q 71 653 57 614 q 72 668 74 663 q 64 664 71 681 q 47 614 57 642 q 33 561 39 583 q 24 446 19 499 q 26 415 24 432 q 29 399 26 413 q 35 382 32 390 q 49 347 40 364 q 78 310 61 325 q 118 285 96 293 q 165 276 140 276 q 213 285 189 276 q 224 290 219 288 q 233 294 228 292 q 250 304 242 299 q 278 326 264 314 m 233 817 q 264 821 250 821 q 313 813 290 822 q 229 808 274 825 q 233 817 232 813 m 208 767 q 211 768 211 767 q 274 783 244 785 q 324 764 306 782 q 338 742 333 754 q 344 711 343 728 q 343 672 346 693 q 339 653 342 664 l 336 643 l 333 632 q 272 503 314 564 q 226 447 251 474 l 214 435 q 208 429 213 433 q 201 422 204 425 q 179 406 188 411 q 174 404 175 404 q 171 403 171 403 q 167 403 169 401 q 161 405 164 403 q 158 410 158 407 l 158 411 q 158 412 158 411 q 157 413 157 413 q 156 417 156 415 q 153 428 154 422 q 151 435 153 429 q 151 442 151 438 q 150 456 150 447 q 150 486 149 471 q 163 553 153 515 q 164 578 165 565 q 157 593 163 592 q 207 711 176 654 q 208 724 211 719 q 203 719 207 726 q 146 588 168 656 q 122 451 119 507 q 126 419 124 436 q 131 406 128 413 q 136 394 133 399 q 150 379 142 383 q 169 375 158 374 q 181 378 175 376 q 186 381 183 378 q 193 383 189 382 q 219 404 204 390 q 269 458 247 431 q 238 421 251 436 q 210 394 221 403 q 183 376 196 382 q 161 374 172 372 q 140 383 149 374 q 133 391 136 386 q 128 404 131 396 q 122 419 125 411 q 121 427 122 422 q 119 436 119 432 q 119 507 114 468 q 135 581 124 539 q 158 653 144 617 q 208 767 179 711 m 175 792 q 189 800 182 796 q 149 725 167 764 q 172 786 158 753 q 175 792 174 789 m 61 564 q 79 632 68 594 q 119 738 96 685 q 121 739 121 739 q 124 742 124 740 q 126 746 125 743 q 133 756 129 749 q 163 785 143 771 q 114 679 135 736 l 114 686 q 106 681 111 694 q 72 590 86 635 q 51 493 56 536 q 61 564 53 526 m 72 414 q 68 447 69 428 q 69 513 65 478 q 82 575 74 542 q 99 635 89 606 q 78 549 85 589 q 71 458 69 499 q 76 414 72 435 q 92 371 82 390 q 128 335 107 346 q 178 328 150 322 q 203 335 190 329 q 224 347 213 340 q 258 376 239 358 q 313 443 289 408 q 319 458 318 451 q 340 490 331 474 q 378 565 361 526 q 392 606 385 582 q 403 647 400 631 q 408 735 414 694 q 396 779 406 758 q 368 817 385 801 q 375 811 372 814 q 381 804 378 808 q 386 797 386 797 l 392 789 q 407 757 401 772 q 414 689 417 726 q 410 653 414 671 q 401 618 407 635 q 379 551 393 583 q 308 429 351 486 q 265 381 288 404 q 242 358 251 367 q 214 338 228 346 q 206 333 208 335 q 196 329 200 332 q 176 325 186 326 q 138 328 156 321 q 104 349 119 333 q 83 381 93 361 q 72 414 76 396 m 232 310 q 224 305 228 307 q 214 301 219 303 q 192 293 203 296 q 104 307 143 282 q 108 308 107 307 q 175 293 138 289 q 211 301 193 294 q 219 304 214 303 q 226 308 222 306 q 239 315 232 311 q 261 331 250 322 q 232 310 247 318 "},"&":{"ha":851,"x_min":-31,"x_max":790,"o":"m 772 60 q 757 58 767 60 q 731 55 747 57 q 699 51 714 53 q 695 51 699 51 q 689 51 692 51 l 679 50 q 673 50 676 50 q 666 50 669 50 q 660 50 663 50 l 640 50 q 636 50 640 50 q 631 50 632 50 l 621 50 l 601 53 l 582 54 q 578 56 581 54 q 572 56 574 56 l 563 58 l 543 61 l 524 67 q 520 67 524 67 q 514 68 517 68 l 506 72 l 486 78 l 468 85 q 464 86 467 85 q 458 88 461 88 l 457 89 q 458 90 457 89 q 458 90 458 90 q 475 85 468 88 q 515 74 482 82 q 557 65 551 67 q 575 64 569 64 q 586 65 583 64 l 585 68 q 568 72 583 68 q 465 101 515 81 q 475 115 472 111 q 475 115 475 115 q 482 114 479 115 q 493 113 490 113 q 479 122 493 115 q 522 206 515 175 q 524 211 522 208 q 499 197 525 229 q 593 392 564 297 q 601 465 606 432 q 588 504 599 493 q 579 497 581 513 q 572 436 572 438 q 553 369 567 408 q 524 306 540 338 q 451 183 496 250 q 425 147 440 168 q 418 151 424 149 q 472 235 450 196 q 486 258 478 243 q 491 267 488 261 q 494 275 494 274 q 503 299 503 290 l 508 324 q 501 329 508 335 q 451 256 492 322 q 392 167 426 214 q 336 208 363 186 q 278 271 306 238 q 277 272 278 271 q 276 274 276 274 q 278 276 276 274 q 282 281 281 279 q 286 278 285 279 q 286 286 290 278 q 465 531 399 424 q 519 621 499 582 q 563 721 546 674 q 578 775 572 749 q 585 835 583 806 q 581 897 586 868 q 560 961 575 932 q 511 1018 542 994 q 446 1050 483 1040 q 376 1056 413 1058 q 311 1039 344 1053 q 254 1011 283 1029 q 231 993 243 1003 q 207 974 226 990 q 132 883 164 935 q 58 667 72 788 q 56 553 51 610 q 74 440 60 497 q 88 400 78 426 q 104 365 94 383 q 119 343 113 351 q 129 335 126 335 q 144 301 135 319 q 143 299 144 300 q 140 296 142 297 q 57 192 76 219 q 18 129 33 160 q -14 58 -3 93 q -19 36 -15 54 q -26 -6 -25 13 q -28 -17 -28 -15 l -29 -28 q -29 -50 -29 -43 q -26 -75 -28 -62 q -18 -104 -24 -90 q 18 -158 -7 -136 q 74 -189 42 -181 q 90 -192 85 -192 q 107 -193 101 -193 q 133 -193 121 -194 q 181 -183 157 -190 q 201 -175 192 -179 l 207 -174 l 211 -171 l 219 -167 q 285 -126 254 -150 q 326 -86 308 -107 q 347 -56 342 -68 q 349 -49 349 -51 q 346 -46 349 -46 q 415 33 379 -11 l 419 39 q 422 42 421 40 q 426 42 425 42 q 425 46 432 40 q 435 60 431 53 q 631 17 531 21 q 722 28 678 17 q 756 39 740 32 q 775 49 768 44 q 772 60 789 60 m 486 719 q 443 625 469 676 q 425 586 431 601 q 375 508 403 549 q 250 342 324 433 q 246 349 247 344 q 264 371 260 365 q 367 510 324 446 q 413 582 389 542 q 456 656 436 619 q 507 800 494 733 q 510 836 510 818 q 508 874 511 856 q 500 908 506 892 q 483 938 494 925 q 460 961 472 953 q 428 974 446 969 q 358 972 394 982 q 236 889 294 956 q 193 825 213 863 q 188 819 192 825 q 183 808 185 813 l 175 792 q 171 781 174 788 q 168 774 168 775 q 161 754 165 767 q 151 718 158 746 q 143 679 144 686 q 139 640 142 669 q 138 601 138 608 q 193 360 138 475 l 192 358 q 142 513 156 432 q 150 731 122 625 q 251 910 179 840 q 271 928 251 910 q 292 943 278 933 q 336 968 314 958 q 383 981 360 978 q 431 976 408 982 q 499 917 478 964 q 511 819 517 876 q 501 769 510 797 q 486 719 496 744 m 156 567 q 167 486 158 522 q 190 408 178 442 q 206 375 197 392 q 203 372 204 374 q 200 369 201 371 q 181 422 189 396 q 156 649 143 536 q 156 567 153 604 m 186 472 q 215 388 197 428 q 214 386 215 388 q 186 472 197 428 m 189 508 q 186 524 188 514 q 185 536 185 535 q 183 552 183 542 q 182 565 182 563 q 182 622 181 600 q 201 733 185 683 q 250 832 221 790 l 258 843 q 260 845 258 843 q 263 849 261 847 l 267 854 l 275 864 q 278 867 276 865 q 281 870 279 868 q 285 874 283 872 q 304 890 286 875 q 325 906 311 897 q 367 926 346 919 q 404 931 386 932 q 435 921 422 929 q 439 915 436 918 q 442 913 440 915 q 444 911 444 911 q 453 897 450 903 q 461 860 460 883 q 460 811 464 839 q 458 804 458 808 q 457 799 457 800 q 456 792 457 797 q 454 786 454 788 q 446 758 450 771 q 425 706 438 733 q 367 600 404 660 q 297 496 336 550 q 222 397 265 450 q 189 508 200 450 m 342 935 q 379 946 361 943 q 415 944 399 949 q 464 908 449 938 q 475 874 472 893 q 473 881 474 876 q 472 886 472 886 q 471 890 472 886 q 468 897 469 894 q 458 915 465 906 q 446 929 456 921 q 429 939 439 935 q 388 944 410 946 q 340 929 364 942 q 342 935 343 933 m 243 333 q 240 331 242 333 q 239 328 239 329 q 235 335 238 331 q 239 340 235 335 q 243 333 240 339 m 233 322 q 231 319 232 321 q 228 315 229 317 q 225 322 228 318 q 227 324 225 322 q 229 328 229 326 q 233 322 232 324 m 218 313 q 219 310 218 313 q 221 307 221 308 q 219 310 221 308 q 218 313 218 313 m 226 214 q 238 203 236 204 q 346 107 286 147 q 338 96 342 101 q 240 181 282 133 q 219 206 231 190 q 224 211 221 207 q 226 214 225 213 m 188 267 q 185 263 186 265 q 182 260 183 261 q 181 258 181 258 q 179 260 181 258 q 176 264 178 263 q 185 272 179 267 q 186 269 185 271 q 188 267 188 268 m 128 360 q 82 565 88 457 q 111 775 75 675 q 228 954 149 885 q 321 1014 272 994 q 378 1028 350 1025 q 439 1024 410 1031 q 494 997 471 1015 q 535 950 519 978 q 556 894 549 925 q 560 838 560 868 q 553 783 558 811 q 539 732 547 758 q 507 653 526 694 q 549 765 535 711 q 557 878 563 825 q 540 936 553 910 q 504 988 526 967 q 449 1018 481 1008 q 388 1026 419 1028 q 275 988 331 1024 q 133 818 183 928 q 88 606 89 721 q 96 496 86 551 q 125 390 106 442 q 158 317 139 353 q 155 313 157 315 q 151 308 153 310 q 128 360 139 333 m 146 -136 q 125 -140 136 -139 q 101 -140 110 -140 q 56 -122 75 -137 q 28 -81 36 -107 q 22 -57 24 -69 q 21 -35 21 -44 q 25 8 21 -12 q 51 89 32 47 q 99 167 69 125 q 154 236 119 194 q 171 257 157 239 l 174 254 q 175 251 174 253 q 114 178 132 200 q 83 133 94 151 q 68 110 81 131 l 63 99 q 56 86 58 92 q 25 -22 28 32 q 31 -81 24 -57 q 46 -110 35 -97 q 71 -129 56 -122 q 101 -139 85 -136 q 132 -137 117 -140 q 188 -121 160 -135 q 146 -136 168 -131 m 189 -43 q 178 -49 188 -44 q 167 -56 171 -53 l 160 -58 q 154 -61 156 -60 q 144 -65 150 -62 q 125 -71 133 -68 l 119 -71 l 115 -71 l 113 -71 q 110 -71 111 -71 q 110 -71 110 -71 q 96 -62 100 -71 q 94 -60 94 -61 q 93 -57 93 -58 q 93 -54 93 -56 q 92 -33 90 -43 q 93 -10 92 -28 l 94 3 q 97 8 96 4 q 99 14 97 13 q 117 61 104 38 q 144 108 128 85 q 214 199 167 142 q 236 172 225 185 q 308 106 268 138 q 314 102 311 104 q 319 99 317 100 q 324 95 321 97 q 329 92 326 93 l 332 89 q 313 67 322 78 q 233 -11 271 18 q 189 -43 210 -31 m 267 -31 q 360 71 311 8 q 363 70 361 71 q 364 69 364 69 q 267 -31 313 8 m 369 75 q 367 76 368 75 q 365 78 365 76 q 374 90 368 82 q 378 88 376 88 q 369 75 371 78 m 378 147 q 293 215 331 178 q 311 206 307 203 q 310 210 313 206 q 304 215 308 211 q 297 224 301 219 q 265 261 281 242 q 271 268 267 264 q 326 207 297 235 q 388 161 354 182 q 387 160 388 160 q 386 159 386 160 q 378 147 386 158 m 401 115 l 397 118 l 401 115 m 410 128 q 408 129 410 128 q 404 131 406 129 q 414 144 408 136 q 421 142 417 143 q 410 128 410 128 "},"'":{"ha":313,"x_min":68,"x_max":244,"o":"m 238 924 q 179 864 199 899 l 182 869 q 194 892 188 881 q 213 917 201 903 q 228 938 224 931 q 225 945 231 940 q 212 953 219 950 q 201 953 204 956 q 188 942 194 947 q 189 950 189 947 q 186 953 189 951 q 182 954 183 956 q 171 942 175 949 q 163 944 165 949 q 150 935 158 942 q 140 928 142 928 q 161 957 150 944 q 154 960 157 961 q 143 946 150 954 q 139 946 140 947 q 134 944 138 946 q 131 942 131 942 q 138 950 135 947 l 138 951 l 129 954 q 75 854 83 907 q 76 853 75 854 q 69 836 72 844 q 76 826 68 832 q 92 821 83 821 q 96 806 93 813 q 108 799 99 800 q 122 800 118 797 q 126 788 124 793 q 142 786 128 783 q 157 792 157 789 q 156 803 156 797 q 156 815 156 808 q 165 801 160 806 q 167 800 165 801 q 171 800 168 800 q 186 801 176 800 q 194 803 194 803 q 190 814 192 804 q 191 824 190 818 q 192 835 192 829 q 200 852 194 843 q 211 867 206 861 q 226 882 217 872 q 239 897 235 892 q 236 902 240 899 q 228 907 232 906 q 243 919 235 914 q 238 924 240 924 m 110 904 l 108 901 q 114 915 111 910 q 117 914 115 914 q 110 904 114 910 m 157 915 q 149 904 154 913 q 141 890 144 896 q 136 876 138 883 q 139 872 136 875 l 138 868 q 129 849 133 857 q 124 826 125 836 q 124 844 122 838 q 133 879 126 863 q 167 936 151 918 q 162 926 165 933 q 157 915 158 919 "},"(":{"ha":263,"x_min":3,"x_max":382,"o":"m 381 1051 q 372 1057 381 1058 q 349 1043 363 1056 q 269 956 308 1007 q 238 907 254 933 q 224 882 231 896 l 208 857 q 240 918 235 910 q 275 979 257 951 q 282 989 279 985 q 286 996 285 993 q 290 1006 292 1001 q 288 1025 297 1025 q 254 999 274 1025 q 199 913 226 961 l 174 869 q 163 847 171 863 l 151 825 q 78 638 107 731 q 71 616 75 631 q 65 599 67 601 l 60 578 q 56 567 58 574 q 54 558 54 560 q 49 537 53 550 q 43 518 44 524 q 40 504 42 511 q 38 490 39 497 q 35 476 36 482 l 31 456 l 26 436 l 19 394 l 14 353 q 13 344 14 351 q 13 332 13 336 l 11 311 q 10 142 4 239 l 14 100 l 15 89 q 16 83 15 88 q 17 79 17 79 l 19 57 l 24 36 l 25 26 l 28 15 q 31 2 29 10 q 34 -13 32 -6 q 38 -26 36 -21 q 50 -54 40 -42 q 64 -65 60 -67 q 119 -207 88 -144 q 129 -218 124 -215 q 129 -210 133 -217 q 71 -54 93 -139 q 53 25 68 -46 q 49 46 51 29 l 46 65 q 40 106 42 99 q 39 128 40 114 q 38 147 38 142 q 36 167 38 147 l 35 188 q 35 268 35 194 q 35 282 35 275 q 36 297 36 289 q 38 310 36 304 l 38 329 q 40 341 39 333 q 40 350 40 349 l 44 390 q 48 413 46 399 q 51 431 50 426 q 44 376 44 381 l 40 335 q 39 322 39 329 q 38 307 39 315 q 38 293 38 299 l 36 272 l 36 251 q 36 233 36 249 q 38 210 36 218 q 43 125 42 139 l 46 104 l 47 94 q 48 88 47 92 q 49 83 49 85 l 56 42 q 61 21 57 35 l 65 1 q 76 -40 74 -31 q 104 -121 89 -83 q 190 -272 139 -208 q 240 -306 217 -306 q 249 -297 250 -306 q 232 -272 247 -290 q 165 -168 194 -228 q 204 -222 183 -197 q 214 -229 210 -229 q 213 -221 218 -229 q 181 -167 197 -199 q 154 -111 167 -140 q 162 -116 158 -117 q 161 -106 165 -115 q 135 -17 146 -65 q 129 6 132 -8 l 125 28 q 124 39 125 31 q 121 51 122 47 l 118 74 l 121 58 l 122 50 q 124 45 124 49 q 125 42 125 42 l 132 10 l 136 -6 l 142 -22 q 151 -53 147 -43 q 203 -172 174 -119 q 214 -182 210 -183 q 213 -174 217 -181 q 158 -50 181 -118 q 160 -44 160 -49 q 150 7 153 -14 q 171 -65 157 -25 q 182 -78 175 -76 q 182 -68 185 -76 q 168 -22 172 -40 q 164 -9 167 -18 q 161 0 161 0 l 156 24 q 139 118 147 57 q 135 308 128 206 q 219 683 147 500 q 222 690 221 686 l 228 701 l 232 713 l 243 735 q 249 744 244 736 q 254 757 253 753 l 267 778 q 275 800 272 789 q 281 819 279 811 q 274 840 282 840 q 310 907 285 864 q 321 944 322 931 q 306 947 319 960 q 358 1011 332 983 q 381 1051 382 1035 m 119 225 q 115 226 118 226 l 117 267 q 118 288 117 268 l 119 307 q 119 313 119 310 q 120 317 119 315 q 121 322 121 319 q 121 326 121 325 l 119 276 q 119 249 119 267 q 119 225 119 232 m 203 772 l 190 743 l 185 729 l 182 722 l 179 714 l 168 685 l 163 669 q 159 660 161 667 q 157 653 157 654 l 146 621 q 140 603 143 615 q 136 589 136 590 l 126 557 l 118 524 q 111 490 111 493 q 99 424 99 426 q 89 176 79 300 q 138 -68 99 49 q 111 17 121 -25 q 106 39 108 26 q 101 58 103 51 q 97 83 100 65 q 93 103 93 100 q 82 271 81 182 q 84 292 83 278 q 85 313 85 307 q 85 322 85 314 q 86 333 85 329 l 88 354 l 89 375 q 92 396 90 390 q 97 438 94 418 q 96 454 97 449 l 103 490 q 149 649 124 581 l 156 668 l 164 688 q 171 704 165 690 q 181 725 176 718 q 217 800 211 790 q 210 788 215 799 q 203 772 206 778 "},")":{"ha":440,"x_min":67,"x_max":390,"o":"m 388 446 q 383 543 386 501 q 347 739 372 653 q 344 746 346 742 q 311 844 331 799 q 297 868 306 857 q 283 883 290 878 q 261 889 267 896 q 214 950 240 924 q 205 960 210 956 q 196 967 200 964 q 181 972 188 971 q 174 957 167 974 q 115 1011 147 988 q 92 1022 104 1019 q 74 1022 81 1025 q 71 1013 68 1018 q 75 1004 72 1008 q 81 1000 78 1003 q 86 994 83 997 q 214 843 163 938 q 178 891 197 868 q 138 933 160 914 q 131 940 135 936 q 129 942 131 940 q 126 944 128 943 q 118 947 121 949 q 100 943 103 953 q 103 932 99 939 q 107 925 104 928 q 115 915 111 919 q 203 786 167 863 q 251 629 233 718 q 265 489 263 568 q 264 347 268 414 q 250 208 260 278 q 222 72 240 144 q 222 47 219 61 q 229 35 224 36 l 219 6 q 210 -24 218 3 l 204 -37 l 197 -51 q 186 -78 186 -78 q 183 -87 183 -83 q 190 -86 186 -96 q 240 39 219 -24 q 272 172 260 103 q 292 454 296 307 q 293 407 292 435 q 288 260 293 329 q 267 117 281 186 q 231 -22 254 49 q 178 -154 207 -97 q 169 -203 163 -186 q 196 -189 176 -221 q 222 -140 200 -182 q 226 -133 224 -137 q 230 -124 228 -129 q 233 -115 232 -118 q 237 -108 235 -112 q 241 -99 239 -103 q 244 -90 243 -94 q 240 -106 243 -96 q 235 -118 236 -115 q 226 -147 228 -143 q 225 -157 224 -154 q 232 -153 226 -162 l 239 -140 l 244 -128 q 250 -114 246 -122 q 256 -101 254 -106 q 267 -74 258 -94 q 276 -46 274 -56 q 276 -53 276 -50 q 285 -47 281 -61 q 336 122 318 42 q 308 -1 324 50 l 304 -17 q 301 -26 303 -19 q 299 -32 299 -32 l 289 -62 l 278 -92 q 272 -107 272 -106 l 265 -121 q 265 -133 263 -129 q 271 -129 267 -137 q 296 -67 278 -112 q 307 -35 297 -64 q 308 -31 307 -33 q 309 -27 308 -29 q 310 -23 310 -25 q 311 -19 311 -21 l 317 -3 q 321 1 318 -6 q 325 12 322 3 q 329 25 328 21 q 338 50 333 38 q 335 38 336 46 q 331 25 333 31 q 328 14 329 19 l 318 -22 q 317 -36 315 -31 q 325 -32 319 -44 q 389 350 382 143 q 389 399 389 394 q 388 446 388 446 m 340 340 q 338 282 338 285 l 336 253 l 333 224 q 289 -6 322 104 q 321 156 308 67 q 335 469 346 335 q 331 485 333 479 q 328 518 329 500 q 308 671 322 603 q 263 819 292 753 q 304 710 289 767 q 339 457 333 601 q 340 340 342 406 m 374 342 l 374 317 q 371 265 372 301 q 367 268 368 268 q 374 347 371 299 q 374 357 374 350 q 374 367 374 364 l 374 342 "},"*":{"ha":625,"x_min":64,"x_max":557,"o":"m 542 768 q 519 764 531 767 q 528 772 524 768 q 528 776 528 774 l 524 779 q 501 774 514 778 q 501 778 503 775 q 497 781 499 782 q 461 775 497 781 q 507 793 485 788 q 508 796 508 793 l 504 800 q 479 792 494 797 q 476 794 478 794 q 465 794 472 794 q 479 799 474 797 q 481 803 482 799 q 476 807 478 808 q 375 768 418 793 q 367 783 375 776 q 353 789 360 790 q 350 817 353 804 q 338 831 347 826 q 322 829 328 835 q 321 857 322 844 q 308 871 319 865 q 290 863 292 876 q 289 789 290 803 q 281 832 286 806 q 279 836 281 835 l 279 839 q 275 842 278 840 q 260 845 269 847 q 251 835 251 843 q 247 739 254 774 q 226 769 239 749 q 210 796 213 790 q 196 789 206 801 q 189 807 192 797 q 183 801 183 804 q 225 729 197 760 l 219 733 q 202 753 211 742 q 183 776 193 764 q 167 796 174 788 q 159 794 165 799 q 149 783 153 789 q 146 772 144 776 q 154 758 150 765 q 146 761 150 760 q 142 758 144 761 q 140 754 140 756 q 150 740 143 747 q 144 733 142 738 q 154 710 146 731 q 133 735 142 722 q 128 729 128 732 q 139 715 132 724 q 136 711 136 713 q 139 703 138 706 q 133 711 136 707 q 126 704 125 708 q 181 639 151 660 q 117 586 178 635 q 114 576 114 583 q 118 567 114 569 q 78 538 107 558 q 76 533 76 536 q 82 532 79 529 q 168 592 147 575 q 204 622 188 607 q 210 626 207 624 q 157 575 190 604 q 74 501 92 519 q 72 478 64 490 q 92 475 81 465 q 125 500 101 482 q 113 482 117 490 q 113 476 111 479 q 117 476 114 474 q 149 503 132 488 q 151 497 149 500 q 156 497 153 494 q 185 517 165 504 q 210 533 206 531 q 142 474 183 508 q 142 469 140 472 q 146 468 143 465 q 182 497 158 478 q 186 496 183 494 q 201 506 196 501 q 182 489 192 496 q 181 485 179 488 q 186 481 182 476 q 240 524 221 507 q 293 575 271 550 q 294 577 293 576 q 294 578 294 578 q 298 574 296 576 q 302 571 300 572 q 306 568 304 569 q 344 513 321 550 q 379 463 368 476 q 394 468 383 456 q 410 442 403 454 q 415 447 415 443 q 347 553 388 501 q 354 546 353 547 q 389 503 360 539 q 436 449 418 467 q 453 453 442 443 q 458 469 464 463 q 446 489 453 481 q 457 483 451 486 q 461 485 458 483 q 463 490 464 488 q 449 508 457 499 q 452 512 450 510 q 454 515 454 514 q 436 549 450 522 q 468 510 456 528 q 474 515 475 513 q 458 536 469 522 q 460 540 460 538 q 458 545 458 542 q 456 550 457 549 q 464 539 460 546 q 468 539 465 538 q 471 544 474 542 q 400 640 431 607 q 418 656 411 650 q 449 670 433 664 q 492 684 465 676 q 525 694 518 692 q 525 710 532 696 q 550 714 538 713 q 547 721 551 719 q 438 692 492 717 q 446 696 443 694 q 472 709 457 703 q 498 719 486 715 q 526 730 510 724 q 553 740 542 736 q 556 749 556 742 q 551 763 556 756 q 542 768 546 769 m 278 643 q 280 642 279 643 q 281 640 281 640 q 280 639 281 640 q 278 637 279 638 q 277 634 278 636 q 275 632 276 632 q 274 632 275 632 l 272 633 q 278 643 276 639 m 156 682 q 158 685 157 683 q 160 681 158 683 q 164 675 163 678 l 165 674 q 156 682 160 678 m 194 692 q 153 736 163 724 q 161 730 156 735 q 169 722 167 725 q 178 713 172 719 q 188 701 183 706 q 199 693 193 696 q 201 694 199 693 l 204 692 q 219 678 217 679 q 215 674 217 675 q 194 692 204 682 m 160 514 q 184 536 168 521 q 203 554 200 551 q 244 595 238 589 q 257 610 250 601 q 258 608 257 610 q 160 514 221 561 m 260 560 q 258 563 260 561 q 281 583 271 575 q 283 588 281 585 l 285 588 q 260 560 272 574 m 317 726 q 301 679 311 701 q 297 668 300 674 q 292 671 293 671 q 290 672 292 672 q 308 713 301 693 q 321 769 317 739 q 317 726 319 744 m 428 778 q 429 775 428 776 q 421 773 426 775 q 414 771 415 771 l 410 769 q 428 778 418 774 m 431 582 q 428 579 429 581 q 424 586 426 582 q 419 593 421 590 l 418 596 q 431 582 422 590 m 442 515 q 432 526 440 518 q 419 538 424 533 q 408 550 414 543 q 399 563 403 557 q 389 574 394 568 q 378 585 383 581 q 374 585 376 586 l 369 590 q 360 601 365 594 q 351 612 356 607 q 342 623 347 617 q 333 633 338 629 l 335 635 q 349 622 343 628 q 382 586 367 606 q 401 564 389 578 q 424 538 414 550 q 442 515 433 526 m 467 756 q 449 748 461 753 q 428 739 436 743 q 413 728 419 735 q 411 724 411 728 l 406 721 q 360 694 376 704 q 360 697 360 694 q 371 707 367 703 q 413 733 390 722 q 494 769 468 763 q 480 763 489 768 q 467 756 471 758 "},"+":{"ha":626,"x_min":69,"x_max":558,"o":"m 547 439 q 510 444 528 442 q 529 447 521 446 q 533 452 532 449 q 531 456 533 456 q 492 460 513 458 q 494 465 494 461 q 490 468 494 468 q 457 475 479 471 q 432 479 435 479 q 515 475 478 479 l 518 476 q 517 482 521 482 q 474 486 500 485 q 471 490 474 489 q 454 494 464 492 q 479 492 468 493 l 482 494 q 481 501 488 501 q 393 508 436 507 q 399 571 396 539 q 399 575 399 574 q 401 595 400 585 q 405 617 403 606 q 407 638 407 629 q 403 665 410 653 q 389 676 397 678 q 390 724 390 693 q 386 744 390 736 q 367 747 376 761 q 371 772 369 761 q 372 781 371 776 q 373 790 372 786 q 375 799 374 794 q 364 828 378 818 q 346 813 351 838 l 339 778 q 333 743 339 772 q 324 674 331 728 l 324 717 q 325 758 324 721 q 326 765 326 763 l 326 771 q 324 778 326 775 q 315 787 321 785 q 304 783 310 789 q 297 765 299 778 q 276 525 282 656 q 276 515 276 522 q 275 507 275 508 q 228 500 250 504 q 225 500 226 500 q 190 497 206 499 q 175 486 181 496 q 174 469 169 476 q 147 457 158 464 q 139 442 139 451 q 146 428 139 431 q 138 424 143 426 l 129 424 l 131 421 q 125 417 125 418 l 69 385 l 131 393 l 133 393 q 138 394 135 393 l 139 389 q 192 408 161 401 q 158 388 174 399 q 157 386 157 386 l 154 385 q 154 379 153 383 q 158 365 153 372 q 168 360 163 357 q 264 386 197 375 q 260 326 261 351 q 251 125 251 211 q 257 108 251 117 q 268 100 263 100 q 267 13 268 42 q 269 6 267 8 q 275 10 275 0 q 289 388 279 217 l 290 388 q 289 367 289 372 q 296 -39 279 131 q 297 -47 296 -43 q 318 -71 304 -71 q 328 -50 329 -71 q 326 -12 328 -42 q 326 25 326 4 q 333 -15 331 -1 q 336 -19 335 -18 q 342 -17 342 -25 q 340 22 340 15 q 340 41 340 28 q 339 61 339 54 q 344 57 340 57 q 347 63 347 57 q 349 121 347 100 q 351 179 350 163 q 358 14 354 99 q 360 8 358 11 q 365 11 365 3 q 363 99 364 51 q 365 101 365 97 q 368 135 365 101 q 369 88 369 93 l 374 78 q 379 83 379 74 q 383 328 378 200 q 386 385 385 354 q 422 381 396 383 q 461 378 447 379 q 469 383 465 378 q 472 393 472 388 q 515 385 494 389 q 518 386 517 385 q 517 392 521 390 q 388 411 454 407 q 388 413 388 411 q 388 414 388 414 q 474 410 418 414 q 540 407 531 407 q 553 414 547 407 q 557 428 558 421 q 547 439 556 436 m 269 450 q 251 449 257 450 q 200 443 219 447 q 239 453 221 450 q 271 457 253 454 q 269 450 269 454 m 336 360 q 336 343 336 357 q 335 321 336 329 q 335 244 335 247 q 336 90 335 217 q 331 199 332 164 q 333 299 331 233 q 335 388 335 365 q 336 388 335 388 q 338 388 338 388 q 336 360 338 374 m 339 413 q 337 413 339 413 q 333 413 335 413 l 333 414 q 339 414 335 414 l 339 413 m 342 460 q 335 458 338 460 q 335 461 335 458 q 338 461 335 461 q 342 461 340 461 q 342 460 342 461 m 350 603 q 349 565 350 582 q 344 510 346 536 q 342 510 344 510 q 339 510 340 510 q 353 642 344 574 l 350 603 m 368 274 q 365 275 367 275 l 368 326 l 369 339 q 369 322 369 331 q 369 306 369 314 q 368 290 368 299 q 368 274 368 281 m 424 460 q 390 460 414 460 q 390 461 390 460 q 390 463 390 463 q 478 460 440 464 q 449 460 468 460 q 424 460 431 460 "},",":{"ha":314,"x_min":22,"x_max":240,"o":"m 233 93 q 150 -18 185 46 q 156 -8 153 -14 q 196 63 168 17 q 226 114 224 108 q 219 130 231 121 q 200 131 207 139 q 183 110 192 121 q 186 125 186 118 q 183 128 186 126 q 179 128 181 131 q 164 106 171 118 q 160 110 163 108 q 156 108 157 111 q 126 76 154 107 q 157 126 142 106 q 151 131 154 133 q 133 106 144 122 q 131 106 132 107 q 126 101 129 104 q 121 97 122 99 q 131 111 125 106 q 129 115 131 113 q 122 117 125 119 q 38 -37 63 36 q 36 -40 36 -39 q 26 -60 31 -51 q 29 -71 24 -64 q 43 -81 35 -78 q 42 -96 42 -89 q 50 -107 42 -100 q 63 -112 57 -114 q 56 -126 60 -121 q 60 -144 53 -132 q 75 -150 68 -157 q 103 -103 90 -135 q 99 -136 101 -124 q 97 -139 97 -137 l 97 -142 q 99 -146 96 -143 q 110 -158 101 -154 q 122 -153 118 -161 q 140 -106 131 -136 q 153 -67 147 -82 q 173 -28 161 -47 q 203 15 185 -10 q 228 51 221 40 q 226 58 229 54 q 218 65 224 63 q 239 89 228 78 q 233 93 236 94 m 94 54 q 99 51 97 53 q 95 47 97 50 q 91 42 93 44 q 88 36 89 39 l 85 33 q 94 54 90 43 m 108 -3 q 110 -8 108 -6 l 107 -15 q 76 -81 86 -60 q 83 -54 81 -62 q 106 1 93 -26 q 158 97 140 71 q 150 79 156 90 q 142 63 144 68 q 133 46 139 56 q 124 30 128 36 q 115 14 119 24 q 108 -3 111 4 "},"-":{"ha":378,"x_min":35,"x_max":310,"o":"m 303 313 q 281 319 292 317 q 293 322 288 321 q 294 326 294 324 q 293 331 294 329 q 269 336 282 335 q 271 341 271 338 q 269 344 271 344 q 249 351 263 347 q 232 357 236 356 q 285 350 261 356 q 286 357 286 356 q 258 363 275 361 q 257 367 258 367 q 246 372 256 368 q 261 369 256 371 q 263 378 265 376 q 100 381 175 399 q 99 379 99 379 q 78 378 88 379 q 70 368 72 378 q 69 351 68 358 q 56 343 61 347 q 51 329 51 339 q 56 315 51 319 q 40 310 49 313 q 37 301 38 308 q 38 286 36 293 q 46 279 40 279 q 86 289 60 283 q 64 274 78 283 q 63 272 63 274 l 61 271 q 60 268 60 271 q 62 251 58 260 q 69 246 65 243 q 136 267 111 261 q 250 256 165 271 q 255 259 253 254 q 257 269 257 264 q 282 260 271 265 l 283 261 l 283 268 q 169 293 231 293 q 179 293 174 293 q 297 282 213 294 q 305 288 301 281 q 308 302 308 294 q 303 313 308 310 m 200 375 q 200 372 200 374 q 183 374 188 374 l 179 375 q 200 375 188 375 m 226 338 q 161 336 171 339 q 158 332 160 336 l 151 332 q 89 324 114 329 q 111 332 103 331 q 164 340 138 339 q 261 336 225 344 q 242 338 254 338 q 226 338 229 338 "},".":{"ha":290,"x_min":53,"x_max":210,"o":"m 186 19 q 183 28 186 24 q 172 33 181 31 q 157 36 163 36 q 157 43 157 40 q 142 51 157 47 q 126 51 128 54 q 124 31 125 43 q 121 35 122 33 q 118 40 119 38 q 115 46 117 43 q 115 47 115 46 q 111 49 114 47 q 96 53 104 51 q 88 51 88 54 q 88 35 88 47 q 89 15 89 22 q 81 -1 86 7 q 67 -21 76 -10 q 54 -36 58 -32 q 56 -39 54 -37 q 61 -42 58 -40 q 68 -43 64 -43 q 56 -54 63 -49 l 63 -56 q 106 -7 93 -35 q 104 -11 104 -10 q 97 -28 101 -19 q 85 -49 92 -37 q 75 -65 78 -60 q 79 -69 74 -68 q 104 -75 97 -81 q 114 -65 110 -69 q 115 -72 114 -69 l 124 -74 q 131 -64 128 -69 q 140 -65 138 -68 q 157 -51 140 -64 q 143 -74 151 -64 l 150 -76 q 158 -64 154 -72 q 163 -65 161 -65 q 167 -62 164 -64 q 169 -61 169 -61 q 164 -67 167 -64 l 174 -69 q 206 -1 204 -35 q 206 0 206 0 q 210 8 208 6 q 206 13 210 10 q 197 17 203 15 q 186 19 192 18 m 153 -17 q 133 -60 142 -49 q 135 -52 133 -57 q 138 -44 138 -47 q 142 -35 139 -42 q 148 -24 146 -29 q 149 -15 150 -19 q 146 -12 149 -14 q 147 -10 147 -10 q 156 19 154 10 q 157 8 157 11 q 153 -17 157 -6 m 179 -42 q 176 -40 178 -42 q 181 -33 179 -36 q 182 -32 182 -33 q 179 -42 181 -37 "},"/":{"ha":589,"x_min":65,"x_max":526,"o":"m 514 943 q 517 981 526 967 q 493 968 507 996 l 471 929 l 450 889 q 410 808 440 871 q 420 835 414 818 q 429 858 426 851 q 449 910 431 864 q 453 917 451 913 l 454 922 q 456 932 457 928 q 451 944 456 940 q 425 924 440 956 q 300 644 363 797 q 197 411 199 414 q 104 174 140 276 q 103 151 101 163 q 108 138 104 140 q 90 85 103 119 q 71 33 76 50 q 71 24 68 28 q 76 26 72 18 q 258 489 172 283 q 243 450 250 468 q 75 -39 132 172 q 78 -83 67 -69 q 100 -65 89 -97 q 115 -19 104 -53 q 131 25 128 19 q 119 -25 124 -7 q 121 -33 119 -31 q 126 -31 124 -40 q 143 17 140 8 q 157 64 153 51 l 158 58 q 167 63 163 51 q 193 133 182 108 q 221 201 213 183 q 156 0 188 103 q 156 -10 153 -6 q 161 -7 158 -15 q 194 100 194 97 q 200 103 197 97 q 217 142 200 103 q 197 83 200 90 q 198 70 194 75 q 204 75 201 65 q 315 371 254 219 q 438 663 368 503 q 439 668 438 665 q 458 707 446 682 q 475 740 471 732 q 483 775 483 758 q 474 793 482 792 q 497 850 482 811 q 501 878 503 867 q 485 885 499 897 q 499 914 489 894 q 514 943 503 922 m 278 311 q 275 313 276 313 l 300 374 q 303 379 301 376 q 305 385 304 382 q 307 389 306 388 q 299 369 303 381 q 292 350 296 358 q 285 331 289 342 q 278 311 281 319 m 386 671 q 303 471 329 536 q 285 426 296 454 q 267 379 278 406 q 233 286 235 292 q 168 99 219 249 q 210 233 196 190 q 239 313 222 268 q 274 403 256 357 q 304 483 292 449 q 306 496 307 490 l 317 522 q 425 761 361 629 q 386 671 406 718 "},":":{"ha":250,"x_min":17,"x_max":181,"o":"m 64 549 l 63 546 q 40 501 61 540 q 71 494 60 492 q 79 503 75 499 q 81 497 79 499 q 85 495 82 496 q 89 496 88 494 q 96 504 93 499 q 104 503 103 500 q 109 507 107 504 q 115 512 111 510 q 119 515 118 514 q 108 496 117 504 l 117 494 q 124 504 119 497 q 128 504 126 504 q 133 508 131 507 q 129 503 131 504 l 138 500 q 161 567 167 533 q 164 575 163 571 q 139 581 165 582 q 135 588 138 585 q 122 591 132 590 q 107 590 113 592 q 106 597 107 594 q 90 601 104 600 q 75 599 75 601 q 75 582 75 592 q 65 592 74 583 q 64 593 64 592 q 60 594 63 593 q 44 595 53 596 q 36 592 35 594 q 44 565 43 569 q 40 553 43 560 q 34 544 38 547 q 25 533 31 540 q 17 524 19 526 l 31 518 q 19 510 26 514 l 26 508 q 64 549 56 525 m 142 533 l 143 535 q 142 526 143 531 q 138 526 140 526 q 142 533 140 531 m 101 521 q 104 529 101 524 q 108 539 107 535 q 108 547 110 543 q 104 549 108 547 l 106 551 q 108 576 108 568 q 113 567 113 571 q 113 546 114 556 q 97 507 106 518 q 99 515 99 510 q 101 521 100 519 m 176 26 q 179 38 178 32 q 172 43 181 40 q 156 46 164 46 q 151 56 154 51 q 139 60 149 58 q 125 60 129 61 q 122 68 124 64 q 117 72 122 71 q 92 71 93 79 q 92 49 92 63 q 82 63 89 53 q 81 64 82 63 q 76 65 79 65 q 62 67 71 68 q 53 64 53 67 q 58 28 58 38 q 54 11 58 19 q 47 -2 50 3 q 37 -17 44 -7 q 28 -29 29 -26 q 40 -36 28 -32 q 28 -46 35 -42 l 35 -49 q 78 6 65 -28 q 76 0 76 3 q 47 -60 72 -12 q 48 -62 46 -60 q 54 -66 50 -64 q 63 -69 58 -68 q 70 -71 67 -71 q 76 -69 74 -71 q 86 -58 82 -64 q 88 -67 86 -62 q 91 -68 88 -67 q 94 -68 94 -69 q 103 -57 100 -64 q 113 -58 110 -61 q 122 -49 115 -56 q 129 -42 128 -43 q 115 -68 124 -57 l 122 -71 q 131 -57 126 -65 q 135 -57 135 -58 q 142 -53 138 -56 q 136 -60 139 -57 l 138 -61 l 146 -62 q 176 25 179 -19 q 176 26 176 25 m 125 -1 q 106 -53 117 -36 q 108 -43 107 -49 q 111 -35 110 -37 q 115 -26 113 -31 q 118 -17 117 -21 q 121 -9 119 -14 q 121 0 122 -4 q 118 3 121 1 l 119 7 q 125 42 124 28 q 128 28 128 32 q 125 -1 129 13 m 153 -28 q 149 -28 151 -28 q 154 -19 153 -22 l 156 -17 q 153 -28 154 -22 "},";":{"ha":386,"x_min":69,"x_max":322,"o":"m 315 622 q 317 631 317 626 q 293 636 318 638 q 288 643 290 640 q 275 645 285 644 q 260 644 265 646 q 258 651 260 647 q 242 654 257 654 q 228 651 228 654 q 229 633 228 643 q 217 643 225 636 q 217 644 217 643 l 215 644 q 213 644 215 644 q 197 645 206 646 q 189 642 188 644 q 199 614 197 619 q 194 601 197 608 q 189 590 192 594 q 181 578 186 586 q 172 568 175 571 l 188 564 q 176 554 182 558 l 183 554 q 218 599 211 572 l 218 594 q 196 546 217 588 q 226 540 217 536 q 235 549 232 544 q 238 543 236 546 q 241 542 238 543 q 246 542 244 542 q 253 551 250 546 q 261 551 258 549 q 269 559 264 554 q 276 565 275 564 q 265 543 272 553 l 272 542 q 279 554 276 546 q 283 554 283 553 q 289 558 286 556 q 286 551 288 554 l 294 550 q 315 621 322 588 q 315 622 315 621 m 267 596 q 253 556 261 568 q 255 563 254 558 q 257 569 256 568 q 260 579 257 572 q 263 589 263 586 q 263 597 264 592 q 260 599 263 599 l 260 603 q 263 629 263 619 q 267 619 265 624 q 267 596 268 608 m 297 578 q 293 578 294 578 q 297 585 296 582 l 299 588 q 297 578 299 582 m 271 49 q 269 71 271 63 q 259 82 268 78 q 244 82 250 86 q 246 104 246 93 q 238 114 246 110 q 223 117 231 118 q 215 111 215 117 l 214 97 l 211 83 q 207 57 211 83 l 206 74 q 203 83 204 76 q 203 90 203 89 q 201 93 203 92 l 201 94 q 199 97 201 97 q 183 102 192 103 q 174 94 174 101 q 164 7 172 46 q 132 -60 154 -25 q 88 -117 118 -81 q 88 -124 85 -119 q 94 -132 90 -129 q 69 -154 81 -146 q 75 -160 72 -160 q 169 -44 135 -117 q 164 -56 167 -50 q 76 -182 139 -111 q 76 -194 74 -187 q 86 -206 79 -201 q 99 -206 93 -210 q 110 -196 104 -200 q 121 -185 115 -190 q 115 -200 118 -192 q 116 -204 114 -201 q 121 -206 118 -207 q 143 -182 133 -194 q 146 -186 143 -185 q 150 -186 149 -187 q 167 -169 154 -182 q 186 -150 179 -157 q 143 -207 167 -183 q 149 -212 144 -214 q 162 -198 157 -204 q 174 -183 167 -192 q 177 -185 175 -186 q 181 -181 179 -183 q 185 -178 183 -179 q 189 -175 188 -176 q 176 -190 181 -185 q 176 -196 174 -193 q 183 -197 179 -200 q 246 -107 221 -154 q 283 -1 272 -56 q 283 1 283 0 q 292 28 288 13 q 287 42 294 35 q 271 49 279 49 m 222 -122 q 219 -121 221 -121 q 232 -101 228 -108 l 235 -96 q 222 -122 232 -103 m 238 22 q 235 7 236 14 q 214 -61 228 -31 q 186 -119 200 -96 q 150 -172 169 -149 q 174 -133 156 -162 q 211 -57 207 -78 q 210 -51 213 -54 l 214 -43 q 238 39 231 0 q 238 22 238 26 "},"<":{"ha":557,"x_min":63,"x_max":489,"o":"m 467 642 q 357 589 406 614 q 418 631 389 611 q 422 633 421 632 l 426 636 q 429 642 429 638 q 428 658 435 651 q 407 657 422 664 q 224 550 299 601 q 146 497 172 518 q 126 481 135 488 q 118 471 119 474 l 113 465 l 108 461 q 74 396 82 431 q 78 324 64 357 q 128 269 93 289 q 165 254 144 261 l 174 251 l 181 250 q 192 246 188 247 q 236 233 211 240 q 253 235 244 232 q 263 244 261 239 q 342 228 297 236 q 347 229 344 226 q 344 235 353 233 q 258 254 299 243 q 217 267 238 260 q 196 274 210 268 l 172 281 q 119 311 138 293 q 103 335 108 322 q 96 364 97 349 q 111 419 96 392 q 128 444 118 433 q 136 454 132 450 q 144 463 138 456 q 133 450 139 456 l 128 444 q 122 436 126 442 q 99 382 103 410 q 111 325 94 349 q 160 290 126 303 q 175 285 167 288 l 188 281 q 210 275 192 281 q 390 249 301 251 q 421 263 413 247 q 404 279 428 278 q 339 288 371 282 q 374 289 356 288 q 379 292 378 289 q 376 297 383 296 q 310 306 335 303 q 310 314 318 311 q 214 343 268 324 q 353 317 279 326 q 358 319 356 317 q 356 325 363 324 q 283 336 313 331 q 281 340 285 339 q 256 349 269 344 q 293 340 269 346 l 301 343 q 299 350 306 349 q 249 361 274 354 q 225 368 239 364 l 213 372 l 207 374 l 206 374 q 204 375 204 375 q 200 381 200 378 q 203 385 200 383 q 204 386 203 386 l 206 386 l 206 388 q 208 389 207 389 l 211 393 q 243 419 224 406 q 282 447 258 432 q 325 475 301 460 q 329 476 326 475 q 376 500 349 486 q 394 518 389 506 q 394 536 399 531 q 429 558 415 549 q 440 572 436 564 q 442 585 444 579 q 432 590 440 590 q 445 596 438 592 q 460 603 453 600 q 472 611 467 607 q 488 633 488 618 q 467 642 486 650 m 293 513 q 233 474 257 490 q 179 429 200 450 q 169 418 174 424 l 167 417 q 165 413 165 414 q 161 408 164 413 q 150 386 154 397 q 150 361 147 372 q 167 343 154 350 q 189 332 175 338 q 194 331 192 332 q 199 330 196 331 q 204 328 203 329 l 221 324 q 285 310 251 315 q 193 328 232 317 q 160 343 171 333 q 146 374 144 354 q 157 407 147 389 q 163 414 160 410 q 163 415 163 414 q 164 417 164 417 l 168 421 q 181 438 174 429 q 185 446 185 440 q 199 457 190 450 q 272 506 224 476 q 350 549 303 524 q 293 513 332 538 m 188 374 q 183 372 185 374 q 186 386 182 379 q 189 389 188 388 q 188 374 185 381 "},"=":{"ha":754,"x_min":65,"x_max":692,"o":"m 672 492 q 622 504 647 499 q 650 504 638 504 q 654 507 653 504 q 653 513 658 511 q 600 524 629 518 q 603 528 603 525 q 600 532 604 531 q 558 544 585 536 q 519 553 531 551 q 635 533 581 546 q 640 535 638 533 q 639 540 644 540 q 578 553 615 547 q 576 557 579 556 q 565 561 572 558 q 554 564 557 564 q 588 558 569 561 q 592 560 590 557 q 592 567 600 565 q 417 596 497 588 q 235 597 318 606 q 232 597 233 597 q 185 596 215 597 q 164 585 172 594 q 158 568 156 576 q 124 557 139 564 q 108 540 111 551 q 115 528 106 531 q 81 514 96 522 q 69 490 65 506 q 88 483 74 476 q 175 506 121 499 q 124 486 146 497 q 119 483 122 485 l 118 482 q 115 478 115 481 q 116 462 111 469 q 131 457 121 454 q 200 474 157 467 q 279 482 242 479 q 411 472 338 483 q 543 449 436 468 q 555 451 549 447 q 563 461 561 456 q 619 444 592 454 q 625 446 622 444 q 622 451 628 450 q 363 503 490 494 q 385 501 378 503 q 658 463 449 497 q 682 472 674 460 q 672 492 692 486 m 454 578 q 453 575 453 576 q 417 581 443 576 l 407 582 q 454 578 438 581 m 504 535 q 358 547 389 549 q 351 544 354 547 q 335 544 349 544 q 190 542 254 547 l 218 546 q 244 549 229 547 q 364 551 303 554 q 579 526 488 546 q 556 529 568 528 q 528 533 543 531 q 504 535 513 535 m 644 318 q 622 324 633 321 q 597 329 610 326 q 624 331 611 329 q 629 334 628 331 q 626 338 631 338 q 576 347 601 344 q 580 351 579 349 q 576 356 581 354 q 540 363 565 358 q 500 371 514 368 q 610 358 560 368 q 614 361 613 358 q 613 367 618 365 q 583 371 594 369 l 554 375 q 553 379 556 378 q 531 385 539 383 q 563 381 551 382 q 568 382 565 381 q 567 390 575 389 q 399 404 481 404 q 229 388 311 404 q 226 388 228 388 q 183 382 208 386 q 171 376 176 381 q 163 365 165 371 q 164 353 161 358 q 133 342 144 347 q 120 326 122 338 q 126 313 118 315 q 94 303 111 308 q 81 285 82 299 q 96 272 81 268 l 118 278 l 139 282 q 183 292 140 282 l 158 282 l 133 271 q 129 268 132 269 l 126 267 q 124 263 124 267 q 123 247 118 256 q 139 242 128 239 q 283 278 218 265 q 407 281 339 285 q 528 268 451 278 q 539 272 533 267 q 544 282 544 276 q 597 269 578 275 q 601 271 600 268 q 600 276 606 275 q 358 307 488 311 q 379 307 369 307 q 632 289 479 311 q 651 296 644 286 q 644 318 665 313 m 436 390 q 435 386 435 389 l 400 389 l 392 389 q 436 390 403 390 m 486 351 q 350 350 383 356 q 343 346 346 350 l 328 346 q 194 328 256 340 l 219 335 q 244 340 233 339 q 354 354 301 351 q 457 357 413 357 q 558 349 508 356 q 486 351 539 350 "},">":{"ha":554,"x_min":67,"x_max":488,"o":"m 485 514 q 483 519 485 515 q 483 524 483 524 q 481 533 481 532 q 472 550 478 543 q 461 565 467 560 l 447 578 l 446 579 q 444 581 444 581 q 443 581 443 581 l 438 583 l 428 589 l 417 594 q 410 599 414 596 q 406 600 406 599 l 381 608 q 356 615 381 608 q 331 622 338 621 l 319 625 l 313 626 q 308 626 311 626 q 249 638 282 632 q 222 632 233 639 q 213 617 211 625 q 169 614 190 617 q 151 607 158 613 q 151 588 138 594 q 107 588 131 588 q 83 572 89 586 q 99 557 78 557 q 217 551 183 554 q 146 544 190 550 q 140 544 143 544 l 136 544 q 132 540 133 543 q 126 526 122 535 q 144 517 129 517 q 240 514 204 517 q 288 510 261 513 q 293 508 289 508 q 299 507 297 507 q 301 507 301 507 q 310 506 308 506 q 322 500 317 504 q 326 497 325 499 q 328 492 329 494 q 318 482 326 488 q 307 478 313 479 q 303 476 304 478 l 300 476 l 297 475 l 292 472 q 254 451 269 461 q 179 407 214 429 q 169 394 172 403 q 169 382 167 386 q 104 343 132 360 q 101 336 100 339 q 106 335 103 332 q 251 419 182 381 q 270 429 258 422 q 289 440 282 436 l 307 450 l 311 453 l 314 454 l 315 454 l 321 457 q 364 486 349 471 q 351 474 358 481 q 329 460 342 467 q 318 453 324 457 l 317 453 l 314 451 l 310 449 l 300 443 q 225 397 260 419 q 82 296 146 346 q 69 268 67 283 q 93 264 72 250 q 146 300 126 288 q 121 275 132 286 q 119 269 119 272 q 125 268 119 264 q 179 306 146 282 q 179 299 178 303 q 186 300 181 296 q 272 349 217 319 q 156 268 236 324 q 153 261 151 265 q 158 261 154 258 q 187 280 165 265 q 219 303 208 294 q 224 301 221 300 q 249 314 229 304 q 215 292 222 296 q 211 285 211 289 q 218 282 211 278 q 307 336 263 310 q 351 363 325 347 l 363 368 l 365 371 l 367 371 l 369 372 l 381 379 q 424 408 407 396 q 459 442 444 425 q 479 476 474 458 q 485 514 486 494 m 385 397 q 364 385 376 393 l 350 376 q 349 381 350 379 l 358 385 l 375 394 q 408 415 394 406 q 422 426 415 421 q 385 397 407 413 m 429 486 q 374 431 414 458 q 356 419 367 426 l 339 408 l 311 392 q 199 321 268 365 q 275 374 251 358 q 314 397 293 386 q 332 408 325 404 l 343 415 l 354 422 q 400 454 382 438 q 417 472 410 463 q 429 493 426 485 q 428 501 431 497 q 424 521 431 513 q 407 536 418 529 l 396 542 q 386 547 386 547 q 338 565 361 558 l 324 568 q 311 571 321 569 q 289 576 304 574 q 244 583 269 579 q 313 575 283 581 q 399 547 365 565 q 417 538 417 538 q 431 525 426 531 q 436 504 438 515 q 429 486 436 496 "},"?":{"ha":464,"x_min":64,"x_max":500,"o":"m 499 853 q 499 867 499 861 q 493 893 496 881 q 469 939 485 918 q 382 986 436 982 q 329 982 357 989 q 324 981 326 982 l 318 981 q 310 978 311 978 q 293 971 300 974 q 235 943 267 961 q 228 938 232 940 q 200 921 219 933 q 174 901 179 906 q 126 856 150 882 q 99 804 106 832 q 103 781 93 781 q 93 760 103 779 q 83 738 92 756 q 76 715 79 724 q 71 693 74 704 q 76 642 65 660 q 92 651 85 629 q 96 601 89 625 q 122 560 104 576 q 153 544 136 546 q 172 550 165 543 q 171 561 176 556 q 154 574 171 561 q 138 590 144 579 q 128 611 131 600 q 125 661 121 633 q 142 714 129 683 q 168 764 151 739 q 143 703 151 735 q 133 642 132 668 q 135 632 133 638 q 136 626 135 629 q 140 619 138 621 q 157 618 149 611 q 163 639 163 622 q 167 672 163 654 q 174 692 169 681 q 178 703 175 696 q 181 711 181 711 q 201 749 193 736 q 208 759 204 753 q 214 767 213 765 l 221 775 q 228 782 224 779 q 257 813 238 794 q 292 838 278 829 q 301 843 294 840 q 305 846 301 844 q 311 849 308 847 q 329 858 329 857 q 334 860 331 858 q 339 863 338 861 q 349 865 344 864 q 351 865 349 865 q 353 867 351 867 q 354 867 354 867 q 358 868 357 867 q 371 865 367 868 q 379 854 376 861 q 379 836 381 849 q 379 828 379 833 l 378 824 l 378 819 q 374 801 376 811 q 322 654 363 746 l 288 578 q 254 500 268 533 q 194 338 218 413 q 191 307 190 322 q 197 290 192 292 q 158 143 174 214 q 158 131 157 136 q 161 129 160 126 q 164 135 163 131 q 265 453 194 275 q 329 606 290 515 q 388 757 375 710 q 372 707 382 733 q 342 628 361 678 q 308 549 318 572 q 247 388 271 458 q 169 47 183 201 q 169 28 169 38 q 172 11 171 19 q 182 -11 176 -6 q 186 -15 183 -14 q 200 18 196 -18 q 218 144 206 81 l 215 110 q 214 75 215 106 q 215 65 213 69 q 221 71 218 57 q 244 200 229 128 q 246 193 244 196 q 254 200 250 185 q 317 386 274 278 q 276 251 293 315 q 246 117 257 182 q 246 104 244 110 q 251 108 249 94 q 283 251 264 181 q 289 256 286 247 q 308 307 300 289 l 301 288 l 296 268 l 290 250 l 285 231 q 285 215 282 221 q 293 221 289 206 l 299 246 l 307 269 q 316 298 310 279 q 322 318 322 317 q 357 415 343 378 q 397 513 374 458 q 407 537 400 521 q 417 561 414 553 l 438 611 q 478 718 464 674 q 492 776 486 749 l 494 792 l 497 807 q 500 843 500 825 q 499 853 500 849 m 390 531 q 388 533 389 532 q 394 549 390 540 q 402 566 399 558 q 409 582 406 574 q 416 599 413 590 q 424 614 419 607 q 432 635 431 631 q 410 580 424 615 q 390 531 396 544 m 450 818 q 435 744 446 785 q 389 618 422 697 q 340 496 357 540 q 294 372 314 428 q 256 247 272 307 q 310 425 278 335 q 375 590 331 485 q 435 760 422 703 q 435 778 438 771 q 442 818 439 796 q 442 867 444 844 q 419 913 438 894 q 372 932 401 931 q 346 931 360 932 l 339 929 l 333 928 q 322 924 328 926 q 239 883 278 910 q 171 822 200 857 q 278 910 217 879 l 294 918 q 313 926 296 919 q 331 932 321 929 q 353 938 343 936 q 399 932 378 940 q 435 904 421 924 q 450 861 446 886 q 450 849 450 857 q 451 839 451 842 q 450 818 450 829 m 226 -142 q 222 -132 225 -136 q 212 -124 221 -128 q 197 -122 203 -121 q 197 -112 197 -117 q 194 -109 197 -111 q 186 -106 190 -107 q 178 -103 182 -104 q 170 -103 174 -103 q 167 -106 167 -104 q 163 -132 165 -115 q 160 -126 161 -129 q 157 -119 158 -122 q 156 -114 156 -117 q 154 -112 156 -114 q 154 -111 154 -111 q 150 -110 153 -111 q 136 -106 144 -107 q 126 -108 128 -104 q 126 -119 126 -112 q 127 -131 126 -126 q 128 -142 128 -136 q 128 -154 128 -149 q 119 -176 125 -165 q 104 -202 114 -187 q 90 -224 94 -217 q 94 -227 90 -225 q 104 -231 99 -229 q 92 -244 99 -237 l 99 -247 q 143 -181 129 -218 q 142 -187 143 -185 q 124 -228 138 -201 q 110 -258 111 -256 q 116 -265 110 -261 q 129 -269 122 -268 q 140 -267 136 -269 q 150 -254 146 -261 q 151 -262 150 -260 q 155 -265 151 -264 q 158 -265 158 -265 q 167 -251 164 -260 q 176 -253 174 -257 q 193 -233 176 -251 q 179 -262 188 -250 l 186 -265 q 196 -250 190 -260 q 199 -251 199 -251 q 206 -244 200 -250 q 201 -253 203 -250 l 201 -254 l 210 -256 q 244 -165 242 -208 q 244 -164 244 -165 q 249 -153 247 -158 q 245 -149 249 -151 q 236 -144 242 -146 q 226 -142 231 -142 m 190 -190 q 169 -246 179 -231 q 172 -236 171 -243 q 175 -226 174 -229 q 180 -215 176 -222 q 185 -201 183 -207 q 188 -187 188 -194 q 185 -185 188 -186 q 185 -181 185 -182 q 194 -143 193 -156 q 196 -158 196 -154 q 190 -190 196 -175 m 217 -219 q 213 -218 215 -219 q 219 -210 217 -212 q 219 -209 219 -210 q 221 -207 219 -208 q 217 -219 218 -214 "},"@":{"ha":1079,"x_min":1,"x_max":1042,"o":"m 1035 557 q 1001 708 1026 640 q 924 846 972 786 q 865 904 897 879 q 794 950 832 932 q 633 986 721 985 q 474 961 553 989 q 333 888 401 936 q 219 783 274 844 q 128 661 167 725 q 14 378 46 529 q 3 269 3 328 q 4 242 3 254 q 7 224 6 231 q 10 217 8 217 q 19 82 8 146 q 60 -50 32 10 q 142 -169 92 -117 q 265 -253 197 -225 q 282 -258 278 -257 q 297 -262 290 -261 q 318 -265 310 -265 l 321 -264 l 292 -254 q 156 -171 217 -229 q 67 -44 99 -117 q 25 101 36 22 q 21 247 15 171 q 89 528 31 392 q 244 771 147 664 q 354 868 296 826 q 486 936 418 913 q 635 960 558 961 q 782 925 714 958 q 901 832 850 894 q 975 703 947 775 q 1008 560 1000 639 q 1013 415 1015 494 q 1013 511 1014 465 q 1001 606 1010 561 q 953 751 986 686 q 858 874 915 824 q 793 918 828 900 q 719 946 758 936 q 565 953 646 964 q 489 933 526 946 q 418 903 454 922 q 294 815 354 869 q 242 761 268 790 q 218 732 235 751 q 196 703 214 728 q 117 575 150 642 q 33 288 50 438 q 32 136 25 207 q 67 -15 39 54 q 103 -86 82 -53 q 153 -149 125 -119 q 290 -236 214 -211 q 372 -251 328 -249 q 453 -247 411 -254 q 603 -197 526 -236 q 707 -129 656 -171 q 760 -79 744 -99 q 765 -69 767 -71 q 754 -71 764 -67 q 668 -122 740 -76 q 574 -175 618 -154 q 469 -210 521 -200 q 360 -215 413 -221 q 254 -182 303 -210 q 369 -214 307 -210 q 486 -199 425 -217 q 524 -183 515 -190 q 497 -187 524 -181 q 389 -203 440 -204 q 283 -179 332 -201 q 235 -153 258 -169 q 193 -118 213 -137 q 129 -31 154 -79 q 147 -53 143 -53 q 147 -47 150 -53 q 135 -22 144 -40 q 93 133 101 46 q 97 296 85 207 q 136 453 108 374 q 207 600 163 528 q 119 385 147 500 q 97 156 90 269 q 118 44 103 96 q 165 -57 135 -12 q 242 -136 197 -104 q 340 -181 288 -169 q 383 -182 369 -186 q 382 -179 388 -181 q 361 -176 378 -178 q 258 -139 306 -169 q 176 -60 211 -108 q 147 -10 160 -36 q 126 43 135 14 q 106 160 110 97 q 108 176 108 154 q 108 221 108 193 q 113 265 110 228 q 128 356 119 317 q 119 97 99 215 q 136 49 126 64 q 135 75 139 47 q 122 238 117 149 q 150 401 128 325 q 308 693 197 564 q 431 800 365 758 q 501 837 465 822 q 574 857 536 851 q 719 846 653 871 q 751 832 732 842 q 782 813 771 821 q 833 761 811 790 q 872 697 856 731 q 899 624 889 663 q 917 461 917 551 q 914 375 917 422 q 906 289 910 328 q 865 132 892 196 q 863 128 864 131 q 860 123 861 125 q 859 119 860 121 q 857 114 858 117 q 853 106 856 113 q 849 97 850 100 q 844 90 847 96 q 839 81 840 83 l 833 72 q 832 71 832 71 l 832 71 l 831 74 q 828 81 829 78 q 814 157 818 115 q 814 328 808 215 l 817 372 l 817 396 l 818 407 l 818 429 q 815 514 819 481 q 796 583 808 557 q 776 607 788 597 q 754 622 765 617 q 739 628 747 625 q 724 629 732 629 q 713 629 718 629 q 708 629 710 629 l 706 628 l 699 625 l 674 617 q 671 615 672 617 l 669 614 l 665 610 l 658 604 l 644 592 l 636 585 l 633 582 l 631 581 l 629 578 l 615 561 l 600 544 q 586 528 588 529 q 572 510 575 513 l 560 493 q 460 333 547 475 q 449 318 454 326 q 440 303 444 310 q 431 288 436 296 q 422 274 426 281 q 414 260 418 267 q 405 245 411 256 q 394 231 399 235 q 386 217 389 221 q 382 210 385 214 q 378 206 379 207 q 357 171 357 174 q 353 164 354 167 q 353 160 353 161 q 357 160 354 160 q 349 153 353 156 l 344 149 q 343 147 343 149 q 342 147 342 147 q 333 143 338 144 q 315 143 324 138 q 306 156 308 147 q 303 163 304 158 l 303 164 q 303 165 303 164 l 301 169 q 301 176 301 175 q 307 247 299 204 q 327 326 314 282 q 340 372 340 369 q 338 386 344 389 q 329 376 335 383 q 315 356 321 367 q 393 478 344 419 q 443 531 419 510 q 500 576 465 553 q 510 583 501 578 q 522 592 518 589 q 543 604 535 600 q 583 618 565 617 q 615 617 600 621 q 635 607 622 614 q 642 607 642 604 q 635 622 643 613 q 621 633 629 629 q 597 642 610 639 q 565 642 582 644 q 529 631 547 639 q 493 610 513 622 q 486 604 493 608 q 476 599 479 600 l 460 586 q 399 532 424 558 q 371 503 396 529 l 358 488 l 351 479 l 346 471 q 303 403 326 444 q 269 328 283 367 q 265 317 268 324 q 263 308 263 310 q 257 289 258 296 l 251 269 l 247 250 q 240 167 238 203 q 242 156 240 163 l 242 150 q 243 143 243 147 q 251 121 246 132 q 281 83 263 96 q 306 74 293 75 q 333 75 318 72 q 382 97 357 79 q 400 113 392 104 l 417 129 l 425 138 l 432 146 l 447 163 l 432 146 l 425 136 l 417 128 l 401 113 q 383 96 393 103 q 333 72 357 76 q 306 71 318 68 q 292 74 297 72 q 285 76 290 75 q 279 81 281 79 q 249 117 260 92 q 240 139 243 126 q 236 151 238 146 q 235 163 236 156 q 239 246 231 199 q 289 397 253 326 q 307 432 290 400 q 316 447 310 438 q 322 457 322 456 q 326 464 324 460 q 331 472 329 468 q 335 478 333 475 q 342 490 339 485 q 354 511 350 503 q 363 526 361 524 q 363 533 364 532 q 357 532 361 535 q 343 522 350 528 q 322 500 333 513 q 267 419 290 464 l 257 400 q 254 394 256 397 q 251 386 253 390 q 249 381 250 382 q 232 340 246 374 q 225 319 232 339 l 222 308 l 219 299 l 214 278 l 210 256 q 203 163 199 203 q 204 149 203 158 l 206 140 q 208 132 207 138 q 213 115 208 129 q 219 100 218 101 q 263 50 235 67 l 265 49 q 267 48 267 49 q 268 47 268 47 l 275 44 q 288 39 281 42 q 301 36 297 38 q 304 36 301 36 q 308 36 307 36 l 315 36 q 323 36 318 36 q 329 36 328 36 q 343 39 340 38 q 356 43 351 40 q 363 44 361 44 l 369 47 q 394 61 382 53 q 401 65 397 63 l 406 69 q 414 75 413 75 q 422 82 419 81 l 425 86 l 429 89 l 442 103 q 529 213 486 147 q 599 326 550 244 q 632 382 621 364 q 650 408 638 390 q 653 413 650 408 q 658 421 657 418 l 661 426 l 663 428 q 674 443 668 436 q 681 450 676 444 q 688 456 685 456 q 692 456 690 457 q 694 451 693 454 q 697 443 696 447 q 699 424 699 435 l 699 414 l 697 383 l 694 318 q 693 182 690 232 q 696 144 694 174 q 701 106 700 115 q 710 67 703 96 q 721 26 718 33 q 750 -24 733 -4 q 796 -57 771 -47 q 850 -60 822 -67 q 900 -33 876 -54 q 919 -12 911 -24 q 929 0 925 -4 q 931 3 931 1 q 933 8 932 6 q 935 10 935 10 q 938 14 936 11 q 940 19 939 17 q 943 23 942 21 q 946 26 944 25 l 956 44 q 988 115 974 78 q 1008 189 999 149 q 1024 263 1018 226 q 1032 336 1028 297 q 1038 408 1035 374 q 1035 557 1042 490 m 765 839 q 731 857 754 847 q 692 868 706 865 q 611 874 656 876 q 615 876 614 875 q 617 878 617 876 q 742 854 685 879 q 840 776 797 829 q 875 722 860 751 q 765 839 832 801 m 965 367 q 964 308 964 331 q 954 244 960 276 q 942 182 949 213 q 886 51 921 108 q 883 47 885 50 q 879 41 881 43 q 876 36 878 39 q 868 25 872 31 q 846 7 857 13 q 817 6 831 0 q 794 24 804 10 q 781 49 786 33 q 771 82 779 54 q 760 153 763 115 q 758 299 754 211 l 763 374 l 764 410 q 765 456 765 449 q 763 499 764 481 q 754 539 760 522 q 746 556 750 549 q 736 571 742 567 q 717 575 728 578 q 700 568 710 574 l 686 556 l 678 550 q 671 543 674 546 l 656 528 l 649 519 q 644 515 647 518 q 642 511 642 511 q 614 475 618 482 l 601 458 l 592 442 q 513 315 576 421 q 569 411 565 404 q 600 460 581 431 l 610 472 q 619 488 613 478 q 632 502 624 492 q 642 514 640 513 l 647 521 q 650 524 647 522 q 653 526 653 526 l 664 539 l 669 546 q 671 547 671 546 q 675 551 674 550 l 686 560 l 699 569 q 710 576 703 572 q 724 579 718 579 q 738 574 732 579 q 747 563 743 571 q 753 550 750 557 q 763 522 758 538 q 769 456 768 493 q 768 417 769 447 l 768 400 l 767 385 l 764 324 q 763 204 761 250 q 776 88 764 142 q 778 79 776 85 q 779 74 779 74 q 783 60 783 61 q 785 56 783 58 q 786 53 786 54 q 787 51 786 53 q 788 49 788 49 q 793 39 790 43 q 806 22 799 29 q 824 13 814 14 q 844 15 835 10 q 861 28 853 19 q 868 36 865 32 q 871 40 869 38 q 874 46 872 43 l 882 57 q 886 65 883 60 q 889 71 889 69 q 903 96 890 72 q 914 122 913 121 q 932 178 924 146 q 964 415 957 269 q 947 631 969 539 q 910 731 933 685 q 847 817 883 779 q 763 879 810 857 q 661 907 717 901 q 556 901 610 911 q 503 886 526 894 q 453 865 476 876 q 282 731 363 821 q 161 549 210 650 q 119 447 138 503 q 92 340 101 390 q 83 124 71 224 q 82 279 74 197 q 111 432 89 356 q 256 706 158 586 q 360 810 303 764 q 486 883 421 858 q 628 911 556 911 q 767 879 704 911 q 876 788 829 849 q 942 658 918 731 q 967 514 961 593 q 965 367 971 450 "},"A":{"ha":672,"x_min":-21,"x_max":707,"o":"m 688 657 q 656 654 671 656 q 624 650 640 653 q 657 661 639 656 q 662 666 661 663 q 657 669 663 669 q 624 665 646 668 q 590 660 604 663 q 594 666 594 663 q 588 668 593 669 q 588 676 588 671 q 629 683 610 681 q 635 690 635 686 q 631 692 633 692 q 592 686 606 688 l 586 685 q 582 749 585 718 q 575 793 579 771 q 569 815 574 803 q 567 826 569 817 l 565 833 l 564 836 l 563 839 q 526 904 550 879 q 464 939 500 932 q 397 932 431 946 q 365 915 382 926 q 358 911 363 914 l 351 906 l 346 901 l 342 899 q 279 836 308 872 q 232 769 256 808 q 193 703 214 742 q 124 550 156 631 q 85 531 108 543 q 65 511 71 525 q 67 493 61 500 q 32 468 43 478 q 21 451 24 460 q 31 436 17 435 q 12 424 15 426 q 2 417 8 421 q -7 411 -4 413 q -18 388 -19 401 q 3 381 -17 368 l 29 397 l 54 413 q 82 428 65 418 q 80 425 81 428 q 79 422 79 422 l 78 421 q 63 408 72 415 q 50 397 53 400 q 46 394 47 396 l 42 392 q 40 385 39 389 q 43 369 36 375 q 64 372 50 364 q 64 372 64 372 q 33 256 47 315 q 31 168 19 199 q 39 158 33 157 q 26 40 29 96 q 28 4 25 21 q 33 -19 29 -11 q 49 -10 42 -37 q 44 -72 46 -39 q 43 -136 43 -119 q 56 -179 44 -161 q 75 -197 65 -194 q 80 -197 78 -199 q 82 -189 82 -194 q 81 -182 82 -186 q 79 -170 81 -178 q 76 -156 78 -162 q 76 -75 74 -135 q 83 10 79 -31 q 107 175 92 94 q 96 75 100 125 q 90 -24 92 24 q 90 -39 90 -33 l 89 -51 q 92 -65 89 -62 q 93 -69 93 -68 q 107 -83 99 -90 q 118 -31 115 -74 q 157 244 128 110 q 218 465 182 360 q 235 474 229 471 q 392 531 304 506 q 460 547 422 539 q 460 524 460 533 q 451 400 458 483 q 454 359 450 379 q 463 338 458 339 q 440 132 461 326 q 442 115 440 122 q 446 113 443 110 q 447 122 447 115 q 486 506 482 431 q 488 553 488 529 q 493 554 490 554 q 489 450 492 506 q 474 238 486 389 q 457 3 461 86 q 469 -79 454 -56 l 474 -83 q 488 -37 485 -87 q 501 143 492 35 q 500 44 499 86 l 501 31 q 506 28 503 25 q 507 39 507 31 q 522 226 510 63 q 524 217 522 219 q 528 214 526 211 q 532 226 531 215 q 558 510 556 475 q 529 107 556 428 q 531 91 529 97 q 535 88 532 85 q 536 97 536 89 q 554 308 542 157 l 556 307 l 558 315 q 568 396 561 333 q 558 279 564 336 l 561 256 q 564 253 563 253 q 568 267 567 256 q 588 583 586 461 q 588 589 588 589 q 642 593 619 593 l 646 596 q 643 601 650 601 q 588 597 617 600 q 588 608 588 601 q 681 624 632 617 q 685 625 683 624 q 706 647 707 631 q 688 657 706 658 m 489 635 q 489 639 489 636 q 490 639 489 639 q 493 639 492 639 q 493 638 493 639 q 493 636 493 636 q 492 635 493 636 q 489 635 490 635 m 399 644 l 353 632 l 343 629 q 399 647 353 632 q 399 644 397 646 m 347 646 q 288 625 318 636 q 332 704 310 667 q 394 782 364 753 q 411 797 401 789 q 417 801 414 799 q 420 805 419 804 q 422 806 421 806 l 424 807 l 425 807 q 438 810 432 811 q 446 800 443 808 q 446 797 446 799 l 449 786 q 454 761 451 775 q 460 706 458 738 q 461 676 460 693 q 347 646 401 664 m 488 699 q 475 790 485 753 q 472 800 475 794 l 471 808 q 465 822 468 817 q 456 833 461 829 q 443 839 450 839 q 422 836 433 842 q 413 831 418 833 l 408 828 q 401 822 406 825 q 376 800 389 813 q 354 775 365 789 q 404 825 378 804 q 406 827 406 826 q 408 828 407 828 l 410 829 q 414 832 413 831 q 424 838 419 835 q 443 840 435 842 q 458 833 451 839 q 468 819 464 828 q 471 813 469 817 q 472 808 472 810 l 474 803 q 481 778 478 790 q 492 683 489 740 l 490 683 l 488 683 q 488 699 488 693 m 540 681 q 538 681 540 681 q 538 682 538 681 q 539 683 538 682 q 540 683 540 683 q 540 681 540 682 m 492 656 q 489 656 489 656 l 490 656 l 492 656 m 539 647 q 539 649 539 649 q 540 650 539 650 q 542 650 542 650 l 542 649 q 540 649 542 649 q 539 647 539 649 m 542 663 q 540 663 542 663 q 538 661 539 663 q 538 667 538 661 q 540 667 539 667 q 542 668 540 668 l 542 663 m 461 925 q 517 894 493 919 q 550 836 538 872 q 551 829 550 835 l 554 824 l 557 813 q 563 792 560 801 q 569 749 567 771 q 565 750 567 751 q 553 821 561 789 q 550 829 551 822 q 546 840 549 833 q 535 865 542 853 q 501 906 521 892 q 461 925 483 919 l 456 925 l 461 925 m 208 625 q 257 717 231 671 q 315 804 286 769 q 371 860 342 838 q 378 865 376 865 q 388 872 388 872 q 408 885 399 881 q 454 892 433 896 q 493 869 476 889 q 517 828 508 853 l 519 822 l 521 817 q 524 808 521 815 q 528 789 526 800 q 535 750 532 771 q 540 693 539 724 q 539 693 540 693 q 536 693 538 693 q 535 731 536 714 q 518 817 529 779 l 517 822 l 514 828 q 510 840 513 835 q 496 863 503 853 q 453 890 478 886 q 404 879 431 893 q 382 865 393 874 q 372 858 378 863 q 364 851 367 853 q 306 786 333 825 q 294 763 297 774 q 264 715 279 742 q 199 588 229 656 q 194 585 197 586 q 190 583 192 583 q 208 625 200 606 m 168 513 q 160 508 167 511 q 161 511 161 510 q 163 514 163 513 q 169 518 169 518 q 169 515 169 517 q 168 513 168 513 m 88 249 q 108 340 97 297 q 129 414 117 375 q 131 415 129 414 q 133 417 133 417 q 88 249 107 333 m 293 567 l 275 560 q 251 550 264 556 q 253 553 251 550 q 256 560 256 557 q 306 579 281 571 q 336 592 318 585 q 347 595 340 593 q 358 599 353 597 q 369 603 364 601 q 433 624 419 619 q 461 631 444 626 l 461 628 q 300 574 349 596 q 293 567 294 571 m 324 535 q 349 544 338 540 q 461 579 401 564 q 461 575 461 578 q 324 535 392 560 m 489 582 q 489 584 489 582 q 489 586 489 586 q 490 588 489 588 q 493 588 492 588 q 493 585 493 588 q 493 582 493 583 q 491 582 493 582 q 489 582 489 582 m 528 294 q 539 560 539 453 l 539 563 l 539 564 q 541 564 540 564 q 543 565 542 564 q 539 444 542 506 q 528 294 535 376 m 543 596 q 543 594 543 596 q 543 592 543 592 q 542 591 543 592 q 539 590 540 590 q 539 599 539 596 q 542 599 540 599 q 543 599 543 599 l 543 596 "},"B":{"ha":781,"x_min":-128,"x_max":829,"o":"m 781 896 q 749 921 767 908 q 739 926 742 924 q 729 931 735 928 q 603 957 679 954 q 488 947 547 958 q 396 914 435 938 q 372 889 361 894 q 299 857 342 878 q 275 844 288 851 l 275 847 q 275 858 275 853 q 282 868 279 861 l 272 869 l 271 871 l 258 872 l 258 871 l 247 872 q 246 861 246 868 q 242 826 244 849 q 229 819 233 822 q 227 817 229 818 q 225 815 225 817 q 215 824 221 824 q 201 800 204 825 q 190 792 194 794 q 169 769 175 778 q 168 758 163 760 q 190 764 174 757 q 58 665 122 722 q 22 624 36 644 q 7 594 8 604 q 18 590 6 585 q 33 601 25 594 q 57 622 46 613 q 197 731 122 682 q 197 724 197 728 q 196 718 196 719 q 185 710 190 713 q 174 700 178 704 q 160 686 161 692 q 151 661 138 661 q 194 682 163 663 q 188 494 190 593 q 179 374 185 442 q 168 238 174 306 q 160 117 163 169 q 96 88 122 99 q 74 72 78 78 q 88 75 74 68 q 160 107 118 89 q 159 99 160 104 q 158 92 158 93 q -43 -15 33 32 q -58 -25 -51 -19 q -72 -35 -65 -29 q -97 -54 -87 -46 q -124 -86 -118 -74 q -126 -94 -128 -92 q -118 -94 -124 -96 q -100 -86 -111 -93 q -94 -83 -97 -85 q -89 -81 -92 -82 q -83 -77 -86 -79 q -76 -73 -81 -75 q -69 -68 -72 -71 q 139 42 15 -17 q 83 11 129 38 q 28 -21 35 -17 q 10 -36 13 -31 q 25 -32 10 -40 q 156 35 78 -3 q 156 15 156 24 q 113 -6 125 0 q 92 -21 93 -15 q 106 -18 90 -25 q 156 7 126 -7 q 155 0 156 4 q 154 -7 154 -4 q 159 -28 154 -18 q 169 -39 164 -39 q 164 -149 167 -107 q 167 -157 164 -154 q 172 -153 171 -164 q 182 19 176 -71 q 189 22 185 21 q 190 -215 186 -108 q 192 -226 190 -221 q 211 -258 197 -257 q 222 -233 222 -260 q 224 -139 224 -139 q 229 -190 226 -171 q 232 -197 231 -194 q 238 -192 238 -203 q 238 -143 238 -158 q 238 -118 238 -135 q 238 -94 238 -101 q 243 -100 240 -100 q 247 -93 246 -100 q 251 -18 249 -49 q 257 54 254 25 q 256 -60 256 14 q 256 -156 256 -135 q 257 -164 256 -160 q 263 -160 263 -171 q 264 -49 263 -90 q 266 -49 265 -50 q 267 -46 267 -49 q 271 -4 268 -33 q 271 -31 271 -8 q 269 -64 271 -53 l 271 -69 q 278 -76 274 -81 q 279 -69 279 -75 q 285 68 281 -10 q 354 101 324 86 q 365 101 353 97 q 413 124 401 119 q 426 131 417 126 q 436 135 435 135 q 449 142 440 138 q 461 147 457 146 q 324 79 401 115 q 307 69 314 74 q 297 58 294 61 q 314 64 299 56 q 492 153 421 114 l 514 165 q 536 179 526 174 l 558 192 q 579 207 569 200 q 626 243 607 225 q 649 267 639 254 q 658 281 654 275 q 664 289 663 286 q 668 297 668 296 q 679 331 676 314 q 676 357 681 344 q 665 382 674 371 q 650 400 660 392 q 635 410 643 406 q 608 421 624 417 q 603 422 604 421 l 600 422 l 597 422 l 589 424 q 574 426 581 425 q 542 426 560 426 q 485 421 517 425 l 460 417 l 449 414 l 447 414 l 446 414 l 446 414 l 444 414 q 435 417 436 414 q 438 419 435 418 q 440 421 439 419 q 443 422 442 421 l 513 460 q 600 508 574 493 q 690 565 657 540 q 736 601 715 583 q 757 622 747 613 q 767 633 760 625 q 778 646 768 635 q 811 704 799 674 q 828 778 826 740 q 807 861 829 824 q 781 896 797 879 m 240 75 q 240 74 240 75 q 236 71 238 72 q 236 72 236 71 q 239 74 238 74 q 240 75 240 74 m 236 64 q 240 65 238 64 q 240 63 240 64 q 240 56 240 57 q 236 53 239 54 q 236 59 236 56 q 236 64 236 63 m 240 131 q 238 129 239 129 q 239 143 239 140 q 240 144 239 143 q 242 144 242 144 q 242 141 242 143 q 242 139 242 139 q 242 135 242 138 q 242 131 242 132 l 240 131 m 244 399 l 244 400 q 249 404 247 403 l 253 408 q 253 407 253 407 l 251 406 q 244 399 250 404 m 258 549 q 254 444 257 503 q 247 439 251 443 q 261 646 251 506 q 258 549 260 579 m 246 329 q 249 328 247 328 l 249 326 q 247 327 247 326 q 246 328 246 328 q 246 329 246 328 m 279 258 l 276 175 q 272 176 275 176 l 278 243 q 279 258 278 250 m 294 285 l 300 283 l 315 283 q 379 282 346 281 q 449 288 415 283 q 458 289 451 288 q 465 290 465 290 l 476 292 l 467 286 q 449 275 461 282 q 435 267 436 268 l 419 258 l 403 249 q 379 235 393 244 q 358 219 368 226 q 340 199 339 203 q 289 175 321 189 q 294 285 292 221 m 231 685 q 231 697 231 689 q 231 706 231 706 q 231 707 231 707 q 233 707 232 707 q 231 685 231 685 m 244 294 q 247 294 246 294 q 247 267 247 288 q 244 238 246 247 q 244 197 244 225 q 242 153 243 168 q 240 152 242 153 q 239 151 239 151 q 242 213 239 160 q 244 294 244 267 m 289 165 q 358 197 328 182 q 488 267 426 231 q 501 275 489 268 q 518 286 513 282 q 539 300 529 293 q 549 300 543 300 q 514 275 535 289 q 289 153 428 221 q 289 160 289 156 q 289 165 289 164 m 576 331 l 578 329 q 575 326 576 328 q 574 326 574 326 q 569 326 572 326 q 572 331 571 329 q 574 331 572 331 q 576 331 575 331 m 588 324 m 590 328 q 592 329 590 328 q 590 326 590 328 q 590 328 590 326 m 600 338 m 597 336 q 599 336 597 336 q 597 336 597 336 q 597 336 597 336 m 600 338 l 600 338 l 600 338 l 600 338 q 599 338 600 338 l 600 338 m 529 326 q 489 321 513 325 l 471 318 l 460 317 q 455 316 460 317 q 447 315 450 315 q 392 310 419 311 q 340 310 365 308 q 296 313 313 310 q 296 314 296 313 q 296 315 296 315 q 336 313 311 313 q 443 317 390 310 q 457 319 450 318 l 468 321 l 488 324 q 525 329 511 328 q 533 331 529 331 q 529 326 532 328 m 303 449 l 313 454 q 325 463 317 457 q 335 468 333 468 q 357 482 343 474 q 400 508 367 489 l 372 492 l 342 474 q 330 465 340 472 q 314 454 319 458 l 303 447 l 303 449 m 390 531 l 386 529 l 379 525 l 367 517 l 353 510 l 339 500 q 306 479 325 492 q 308 558 307 524 q 308 564 308 561 q 313 609 310 581 q 317 644 315 638 q 311 681 318 665 q 296 694 304 696 q 296 744 296 719 q 367 778 332 763 q 532 829 460 818 q 614 835 574 836 q 651 831 638 835 q 682 821 668 828 q 701 806 694 814 q 708 788 707 799 q 692 731 713 763 q 683 718 688 725 l 678 713 l 674 707 q 649 683 663 694 q 592 642 625 663 q 528 604 569 628 q 460 568 506 593 q 390 531 408 542 m 428 840 q 292 778 358 815 q 289 783 290 781 q 428 840 357 818 m 236 754 q 235 744 236 751 q 233 742 235 743 q 229 740 231 742 l 229 747 q 229 750 229 750 q 233 753 231 751 q 236 754 236 754 m 200 328 l 200 326 q 199 294 200 307 q 192 131 194 197 q 189 129 190 131 q 200 328 194 224 m 188 119 l 192 122 q 192 115 192 119 q 192 107 192 110 l 188 104 q 188 112 188 107 q 188 119 188 117 m 182 28 q 183 47 182 29 q 187 49 185 49 q 190 50 189 50 q 189 31 189 40 q 185 29 188 31 q 182 28 183 28 m 238 -58 q 236 44 236 19 q 238 46 238 44 q 240 46 239 46 q 238 -58 238 -35 m 553 221 l 525 203 q 496 186 514 196 q 487 180 493 183 q 476 174 481 176 q 467 168 471 171 q 349 107 417 140 q 285 76 321 93 q 285 81 285 78 q 285 85 285 83 q 418 147 371 124 q 500 192 464 171 q 513 199 507 194 q 528 208 519 203 q 540 215 536 213 q 582 242 563 228 q 553 221 569 232 m 439 400 q 436 396 438 399 q 414 397 425 396 q 404 399 408 399 q 394 401 396 401 q 394 407 393 404 q 399 411 394 408 q 395 405 394 407 q 400 401 396 403 q 413 400 404 401 q 439 400 425 399 m 778 775 q 756 703 776 740 q 735 672 747 688 q 711 646 725 660 q 657 601 689 624 q 542 531 621 576 q 488 501 528 524 q 425 467 447 479 l 406 456 q 386 444 390 447 q 350 421 371 435 q 314 394 326 404 q 311 392 313 393 q 308 390 310 390 q 306 388 307 389 q 301 378 300 383 q 308 369 301 374 q 318 365 313 367 q 406 363 361 360 q 451 368 429 364 l 481 372 q 511 378 499 376 q 576 381 549 383 q 593 378 583 379 q 613 371 604 375 q 631 353 625 364 q 635 339 635 346 q 632 325 635 332 q 628 317 631 321 q 624 308 628 315 q 614 294 618 301 q 592 271 604 282 q 540 232 572 253 q 325 115 450 175 q 478 197 414 160 q 515 221 507 215 q 551 244 550 243 q 618 306 597 275 q 624 315 621 310 q 629 326 626 321 q 631 343 632 335 q 622 358 629 351 q 599 372 614 368 q 588 375 594 374 q 576 376 582 375 q 490 371 544 379 q 451 364 486 371 q 419 361 435 363 q 356 360 388 358 q 325 361 340 360 q 310 364 313 364 q 300 369 303 365 q 300 378 300 372 q 300 386 300 383 q 306 392 303 389 q 311 394 310 394 q 324 404 317 400 q 336 414 332 411 q 388 447 358 431 q 414 464 403 457 l 429 474 l 446 483 q 472 501 464 493 l 535 536 q 606 576 579 560 q 674 622 646 600 q 735 681 711 650 q 771 760 764 719 q 771 806 775 785 q 750 849 765 831 q 714 878 736 867 q 674 894 697 888 q 631 901 653 900 q 589 903 613 903 q 506 894 546 903 q 631 904 572 908 q 696 890 668 901 q 754 851 733 876 q 774 815 768 835 q 778 775 779 796 "},"C":{"ha":642,"x_min":-12,"x_max":618,"o":"m 575 192 q 451 39 511 99 q 379 -25 417 3 q 360 -40 378 -28 q 339 -53 357 -42 q 297 -75 319 -65 q 322 -62 310 -69 q 346 -46 328 -58 q 359 -36 350 -43 q 369 -29 368 -29 q 390 -10 376 -24 q 471 74 432 25 q 482 88 475 79 l 489 97 q 497 114 497 108 q 503 133 504 126 q 497 138 503 139 q 481 126 492 136 q 451 96 468 114 q 397 39 426 67 q 338 -10 367 11 q 322 -19 335 -12 l 314 -25 q 310 -28 313 -26 q 307 -31 307 -29 q 275 -46 290 -39 q 219 -56 243 -58 q 197 -50 207 -54 q 176 -34 186 -44 q 157 -10 165 -24 q 147 6 150 0 q 140 21 140 19 q 107 167 111 82 q 115 300 106 224 q 139 433 124 367 q 224 689 168 564 q 239 719 233 710 q 253 749 247 738 q 285 807 268 779 q 360 907 321 869 q 369 917 367 914 l 375 922 l 381 926 q 392 936 383 929 l 394 938 l 397 940 q 399 942 397 940 q 401 943 401 943 q 419 951 413 950 q 422 951 421 951 q 424 950 424 951 l 424 949 q 426 946 425 949 q 433 928 431 939 q 440 901 438 915 q 450 861 444 881 q 463 840 457 842 q 461 783 463 815 q 457 725 460 757 q 443 607 453 668 q 444 585 439 585 q 449 596 446 585 q 465 725 460 667 q 469 790 468 761 q 471 854 471 825 q 464 914 469 888 q 457 942 461 928 q 446 964 451 956 q 444 967 446 965 q 442 969 443 969 q 438 975 440 972 q 424 979 431 979 q 415 979 419 979 q 414 978 414 979 l 413 978 q 407 976 408 976 q 383 964 396 972 q 378 960 383 964 l 372 956 q 360 946 367 951 q 338 925 350 938 q 297 875 317 903 q 229 761 263 829 q 132 508 168 640 q 158 594 143 550 q 210 725 181 660 q 275 849 244 800 q 360 950 314 913 q 372 961 363 953 q 383 969 376 964 q 408 982 397 978 q 411 983 410 983 q 412 983 411 983 q 414 983 413 983 q 418 985 417 985 q 426 985 422 985 q 443 978 436 983 q 456 961 450 972 q 467 935 461 951 q 478 872 475 907 q 481 806 481 844 q 481 771 481 800 q 479 756 479 769 q 478 736 479 743 q 443 458 472 624 q 440 435 442 446 q 446 357 432 363 q 467 408 456 354 q 503 618 492 529 q 492 503 500 574 q 492 485 490 490 q 495 482 493 479 q 499 494 497 485 q 528 715 521 614 q 529 703 528 708 q 533 700 531 699 q 536 717 535 703 q 542 801 540 758 q 539 888 543 851 q 533 932 538 911 q 519 976 528 958 q 492 1022 508 1004 q 449 1049 474 1042 q 481 1035 467 1044 q 496 1019 489 1028 q 508 1003 503 1013 q 525 971 518 989 q 528 963 525 969 l 531 954 q 535 939 533 946 q 549 814 549 888 q 529 572 549 703 l 529 551 q 532 549 531 547 q 535 561 533 551 q 557 815 556 697 q 560 825 558 815 q 554 928 561 883 q 563 781 565 869 l 565 751 q 568 750 567 749 q 572 767 571 751 q 572 860 574 824 q 557 960 569 915 l 553 972 q 547 986 550 979 q 533 1014 542 1001 q 510 1044 524 1031 q 476 1068 494 1058 q 397 1076 440 1086 q 388 1075 390 1075 l 378 1072 q 363 1065 369 1068 q 335 1051 349 1060 q 322 1042 329 1047 q 311 1035 315 1038 l 301 1026 l 292 1018 q 256 981 271 999 q 222 942 238 961 q 194 901 208 922 q 147 817 172 865 q 108 732 125 771 q 4 371 33 557 q -3 325 3 365 q -7 278 -7 288 q -11 181 -12 225 q -3 81 -11 128 q 28 -21 7 26 q 35 -33 31 -26 q 103 -132 63 -94 q 131 -153 117 -143 q 164 -168 147 -162 q 235 -181 197 -181 q 297 -168 267 -179 q 338 -146 319 -158 q 340 -143 339 -144 q 357 -117 368 -121 q 374 -107 364 -114 q 389 -96 389 -97 q 419 -74 414 -78 q 472 -25 443 -56 q 514 35 506 10 q 514 40 514 38 q 493 35 515 53 q 542 93 514 58 q 585 153 563 121 q 615 226 618 201 q 575 192 613 247 m 147 786 q 193 874 172 838 q 194 869 193 869 q 157 800 175 836 l 149 783 l 140 765 q 124 731 133 753 q 108 696 121 725 q 147 786 124 735 m 165 -111 q 117 -72 139 -97 q 83 -24 97 -50 q 71 3 81 -18 q 69 8 71 6 q 67 13 68 10 q 65 17 67 15 q 61 31 64 24 q 46 92 51 58 q 39 154 40 122 q 42 278 35 210 q 85 519 53 400 q 160 731 115 629 q 208 832 185 789 q 271 929 239 888 q 354 1010 310 979 q 381 1025 368 1019 q 396 1031 389 1029 q 403 1033 400 1032 q 411 1035 408 1033 q 446 1033 431 1038 q 475 1017 461 1028 q 486 1006 481 1013 q 496 992 492 999 q 510 965 503 981 q 524 908 518 940 q 531 797 532 864 q 510 956 531 894 q 492 993 503 978 q 458 1024 478 1014 q 438 1031 449 1029 q 414 1032 426 1033 q 393 1026 404 1031 q 374 1017 383 1024 q 340 994 357 1008 q 311 969 328 985 q 261 911 286 944 q 185 779 224 858 q 83 494 117 640 q 79 465 79 478 q 72 433 75 447 q 67 401 68 414 q 46 256 53 328 q 49 106 40 171 q 96 -39 60 24 q 149 -99 119 -78 q 226 -125 182 -125 q 165 -111 193 -125 "},"D":{"ha":849,"x_min":0,"x_max":886,"o":"m 79 625 q 107 650 81 626 q 136 674 128 667 q 239 743 188 713 q 239 742 239 742 q 239 740 239 742 q 121 647 176 700 q 111 638 117 643 l 103 631 q 96 619 96 624 q 96 597 85 599 q 111 604 101 597 q 136 624 122 610 q 239 699 185 664 q 239 544 238 625 q 231 349 238 514 q 226 96 225 185 q 223 93 225 94 q 219 90 221 92 q 171 32 174 54 q 211 44 169 15 q 240 65 225 54 q 243 65 242 65 q 242 -33 243 51 q 243 -42 242 -39 q 249 -37 249 -47 q 251 74 250 14 q 261 79 254 75 q 268 -92 263 -12 q 269 -101 269 -96 q 290 -129 276 -129 q 301 -107 301 -131 q 300 -22 300 -67 q 307 -67 304 -50 l 310 -74 q 315 -69 315 -79 q 313 14 315 -42 q 313 19 313 17 q 319 14 315 14 q 322 21 322 14 q 324 88 322 57 q 324 98 324 90 q 324 108 324 106 q 326 109 325 108 q 328 110 326 110 q 328 88 328 96 q 326 83 326 85 q 328 82 326 81 q 332 -35 331 11 q 335 -43 332 -40 q 340 -39 340 -49 q 336 60 339 1 q 340 60 339 60 q 340 64 340 61 q 343 90 342 78 q 343 92 343 90 q 344 47 344 63 q 347 38 344 40 q 354 43 354 32 q 353 99 353 64 q 488 204 421 150 q 496 206 488 200 q 554 250 522 225 q 472 182 515 217 q 458 164 456 169 q 469 168 460 160 q 576 256 526 213 q 682 349 639 307 q 781 456 739 403 q 824 517 807 489 q 861 589 847 554 q 874 631 869 610 q 881 675 879 653 q 872 768 885 724 q 853 814 864 793 q 822 856 840 836 q 743 910 790 889 q 701 925 724 919 q 660 935 685 931 q 578 939 619 940 q 428 913 508 936 q 418 910 422 913 q 321 879 369 897 q 321 883 321 881 l 297 957 l 286 878 q 285 874 285 876 q 285 869 285 872 q 285 864 285 865 q 275 860 275 861 q 243 842 261 854 q 219 824 229 833 q 208 799 200 803 q 118 735 160 769 q 94 710 103 721 q 83 690 86 699 q 82 686 82 689 q 101 686 82 676 q 79 668 88 675 q 58 647 65 654 q 18 606 31 621 q 4 578 8 592 q 3 556 0 565 l 3 550 l 6 551 q 15 558 13 554 l 21 551 q 24 556 22 553 q 28 564 25 560 q 32 572 31 568 q 79 625 44 592 m 253 115 q 255 207 254 157 q 257 310 256 257 q 258 403 258 364 q 258 390 258 397 q 258 378 258 382 q 258 365 258 374 q 260 121 258 211 q 253 115 258 119 m 775 753 q 786 694 786 726 q 761 601 786 650 q 706 515 743 563 q 558 363 650 444 q 353 193 472 288 q 354 203 354 197 q 354 211 354 208 q 458 289 411 251 q 615 422 556 365 q 686 496 654 460 q 746 576 724 540 q 782 664 774 622 q 775 753 792 713 m 744 629 q 696 551 728 594 q 631 475 667 514 q 476 338 576 421 q 451 310 461 325 q 444 289 442 294 q 354 221 403 257 q 356 421 354 290 q 357 606 357 551 q 357 610 357 607 q 358 633 357 619 q 360 659 360 647 q 361 682 361 671 q 355 714 363 700 q 340 725 347 728 q 339 754 339 742 q 340 754 340 754 q 454 797 396 779 q 571 819 518 815 q 663 813 621 824 q 733 774 708 800 q 751 744 744 761 q 757 728 756 736 q 760 708 758 719 q 744 629 761 671 m 303 413 q 299 424 303 419 q 300 450 299 438 q 307 682 301 547 q 308 594 308 632 q 307 533 307 567 q 307 464 307 499 q 307 403 307 429 q 308 188 306 326 q 307 187 308 188 q 306 185 306 186 q 304 299 304 226 q 303 413 304 371 m 338 263 l 339 322 q 340 328 339 324 q 340 336 340 333 l 340 261 q 338 263 339 263 m 306 175 l 306 176 q 307 178 306 176 q 308 179 308 178 q 309 168 308 175 q 310 160 310 161 q 308 158 308 158 q 306 157 307 157 q 306 175 306 171 m 310 115 q 310 113 310 114 q 309 112 310 113 q 308 110 308 111 q 308 114 308 113 q 309 115 308 114 q 310 115 310 115 m 311 51 q 310 75 311 60 q 308 96 310 90 q 309 97 308 97 q 311 97 310 97 q 311 51 311 72 m 325 125 q 325 126 325 125 q 326 127 325 126 q 326 128 326 128 q 326 126 326 126 q 326 126 326 126 q 325 125 325 125 m 353 108 q 353 119 353 111 q 353 131 353 126 q 413 176 385 154 q 407 165 407 169 q 419 169 406 160 q 621 331 560 276 q 353 108 508 225 m 857 622 q 825 544 846 583 q 781 478 807 513 q 779 482 781 481 q 846 592 824 540 q 857 622 851 607 m 464 872 q 558 889 514 885 q 656 885 610 893 q 750 851 710 876 q 790 818 774 836 q 818 774 808 799 q 833 681 836 732 q 811 592 831 639 q 767 515 794 556 q 713 446 742 481 q 590 325 663 388 q 461 215 532 272 q 551 293 507 253 q 640 375 603 339 q 719 460 685 419 q 789 554 764 513 q 829 669 824 614 q 828 731 833 701 q 806 790 822 764 q 797 801 801 797 q 789 808 793 806 q 749 843 772 828 q 638 881 703 872 q 522 878 585 888 q 410 853 469 871 q 313 817 361 838 l 313 818 q 464 872 388 853 m 275 721 l 275 718 q 275 715 275 717 q 275 718 275 717 q 275 721 275 719 "},"E":{"ha":689,"x_min":1,"x_max":674,"o":"m 386 44 q 446 90 418 69 q 458 103 453 96 q 467 116 464 110 q 467 125 469 122 q 578 194 521 163 q 586 206 589 201 q 579 204 585 207 q 456 128 515 169 q 396 86 422 106 q 367 63 381 74 l 360 57 l 356 54 l 350 50 q 328 31 335 36 q 242 -17 278 -10 q 221 -19 229 -19 q 200 -14 208 -19 q 186 3 190 -8 q 182 11 183 7 q 179 22 181 18 q 176 43 178 31 q 175 56 175 49 q 175 63 175 58 q 175 69 175 67 q 179 122 176 94 q 183 149 181 136 l 186 168 l 192 206 q 190 193 192 200 q 188 181 189 186 q 186 168 188 175 q 185 156 185 161 l 183 144 l 181 131 q 178 103 179 114 q 178 50 176 71 q 186 7 179 29 q 199 -10 190 -4 q 221 -17 208 -17 q 242 -14 229 -17 q 263 -6 251 -11 q 307 21 282 3 q 350 57 318 29 l 365 69 l 381 82 q 635 257 497 176 q 671 296 667 276 q 639 296 674 313 q 538 239 588 269 q 566 260 547 246 q 589 276 585 274 q 596 286 594 282 q 588 286 596 290 q 483 221 536 257 q 487 229 489 226 q 476 228 485 232 q 324 121 385 167 q 539 278 428 210 q 547 288 549 283 q 540 286 547 290 q 422 210 486 254 q 417 210 422 214 q 371 181 390 193 q 433 225 406 207 q 444 240 443 233 q 435 238 443 243 q 353 179 393 210 q 313 149 332 163 q 293 132 307 143 l 289 128 q 288 128 288 128 l 286 126 q 278 125 281 124 q 276 127 276 126 q 276 129 276 128 q 278 133 276 132 q 279 136 278 135 l 286 181 q 301 276 292 221 q 324 397 310 325 q 525 457 396 426 q 531 459 528 457 q 535 464 533 461 q 537 470 536 467 q 538 475 538 474 q 565 479 544 476 q 594 483 579 482 l 599 486 q 594 490 601 490 q 467 471 532 486 q 340 431 404 456 q 360 439 360 439 q 624 513 469 482 q 642 533 639 518 q 626 546 642 547 q 600 543 611 544 q 574 539 588 542 q 600 550 588 544 q 604 555 604 551 q 600 557 604 558 q 574 554 590 557 q 546 547 560 551 q 548 553 549 550 q 543 556 547 557 q 522 552 536 554 q 501 550 508 550 q 461 543 474 546 q 575 571 522 563 q 581 576 578 572 q 576 579 581 579 q 515 567 554 576 q 511 569 515 569 q 499 569 507 569 q 488 567 492 568 q 521 575 513 574 q 526 582 525 576 q 521 585 526 585 q 351 538 436 568 q 356 558 353 544 q 360 574 358 571 q 362 606 363 592 q 357 628 361 619 q 347 636 353 638 q 356 690 353 665 q 376 697 367 694 q 532 746 442 722 q 544 754 539 747 q 547 767 549 761 q 614 774 586 774 q 618 776 617 774 q 615 782 621 781 q 540 774 585 782 q 463 756 500 765 q 358 719 411 740 l 358 721 q 492 769 421 749 q 572 790 540 783 q 611 797 593 796 q 631 799 622 799 l 635 799 l 638 800 l 639 800 q 643 799 642 799 l 643 799 l 644 799 l 644 800 q 645 803 644 801 q 646 806 646 806 q 651 818 649 814 q 652 820 651 819 q 653 821 653 821 q 654 822 654 822 l 654 822 q 656 824 656 822 q 654 828 657 825 q 644 832 651 831 q 629 833 638 833 q 599 832 614 833 q 632 839 614 836 q 636 842 635 840 q 633 847 640 847 q 565 840 601 849 q 568 847 568 843 q 563 849 568 850 q 460 829 506 839 q 531 850 499 842 q 606 864 572 861 q 611 867 608 864 q 607 872 617 872 q 528 857 574 869 q 527 860 528 860 q 524 861 526 861 q 494 856 507 858 q 536 867 515 863 q 543 874 543 868 q 538 876 544 878 q 482 864 515 872 q 428 849 456 857 q 350 821 389 836 q 350 824 350 822 q 351 828 351 826 q 339 872 356 863 q 329 870 333 876 q 322 846 325 864 q 317 807 321 829 q 296 799 304 801 q 285 804 290 807 q 274 789 279 801 q 122 701 194 750 q 119 699 121 700 q 68 667 92 682 q 52 643 56 657 q 56 625 49 629 q 25 590 39 608 q 19 567 15 578 q 32 560 21 556 q 18 542 25 551 l 10 532 q 4 521 6 525 q 3 511 1 515 q 10 503 6 507 q 19 500 14 501 q 25 499 22 499 q 28 499 26 499 q 31 497 29 499 q 31 500 31 499 q 33 510 29 504 q 38 515 35 513 l 42 521 q 61 542 51 532 q 104 582 81 563 q 61 528 79 556 q 58 522 60 525 l 56 519 q 56 514 54 517 q 64 499 56 503 q 82 507 72 496 q 226 628 129 564 q 246 639 236 633 q 217 481 229 549 q 185 464 199 472 q 182 461 183 463 q 140 443 163 454 q 126 427 131 439 q 128 410 122 415 q 100 389 113 400 q 91 371 90 382 q 101 360 92 360 q 76 344 92 354 q 69 344 74 344 l 71 340 l 69 340 q 65 336 68 339 l 35 297 l 71 315 q 76 319 74 317 l 79 311 q 129 338 96 319 q 164 357 163 356 q 118 319 161 353 q 115 317 117 318 l 113 315 q 110 310 110 313 q 113 294 107 300 q 131 294 119 288 q 189 329 164 314 q 183 291 188 318 q 175 250 178 264 l 168 211 l 161 172 l 157 153 l 157 146 l 156 138 l 153 121 q 149 53 149 85 q 149 38 149 51 q 151 22 150 33 q 158 -3 154 7 l 158 -4 q 161 -8 160 -7 l 163 -12 q 168 -21 165 -17 q 176 -29 172 -25 q 188 -37 181 -33 q 211 -46 199 -44 q 233 -47 221 -49 q 286 -32 258 -46 q 342 7 313 -18 q 371 31 347 11 l 374 33 l 375 35 l 379 39 l 386 44 m 279 456 q 283 458 282 457 q 283 454 283 457 q 282 450 282 451 q 278 447 282 450 q 278 451 278 449 q 279 456 279 454 m 526 543 q 454 519 510 538 q 338 478 363 489 l 338 482 q 526 543 447 525 m 390 538 q 390 533 390 536 q 354 524 358 525 l 347 521 q 390 538 363 528 m 294 744 q 306 749 300 747 l 304 746 q 294 740 301 744 q 294 743 294 742 q 294 744 294 744 m 540 835 q 450 804 510 825 q 340 764 375 778 q 341 765 340 764 q 342 765 342 765 q 540 835 447 813 m 374 815 q 374 813 374 814 q 347 803 361 808 q 348 804 347 803 q 349 806 349 806 q 374 815 363 811 m 257 717 q 179 674 215 696 q 103 624 136 647 q 157 665 132 647 q 261 728 207 699 q 260 723 261 726 q 260 718 260 719 l 257 717 m 288 660 q 284 646 286 656 q 281 632 282 636 q 283 645 282 636 q 285 660 283 654 q 285 660 285 660 q 288 660 286 660 m 304 582 q 294 515 296 528 q 292 515 293 515 q 290 514 292 515 q 299 552 293 528 q 304 582 304 576 m 207 419 q 206 417 207 418 q 206 414 206 415 q 167 396 183 404 q 207 419 194 413 m 269 374 q 239 200 251 272 q 238 185 239 196 q 235 169 236 175 l 233 154 l 231 140 q 226 96 228 115 q 225 74 225 85 q 226 63 225 68 q 229 51 226 56 q 238 44 232 46 q 249 46 243 44 q 269 57 256 49 q 306 85 283 65 l 325 101 q 349 121 333 108 q 446 194 396 160 q 378 140 413 169 q 344 113 356 122 q 328 99 336 107 l 314 86 q 261 47 281 57 q 246 40 251 42 q 231 42 238 38 q 224 54 224 44 q 222 71 222 60 q 228 135 224 97 q 231 154 229 143 q 233 174 232 165 q 235 194 233 183 q 238 213 236 204 q 236 229 239 222 l 243 264 q 263 371 251 313 q 265 372 263 371 q 269 374 268 374 m 261 108 q 265 103 263 104 q 263 97 264 100 q 258 103 258 99 q 260 111 258 104 q 261 124 260 117 q 263 129 263 126 q 261 115 263 122 q 261 108 261 111 "},"F":{"ha":756,"x_min":-4,"x_max":790,"o":"m 256 211 q 249 -69 249 50 q 254 -94 249 -82 q 265 -106 260 -106 q 261 -228 264 -161 q 264 -236 261 -233 q 268 -232 268 -244 q 275 -62 272 -153 q 280 140 278 29 q 285 315 282 251 q 283 269 283 293 q 286 -301 281 -29 l 288 -312 q 307 -350 293 -349 q 318 -322 318 -350 q 321 -215 319 -271 q 326 -274 324 -249 l 329 -281 q 335 -276 333 -289 q 335 -165 336 -232 q 340 -173 336 -172 q 343 -164 343 -174 q 349 1 343 -117 q 351 -235 351 -146 l 353 -243 q 358 -246 356 -249 q 360 -240 360 -244 q 358 -115 360 -194 q 363 -111 361 -115 q 365 -64 364 -89 q 365 -132 365 -97 q 367 -140 365 -136 q 374 -146 369 -150 q 375 -139 375 -144 q 379 215 378 165 q 385 449 381 338 q 482 488 431 471 q 638 526 550 510 q 649 534 644 528 q 654 546 654 540 q 689 550 663 547 q 706 551 704 551 l 724 551 q 728 554 726 551 q 725 560 732 560 q 569 540 644 558 q 417 490 492 522 l 428 496 q 440 501 432 497 q 763 581 578 560 q 769 582 765 581 q 788 601 788 588 q 771 613 788 613 q 739 611 756 613 q 707 610 725 611 q 740 618 719 613 l 744 621 q 742 626 749 626 q 708 624 732 626 q 675 619 688 622 q 678 624 678 621 q 672 628 678 628 q 656 626 665 626 q 638 624 646 625 q 621 622 629 622 q 571 614 581 617 q 714 642 646 635 q 719 649 719 644 q 715 649 718 650 q 678 644 688 647 l 639 639 q 638 641 639 640 q 636 642 638 642 q 618 640 629 642 q 606 639 607 639 q 647 647 635 646 q 656 654 656 649 q 650 657 656 658 q 433 601 536 640 q 390 583 413 594 q 394 626 392 599 q 397 661 397 654 q 397 683 399 674 q 393 701 396 694 q 379 717 388 718 q 379 738 379 725 q 426 757 403 747 q 608 813 507 788 q 623 822 617 815 q 628 833 629 828 q 706 840 672 842 q 710 843 708 840 q 707 849 715 847 q 621 842 669 850 q 529 819 575 833 q 381 767 454 799 q 381 767 381 767 q 564 835 467 807 q 749 864 683 869 q 778 875 768 863 q 765 894 789 889 q 728 899 747 899 q 692 899 710 900 q 732 906 713 903 q 738 908 735 906 q 733 914 743 913 q 654 908 697 917 q 658 915 658 911 q 651 917 658 918 q 532 896 596 910 q 615 919 576 910 q 703 931 664 931 l 710 933 q 706 939 717 939 q 613 926 665 938 q 612 928 613 928 q 608 929 611 929 q 574 924 593 926 q 622 935 600 931 l 625 936 q 632 944 635 940 q 625 946 631 946 q 560 932 596 940 q 497 914 533 925 q 372 868 435 894 q 368 867 371 868 q 364 865 365 865 q 367 888 365 878 l 367 893 q 353 929 368 926 q 339 904 343 932 l 331 856 q 331 851 331 854 q 329 849 329 850 q 317 843 319 844 q 314 851 317 850 q 301 864 310 868 q 288 832 290 860 q 288 831 288 832 q 288 829 288 829 q 253 810 268 818 q 140 738 193 776 q 138 735 139 736 q 79 696 106 715 q 61 669 65 685 q 64 650 57 654 q 31 611 44 631 q 21 588 21 599 q 36 578 21 571 q 18 557 25 564 q 3 532 7 542 q 1 511 -3 522 q 13 500 4 504 q 22 500 19 497 q 26 511 24 501 q 43 536 29 521 q 65 563 51 547 q 115 610 88 586 q 64 546 89 581 q 61 540 63 543 l 58 536 q 57 529 56 532 q 65 515 56 517 q 85 525 74 513 q 254 672 146 599 q 275 685 264 679 q 268 521 271 607 q 232 497 249 508 q 229 494 231 496 q 181 464 211 485 q 169 454 174 460 q 164 442 165 449 q 168 425 161 429 q 137 394 146 404 q 128 374 128 385 q 142 363 128 360 q 125 347 126 350 q 117 340 122 346 q 108 332 111 335 q 101 307 97 321 q 124 304 106 289 l 144 324 l 168 342 q 214 379 174 347 l 189 354 q 176 339 185 349 q 165 328 168 329 q 163 324 164 325 l 160 321 q 157 314 157 317 q 164 299 156 303 q 183 304 172 294 q 263 371 222 340 q 256 211 257 276 m 322 792 q 322 790 322 792 q 321 788 322 788 q 321 786 321 788 q 314 781 317 785 q 315 784 314 782 q 315 788 315 786 q 322 792 319 790 m 625 903 q 571 888 600 896 q 518 869 550 881 q 375 815 426 839 q 375 817 375 817 q 625 903 506 878 m 432 878 q 432 874 431 876 q 381 856 406 865 l 368 850 q 432 878 401 867 m 203 715 q 115 654 153 683 q 178 704 149 683 q 282 771 228 740 q 281 766 282 769 q 281 761 281 763 q 203 715 239 739 m 332 94 q 333 -125 333 -121 q 329 31 329 24 q 328 178 328 76 q 329 326 329 281 q 325 342 328 336 l 326 374 q 328 418 326 382 q 331 420 328 418 q 335 422 333 422 q 332 315 333 363 q 332 260 332 296 q 332 243 332 253 q 332 223 332 233 q 331 206 332 213 q 332 94 332 97 m 332 501 q 338 504 332 501 q 338 500 338 503 q 338 496 338 497 q 331 493 332 494 q 331 497 331 494 q 332 501 332 500 m 361 139 l 364 213 q 365 231 364 224 l 365 138 q 361 139 363 139 m 457 596 l 483 606 q 485 601 483 604 l 440 589 l 429 585 q 457 596 439 589 m 410 540 l 425 547 q 433 550 429 549 q 441 553 438 551 q 449 556 444 554 q 457 560 453 558 q 521 582 507 578 q 650 614 582 603 q 560 590 613 607 q 390 526 444 557 q 388 525 389 526 q 388 529 388 528 l 390 531 q 394 533 393 532 q 401 536 396 533 q 410 540 407 539 m 343 664 l 340 608 q 339 560 340 583 q 338 559 339 560 q 335 558 336 558 q 343 664 339 617 m 214 421 l 240 442 q 267 461 254 453 q 265 458 265 460 q 265 456 265 456 q 214 421 239 438 "},"G":{"ha":899,"x_min":-1,"x_max":947,"o":"m 929 624 q 856 606 904 622 q 764 567 810 588 l 763 606 q 760 624 761 613 l 758 643 q 746 719 754 681 q 722 799 736 763 q 704 838 715 815 q 694 856 699 850 q 689 865 690 863 l 685 869 q 681 876 682 875 l 671 890 l 665 897 q 663 900 664 899 q 660 904 661 903 q 635 926 647 918 q 574 949 606 946 q 542 945 558 949 q 513 935 526 942 q 463 890 485 919 q 456 882 460 886 q 438 885 447 885 q 393 882 418 888 q 353 869 374 876 q 281 831 318 856 q 158 724 211 786 q 72 588 106 663 q 46 510 54 549 q 38 469 40 490 q 36 449 38 458 q 38 426 36 436 q 36 453 36 440 q 38 478 36 463 q 47 526 40 501 q 81 618 58 572 q 196 778 125 707 q 199 781 197 779 q 203 785 201 783 q 206 788 204 786 q 210 792 208 790 q 214 795 213 793 q 218 799 215 797 q 235 813 233 811 q 256 833 253 828 q 276 854 271 847 q 275 865 286 865 q 242 850 264 863 q 181 803 211 831 q 86 692 128 753 q 21 561 43 626 q 3 486 8 524 q 0 446 0 463 q 4 403 0 424 q 19 357 8 378 q 35 333 25 344 q 44 322 40 326 q 54 313 50 317 q 107 290 78 294 q 163 293 133 285 q 206 311 185 299 q 240 335 222 321 q 254 347 243 338 l 268 360 q 281 374 272 364 l 293 386 q 376 500 336 433 q 448 628 404 546 q 504 735 492 711 q 532 781 513 750 l 546 803 l 549 807 l 550 808 q 553 811 551 810 q 568 819 560 821 q 582 810 575 819 q 583 807 582 810 l 589 800 l 594 790 l 600 779 q 617 735 610 760 q 629 688 625 713 q 638 636 636 657 q 642 521 644 581 q 432 364 529 454 q 446 385 447 382 q 444 384 446 385 q 436 379 442 383 q 424 369 431 375 q 329 274 382 332 q 244 169 278 217 q 210 111 225 140 q 181 47 192 79 q 161 -19 168 13 q 158 -37 161 -22 l 157 -46 l 157 -56 q 157 -94 156 -76 q 156 -67 156 -81 q 157 -40 156 -51 l 158 -28 q 160 -20 160 -25 q 161 -15 161 -15 q 167 10 163 -6 q 201 104 178 56 q 251 189 222 146 q 311 265 281 231 q 599 514 436 411 q 628 536 621 528 q 628 538 629 538 q 626 539 628 539 q 610 531 621 538 q 304 268 436 424 q 292 260 304 272 q 199 133 235 193 q 263 228 224 178 q 297 271 281 253 l 317 293 q 327 305 319 297 q 335 313 335 313 q 364 350 360 340 q 343 336 365 356 q 294 282 303 293 q 249 226 271 256 q 169 96 199 160 q 142 22 151 58 l 138 3 q 133 -18 136 0 q 128 -60 129 -44 q 131 -107 128 -85 q 147 -158 136 -135 q 165 -185 156 -174 l 171 -190 q 177 -197 174 -193 q 190 -206 181 -200 q 218 -221 204 -215 q 250 -229 235 -226 q 304 -226 275 -232 q 328 -221 317 -224 q 339 -217 332 -219 q 349 -212 349 -212 q 424 -169 386 -197 q 455 -145 439 -158 q 483 -119 471 -132 l 510 -92 q 536 -64 511 -92 l 549 -50 l 560 -35 q 583 -6 582 -7 q 626 58 621 49 q 694 193 663 115 l 708 229 q 713 241 711 235 q 717 254 715 247 q 721 265 719 261 l 726 283 q 730 294 728 288 q 732 301 732 301 l 742 339 l 749 376 q 749 382 749 378 q 751 389 750 386 q 753 394 751 392 l 754 414 q 756 426 756 418 q 758 440 757 433 q 760 451 760 446 l 763 490 q 764 528 764 497 l 764 531 q 804 549 785 542 q 933 614 914 599 q 929 624 947 625 m 713 542 l 711 546 q 711 550 711 549 q 713 550 713 550 q 714 551 714 550 q 715 551 714 551 l 715 544 q 714 542 715 543 q 713 542 713 542 m 667 524 q 667 518 667 521 q 667 520 667 518 q 667 524 667 522 m 117 440 q 115 444 117 442 q 115 447 115 447 l 114 450 q 114 454 114 453 q 111 467 113 463 q 103 474 107 476 q 178 651 115 558 q 201 687 188 668 q 224 717 215 706 q 235 736 232 729 q 236 747 242 747 q 210 732 229 747 q 297 804 250 772 q 399 851 350 839 q 439 856 422 857 l 435 850 q 423 831 431 843 q 415 818 415 818 q 348 693 392 776 q 281 572 304 610 q 271 556 276 564 q 190 456 232 496 q 179 444 190 456 l 168 435 q 163 429 167 433 q 160 428 161 429 q 158 426 158 426 q 149 419 151 422 q 132 413 139 414 l 131 411 l 131 411 l 131 411 l 129 411 l 129 411 q 128 413 128 413 q 122 425 125 418 q 117 440 119 432 m 463 789 q 406 688 440 751 q 290 490 332 547 q 217 406 254 442 l 206 396 q 196 386 201 392 q 174 371 185 378 q 150 361 161 364 q 133 357 142 357 q 144 358 138 357 q 163 365 151 361 q 194 388 178 374 q 210 401 197 390 q 217 408 211 403 q 225 417 222 414 l 240 432 l 247 439 l 254 447 l 267 464 l 279 481 q 304 515 281 482 q 347 589 328 553 q 393 673 364 617 q 438 757 422 729 q 461 799 458 794 l 474 819 l 482 833 q 483 832 482 832 q 486 826 485 829 q 478 814 481 819 l 463 789 m 711 568 q 708 596 710 583 q 704 615 707 608 q 702 637 704 617 q 699 667 700 657 q 689 718 694 693 q 646 828 674 781 q 638 840 644 831 q 632 849 636 843 q 628 854 628 854 q 604 879 617 869 q 574 893 589 890 q 540 886 557 894 q 514 865 528 879 q 503 853 508 860 q 497 843 500 849 q 494 850 496 847 l 494 851 q 504 864 499 857 q 525 885 514 876 q 551 897 538 893 q 581 897 567 901 q 629 864 607 892 q 635 857 632 861 q 639 851 639 853 q 647 840 640 850 q 660 818 654 828 q 694 724 682 776 q 704 676 700 701 q 711 628 706 671 l 713 615 q 714 603 713 608 l 714 579 q 715 570 715 576 q 715 561 715 564 q 714 559 715 560 q 711 558 713 558 l 711 563 q 711 568 711 567 m 642 507 q 642 505 642 506 q 642 503 642 504 q 563 451 600 478 q 642 507 600 481 m 379 239 l 389 250 l 407 269 q 417 281 410 274 q 426 289 425 288 q 435 297 428 290 q 444 308 442 304 q 614 444 524 383 q 638 460 625 451 q 635 438 636 450 q 626 433 631 436 q 467 311 542 379 q 458 303 465 310 q 447 294 451 297 l 429 276 q 394 240 428 275 q 376 221 390 236 l 360 201 q 328 163 342 181 q 274 79 296 122 q 238 -10 247 32 q 232 -33 236 -17 q 231 -40 232 -36 q 231 -44 231 -44 q 229 -57 229 -56 q 231 -97 226 -79 q 236 -112 233 -106 q 243 -122 239 -118 q 269 -131 253 -129 q 349 -101 303 -131 q 426 -36 385 -78 q 554 128 500 36 q 664 476 649 289 l 665 476 q 664 460 664 465 q 662 448 663 454 q 660 435 661 442 q 658 425 660 429 q 658 417 658 424 q 657 407 657 411 l 653 390 q 586 183 633 282 q 574 158 583 179 l 561 135 q 532 89 554 124 l 517 67 l 506 50 l 501 44 l 485 24 l 476 13 q 471 6 474 10 q 467 3 468 3 q 306 -128 372 -103 q 265 -135 283 -136 q 256 -133 258 -135 q 249 -132 254 -133 q 238 -122 243 -129 q 224 -90 228 -112 q 222 -69 222 -81 q 224 -44 222 -57 q 304 144 236 46 q 371 229 333 188 l 379 239 m 349 174 q 618 418 464 317 q 633 429 625 422 q 578 233 618 328 q 474 57 538 139 q 440 18 444 22 l 424 0 q 415 -10 421 -4 l 406 -18 l 388 -36 q 369 -51 381 -43 q 332 -79 349 -69 q 294 -97 313 -92 q 267 -103 279 -104 q 263 -103 264 -103 l 263 -101 q 261 -100 261 -101 q 260 -97 260 -99 q 257 -86 258 -93 q 256 -71 256 -79 q 256 -61 256 -65 q 257 -51 256 -56 q 265 -8 258 -35 q 281 35 272 14 q 303 78 293 61 q 349 174 353 168 m 697 240 q 696 235 697 238 q 694 231 694 232 l 688 213 q 672 176 676 183 l 656 140 l 638 106 q 550 -26 596 28 q 550 -21 553 -21 q 679 193 631 78 q 684 207 681 197 q 690 221 688 217 q 700 250 699 243 l 697 240 m 694 354 q 639 185 675 267 q 432 -104 568 19 q 357 -158 393 -139 q 314 -178 338 -169 q 265 -185 289 -185 q 215 -169 238 -185 q 196 -151 206 -162 q 183 -129 189 -143 q 172 -82 174 -108 q 175 -35 171 -60 q 236 132 186 46 q 342 272 275 197 l 322 249 l 311 236 l 301 225 q 265 174 281 197 q 232 121 247 147 q 204 64 217 93 q 185 4 193 36 q 179 -28 183 -6 q 176 -60 176 -53 q 185 -125 174 -97 q 203 -154 192 -142 q 233 -175 217 -168 q 265 -181 249 -181 q 299 -178 282 -182 q 356 -156 325 -172 q 407 -121 379 -142 q 451 -81 432 -100 q 599 108 538 3 q 688 332 658 214 q 711 503 708 418 q 713 504 713 504 q 714 506 714 504 q 694 354 711 426 "},"H":{"ha":829,"x_min":-33,"x_max":847,"o":"m 836 569 q 765 585 811 583 q 807 588 789 588 q 814 589 811 588 q 810 594 819 593 q 749 600 785 601 q 749 608 749 603 q 750 617 750 614 q 781 617 767 617 q 788 618 785 615 q 785 624 794 622 q 750 625 768 625 q 750 626 750 625 q 750 628 750 628 q 750 633 750 631 q 756 699 751 654 q 753 720 757 710 q 745 735 750 731 q 735 740 740 740 q 733 790 735 763 q 726 813 732 803 q 708 813 717 828 q 711 867 710 831 q 711 876 713 871 q 694 899 708 897 q 682 879 685 899 l 678 843 l 675 807 q 669 732 674 788 l 668 776 q 667 821 667 806 q 665 828 667 825 l 665 833 q 663 840 665 839 q 653 849 660 847 q 643 845 647 851 q 638 826 639 839 q 631 636 632 740 q 604 633 614 635 q 569 629 583 632 l 536 625 q 503 619 533 625 q 436 606 483 615 q 369 589 403 597 q 372 603 371 592 q 372 621 372 615 q 372 626 372 624 q 383 710 376 658 q 380 747 386 731 q 365 763 374 764 q 368 825 368 806 q 364 853 369 842 q 346 854 356 874 q 348 872 346 860 q 350 892 350 885 q 353 896 351 893 q 355 904 353 899 q 358 913 357 910 l 353 914 q 354 917 354 915 l 329 924 q 328 922 329 922 q 328 921 328 921 l 324 922 q 310 839 313 853 q 300 754 301 764 q 301 811 300 775 q 304 867 304 865 q 304 875 304 871 l 306 882 q 303 890 306 888 q 292 903 299 903 q 276 874 281 903 q 249 556 257 724 q 249 551 249 554 q 249 547 249 549 q 178 519 211 533 q 174 517 175 518 q 110 492 122 497 q 85 472 93 485 q 83 453 78 460 q 39 426 58 439 q 22 407 28 418 q 32 393 17 392 q -15 367 3 378 q -33 340 -33 356 q -10 335 -33 322 q 121 400 51 367 q 83 376 119 399 q 47 353 71 368 q 42 349 44 351 l 38 346 q 33 340 33 343 q 31 328 31 333 q 40 321 32 322 q 58 326 47 319 q 239 415 158 379 q 222 26 221 179 q 228 4 222 15 q 238 -7 233 -7 q 238 -36 238 -15 q 238 -65 238 -57 l 238 -94 l 238 -124 q 238 -128 238 -126 q 243 -133 240 -136 q 244 -128 244 -132 q 250 129 247 13 q 261 389 254 260 q 260 367 261 382 q 260 346 260 353 q 265 -192 249 33 q 267 -200 267 -196 q 289 -236 274 -233 q 299 -210 300 -237 q 297 -160 299 -185 q 296 -110 297 -153 q 304 -164 300 -142 l 307 -171 q 313 -165 313 -178 q 311 -114 311 -131 q 310 -101 311 -110 q 310 -89 310 -92 q 308 -62 308 -69 q 314 -69 311 -68 q 317 -61 317 -69 q 317 -41 317 -54 q 317 -22 317 -28 q 317 -10 317 -15 q 318 5 318 -4 q 318 17 318 14 l 319 56 q 321 94 321 82 q 323 35 322 74 q 324 -15 324 -3 q 328 -126 326 -69 q 329 -132 328 -129 q 335 -136 332 -139 q 336 -131 336 -135 q 333 -70 335 -110 q 332 -15 332 -31 q 334 -15 333 -15 q 336 -10 335 -14 q 339 33 338 19 q 339 13 339 25 q 339 -10 339 1 q 339 -29 339 -21 l 340 -37 q 347 -43 343 -46 q 349 -35 349 -42 q 363 460 346 186 q 626 508 482 494 q 618 365 626 500 q 610 156 611 236 q 615 138 610 146 q 625 129 621 129 q 622 38 625 115 q 624 31 622 33 q 629 35 629 25 q 647 442 635 139 q 647 408 647 425 q 649 -17 640 131 q 650 -25 649 -21 q 669 -51 656 -51 q 681 -31 681 -53 q 681 49 681 -17 q 688 6 685 22 q 690 0 688 3 q 696 4 696 -6 q 696 45 696 31 q 694 86 696 60 q 700 81 697 81 q 704 88 703 81 q 710 210 704 126 q 713 36 713 106 l 715 29 q 721 32 721 22 q 719 78 721 38 q 719 101 719 86 q 719 124 719 117 q 723 127 722 122 q 724 138 724 132 q 726 151 725 144 q 726 163 726 157 q 726 147 726 156 q 726 128 726 138 q 726 113 726 119 q 731 103 726 106 q 736 107 736 97 q 742 368 738 218 q 744 456 743 399 q 747 528 746 514 l 753 528 q 774 526 764 528 q 778 528 776 525 q 776 533 783 532 q 754 536 767 535 q 747 536 751 536 q 747 542 747 538 q 747 550 747 547 q 815 544 793 551 q 829 543 821 542 q 835 544 832 543 q 840 547 838 546 q 846 557 846 551 q 836 569 846 564 m 699 538 q 692 538 692 538 q 692 542 692 539 q 692 547 692 546 l 699 547 q 699 538 699 544 m 700 624 q 696 622 697 622 l 696 625 q 697 629 696 628 q 699 629 697 629 q 700 629 700 629 q 700 624 700 625 m 694 597 q 696 597 694 597 q 697 597 697 597 q 697 597 697 597 q 694 597 696 597 m 696 608 q 696 615 696 608 q 700 615 696 615 q 700 612 700 614 q 700 608 700 610 q 697 608 699 608 q 696 608 696 608 m 701 660 q 700 639 701 649 q 699 639 700 639 q 697 639 697 639 q 701 700 699 669 l 701 660 m 631 610 q 631 607 631 608 q 601 606 625 607 q 631 610 626 608 m 463 597 q 497 604 483 603 q 497 601 496 603 l 482 599 l 468 596 l 440 592 q 435 590 440 590 q 428 589 431 589 q 463 597 433 590 m 328 714 q 322 611 324 644 q 319 574 321 600 q 317 572 319 572 q 314 571 315 572 q 328 714 321 640 m 315 513 q 313 512 315 513 q 310 511 311 511 q 310 515 310 513 q 310 518 310 517 q 314 520 311 519 q 317 521 317 521 q 317 517 317 519 q 315 513 317 514 m 133 442 q 171 461 142 447 q 207 478 193 472 q 244 493 225 486 l 244 488 q 133 442 186 467 m 339 264 l 339 221 q 335 222 336 222 q 335 244 335 231 q 337 269 336 257 q 339 292 338 281 q 339 299 339 293 q 340 308 339 304 q 340 288 340 303 q 339 264 339 272 m 310 388 q 307 -25 303 243 q 303 49 304 7 q 301 121 301 69 q 303 267 300 172 q 306 399 306 361 q 303 413 306 407 l 304 442 q 313 444 306 442 q 310 388 311 418 m 367 532 q 367 535 367 533 q 367 536 367 536 q 371 538 368 538 q 375 539 374 539 q 535 578 465 565 q 631 592 583 588 q 631 591 631 592 q 631 589 631 590 q 583 582 590 583 q 368 533 443 560 q 367 532 368 533 m 585 532 q 390 493 489 521 q 422 503 400 497 q 624 540 519 529 l 628 542 q 628 538 628 540 q 628 535 628 536 q 585 532 599 533 m 696 442 q 694 279 694 369 q 694 197 694 249 q 693 115 694 146 q 690 231 690 207 q 692 337 690 263 q 692 451 693 411 q 689 461 692 457 l 689 485 q 692 529 690 501 q 699 529 694 529 q 696 442 696 453 m 728 311 q 724 311 725 311 l 726 367 q 728 379 726 367 l 728 311 "},"I":{"ha":428,"x_min":22,"x_max":674,"o":"m 43 -236 q 76 -218 69 -222 q 97 -208 83 -214 q 111 -200 110 -201 q 75 -231 94 -214 q 72 -233 74 -232 l 69 -235 q 68 -239 68 -236 q 73 -255 67 -249 q 88 -257 79 -261 q 196 -197 147 -221 q 192 -283 192 -269 q 193 -293 190 -289 q 199 -289 197 -301 q 204 -193 201 -247 q 215 -189 210 -192 q 215 -364 214 -282 l 217 -378 q 236 -418 222 -415 q 249 -387 247 -418 q 249 -324 249 -365 q 250 -272 250 -283 q 256 -335 253 -312 l 258 -343 q 264 -337 264 -351 q 265 -278 265 -292 q 265 -218 265 -251 q 270 -226 267 -225 q 274 -217 274 -226 q 276 -172 275 -189 q 283 -169 278 -171 q 282 -293 282 -233 q 283 -301 282 -297 q 288 -306 285 -308 q 289 -299 289 -304 q 292 -168 290 -246 q 299 -167 294 -168 q 298 -172 299 -169 q 297 -178 297 -175 q 297 -182 297 -181 q 299 -193 297 -187 q 306 -197 301 -201 q 307 -189 307 -196 q 307 -182 307 -186 q 308 -173 307 -178 q 308 -165 308 -168 q 406 -151 340 -160 q 413 -146 410 -151 q 415 -135 417 -140 q 463 -135 443 -133 q 465 -132 464 -135 q 463 -126 467 -128 q 310 -137 388 -122 l 310 -136 q 486 -108 376 -119 q 500 -94 496 -107 q 489 -76 506 -76 q 468 -76 479 -76 q 447 -76 458 -76 q 468 -69 458 -74 q 472 -65 471 -68 q 468 -61 472 -61 q 425 -65 446 -61 q 426 -59 426 -62 q 422 -56 426 -56 q 389 -58 411 -57 q 354 -58 367 -58 q 449 -44 406 -47 q 451 -43 451 -44 q 450 -37 454 -37 q 400 -43 431 -37 q 397 -39 400 -39 q 388 -39 394 -39 q 376 -39 381 -39 q 404 -35 394 -36 l 410 -31 q 406 -25 411 -25 q 314 -37 358 -29 q 326 193 319 81 q 357 576 338 363 q 357 582 357 579 q 364 635 360 601 q 369 679 368 668 q 367 724 374 704 q 363 733 365 729 q 358 738 361 736 q 353 739 356 740 q 358 814 356 765 q 353 847 360 835 q 336 846 344 867 q 340 882 338 865 q 400 900 369 892 q 549 932 458 915 q 560 940 556 933 q 564 951 565 946 q 624 954 606 957 q 627 957 626 953 q 625 961 628 961 q 594 963 613 964 q 558 960 588 963 q 483 947 522 956 q 344 910 414 933 q 360 915 353 913 q 513 960 429 940 q 541 965 515 960 q 575 972 567 971 q 601 976 583 974 q 630 977 619 978 q 649 974 640 976 q 657 975 651 972 q 667 981 663 978 q 672 990 672 986 q 665 1001 674 996 q 613 1013 646 1014 q 644 1017 631 1015 q 650 1018 647 1017 q 647 1024 654 1022 q 583 1024 621 1031 q 586 1030 586 1026 q 581 1033 586 1033 q 532 1028 554 1029 q 485 1021 489 1022 q 551 1036 519 1031 q 622 1044 596 1044 q 629 1046 626 1044 q 626 1051 635 1051 q 549 1043 597 1053 q 548 1046 549 1044 q 546 1047 547 1047 q 533 1047 543 1047 q 518 1044 524 1046 q 557 1051 528 1047 q 564 1058 564 1053 q 558 1063 564 1063 q 356 1015 450 1046 q 257 978 301 997 q 208 956 243 972 q 163 931 175 939 q 160 929 161 931 q 111 904 143 921 q 94 885 99 897 q 96 867 90 872 q 65 842 81 856 q 56 827 58 835 q 58 815 54 819 q 67 810 61 810 l 50 797 q 33 781 39 789 q 29 764 28 774 q 39 751 32 757 q 47 749 43 747 q 53 757 50 750 q 68 772 57 764 l 92 788 q 104 796 96 790 q 114 803 113 801 q 138 818 126 811 q 113 796 129 810 q 88 772 103 786 q 85 769 86 771 l 82 767 q 79 761 79 764 q 81 753 78 757 q 85 746 82 749 q 103 749 90 739 q 257 847 178 804 q 261 850 258 849 q 264 851 264 851 q 231 500 244 689 q 218 362 228 469 q 203 196 208 254 q 185 -74 189 42 q 124 -100 153 -85 q 122 -101 122 -100 q 86 -114 107 -106 q 75 -128 78 -118 q 78 -146 72 -139 q 56 -162 63 -156 q 49 -180 47 -169 q 57 -192 50 -190 q 32 -207 44 -199 q 26 -226 24 -212 q 43 -236 31 -243 m 208 -125 q 208 -121 208 -124 q 208 -117 208 -118 q 217 -114 217 -114 q 217 -117 217 -114 q 217 -121 217 -119 q 212 -123 215 -122 q 208 -125 208 -124 m 265 -149 l 265 -149 q 265 -147 265 -147 l 265 -149 m 265 -100 q 265 -97 265 -100 q 268 -97 267 -97 q 268 -100 268 -99 q 266 -100 267 -100 q 265 -100 265 -100 m 282 -93 q 283 -92 282 -93 q 285 -92 285 -92 q 285 -94 285 -93 q 281 -96 282 -96 q 281 -94 281 -96 q 282 -93 282 -93 m 285 -60 l 283 -60 q 285 -57 285 -58 q 286 -57 285 -57 q 285 -58 286 -57 q 285 -60 285 -60 m 268 -62 l 267 -62 l 265 -64 l 265 -62 q 267 -62 267 -62 q 268 -62 268 -62 m 278 -146 q 278 -144 278 -144 q 281 -144 279 -144 q 283 -143 283 -143 q 283 -143 283 -143 q 278 -146 281 -144 m 299 -140 q 297 -140 299 -140 q 297 -139 297 -139 q 299 -139 297 -139 q 299 -140 299 -139 m 408 -67 q 349 -81 396 -69 q 328 -85 342 -82 q 311 -89 315 -87 q 311 -87 311 -87 q 311 -85 311 -86 q 408 -67 364 -72 m 285 -43 q 285 -40 285 -43 q 286 -37 286 -37 q 286 -40 286 -37 q 286 -43 286 -42 l 285 -43 m 304 111 q 308 150 306 124 q 311 192 310 176 q 312 198 311 194 q 313 205 313 201 q 313 211 313 208 q 312 178 313 196 q 310 142 311 161 q 308 110 308 124 q 304 111 307 111 m 306 564 q 286 304 292 382 q 282 244 283 281 q 281 226 282 236 q 280 204 281 215 q 278 185 279 193 q 272 65 274 71 q 269 -47 271 18 q 267 -47 268 -47 q 265 -49 267 -47 q 267 -6 267 -25 q 274 160 268 51 q 283 317 281 268 q 281 333 283 326 l 283 368 q 315 683 294 507 q 306 564 311 626 m 560 1019 q 474 997 532 1013 q 343 958 382 974 q 343 960 343 960 q 560 1019 461 1004 m 404 1017 q 404 1013 403 1014 q 361 1001 385 1008 l 351 999 q 404 1017 386 1011 m 140 858 l 167 875 q 193 892 178 882 q 318 951 253 925 q 319 951 319 951 q 318 947 319 949 l 317 946 q 313 944 314 944 q 307 939 308 942 q 290 932 299 935 q 140 858 207 897 m 306 869 l 301 838 q 288 731 297 813 q 290 794 290 778 q 294 860 293 833 q 294 864 294 863 q 306 869 300 867 m 238 307 q 235 257 236 281 q 218 -61 222 81 q 211 -64 213 -64 q 238 307 224 135 m 129 -153 q 149 -142 140 -146 q 185 -126 165 -135 q 186 -132 185 -129 q 111 -164 144 -147 l 129 -153 "},"J":{"ha":700,"x_min":-1,"x_max":713,"o":"m 25 546 l 47 565 l 69 585 q 115 622 75 590 l 90 596 q 78 582 86 592 q 67 569 69 572 q 64 565 65 568 l 61 563 q 60 557 58 560 q 65 542 57 546 q 85 547 74 536 q 238 668 160 617 q 383 738 301 708 q 388 740 385 739 q 392 740 392 740 q 401 629 399 688 q 403 450 407 546 q 399 557 403 496 q 389 664 396 611 q 388 679 389 668 l 386 692 q 381 707 383 703 q 363 722 369 733 q 358 703 360 717 q 361 665 358 686 q 363 368 372 536 q 357 296 360 335 q 344 288 353 294 q 221 174 282 238 q 114 38 157 107 q 42 -126 64 -44 q 28 -225 26 -179 q 29 -251 28 -236 l 31 -260 q 32 -269 31 -262 l 35 -279 q 35 -284 35 -281 q 36 -289 36 -287 q 43 -307 38 -293 q 51 -325 46 -315 q 74 -354 61 -342 q 103 -375 88 -368 q 138 -385 117 -382 q 210 -372 174 -389 q 243 -351 226 -365 q 251 -346 249 -349 l 256 -343 l 257 -340 l 258 -339 l 268 -331 q 285 -314 268 -331 q 301 -296 292 -307 q 394 -136 358 -229 q 443 32 424 -64 q 468 197 457 103 q 468 210 468 203 q 472 244 471 224 q 536 285 504 265 q 550 299 553 294 q 539 296 549 301 q 474 256 507 278 q 476 274 474 256 q 638 369 553 328 q 706 417 693 397 q 701 428 713 426 q 686 425 696 428 q 660 415 675 422 q 615 396 651 411 q 574 375 581 378 q 532 351 564 369 q 490 326 499 331 q 578 383 536 358 q 592 397 592 393 q 579 394 592 400 q 492 344 535 372 q 487 341 490 343 q 483 339 483 339 q 485 360 483 343 q 506 372 497 368 q 521 388 522 382 q 510 384 521 390 q 486 369 499 378 q 486 374 486 371 q 486 378 486 376 q 479 467 490 433 q 468 478 474 482 q 463 606 468 544 q 447 668 458 649 q 433 654 436 685 q 422 751 429 704 q 538 783 472 767 q 547 788 543 785 q 552 796 550 792 q 553 803 554 800 q 589 808 563 806 q 624 813 601 811 q 629 817 626 814 q 625 821 629 821 q 468 793 543 814 q 417 778 443 786 q 417 779 417 778 q 417 781 417 781 q 661 843 524 821 q 685 864 681 849 q 667 876 688 878 q 636 874 651 875 q 604 869 621 872 q 638 881 617 874 q 642 885 642 882 q 638 889 642 889 q 604 883 628 888 q 571 878 585 881 q 574 883 575 881 q 568 886 574 886 q 544 882 561 885 q 517 878 526 879 q 467 868 476 869 q 608 901 542 892 q 614 908 614 904 q 610 910 614 910 q 572 903 583 906 l 535 894 q 534 897 535 896 q 531 899 533 899 q 501 894 515 896 q 543 904 529 901 q 550 911 547 906 q 544 914 550 915 q 329 850 432 892 q 132 740 224 806 q 129 738 131 739 q 81 707 111 728 q 71 697 75 703 q 65 685 67 692 q 68 667 63 672 q 39 636 47 647 q 29 617 31 628 q 43 606 31 601 q 26 590 28 592 q 18 583 24 589 q 10 575 13 578 q 3 550 -1 564 q 25 546 7 531 m 340 272 q 356 289 351 281 q 356 281 356 286 q 356 275 356 278 q 321 247 336 260 q 313 244 321 250 q 246 185 282 218 q 340 272 292 232 m 328 242 q 354 265 339 253 q 353 260 354 264 q 353 254 353 256 q 282 193 315 224 q 176 79 221 135 q 328 242 236 160 m 153 -234 q 153 -231 153 -232 q 157 -183 151 -210 q 171 -131 161 -160 q 182 -106 172 -129 q 193 -81 192 -83 q 332 106 239 11 q 336 111 333 107 q 331 69 333 88 q 253 -156 303 -68 q 183 -243 222 -207 q 172 -251 176 -249 q 167 -254 169 -253 q 154 -247 158 -256 q 153 -242 153 -244 q 153 -239 153 -240 l 153 -237 q 153 -237 153 -237 q 153 -235 153 -236 q 153 -234 153 -234 m 342 151 q 196 -19 250 65 q 168 -69 179 -47 q 156 -96 167 -72 q 144 -124 146 -119 q 125 -233 122 -187 l 125 -236 q 126 -240 126 -239 l 126 -244 q 128 -253 128 -249 q 135 -269 131 -264 q 148 -282 140 -279 q 167 -283 156 -285 q 183 -275 175 -281 q 190 -269 186 -274 q 194 -267 194 -267 l 200 -262 q 240 -219 221 -243 q 233 -228 238 -222 q 228 -235 228 -233 q 214 -249 215 -247 q 200 -262 203 -261 l 194 -268 q 189 -272 190 -271 q 172 -282 181 -279 q 153 -285 161 -286 q 143 -282 149 -283 q 136 -275 139 -279 q 128 -258 131 -268 q 125 -249 126 -253 l 125 -243 l 124 -237 q 124 -210 122 -225 q 133 -153 125 -185 q 247 63 161 -46 q 332 154 285 107 q 344 165 332 154 q 343 159 343 164 q 342 151 343 154 m 92 -351 q 68 -325 78 -340 q 53 -293 58 -311 q 47 -275 51 -292 q 47 -271 47 -274 q 45 -266 46 -268 q 44 -261 44 -264 q 43 -257 44 -258 l 43 -249 l 42 -242 q 40 -229 42 -242 q 42 -203 40 -212 q 49 -153 43 -179 q 51 -156 49 -156 q 43 -236 42 -199 q 44 -247 43 -236 q 44 -253 44 -249 l 46 -260 q 47 -268 46 -262 q 49 -274 49 -274 q 51 -282 50 -276 q 53 -287 53 -287 q 78 -337 61 -318 q 99 -356 88 -347 q 110 -361 101 -358 q 122 -367 114 -364 q 92 -351 106 -362 m 415 175 q 375 -44 401 47 q 278 -247 340 -167 q 244 -287 261 -271 q 235 -296 239 -293 q 230 -301 233 -297 q 224 -306 226 -304 q 197 -324 211 -317 q 168 -336 183 -332 q 138 -336 151 -339 q 131 -335 132 -335 l 126 -333 l 124 -332 q 111 -324 117 -329 q 92 -299 100 -314 q 81 -269 85 -286 q 75 -239 76 -254 q 76 -185 72 -214 q 88 -132 81 -158 l 90 -119 q 93 -113 92 -118 q 94 -107 94 -108 q 104 -83 97 -99 q 210 94 138 6 q 278 169 240 133 q 351 239 311 204 q 249 138 297 190 q 163 22 200 82 q 128 -37 143 -7 q 101 -101 113 -69 l 96 -117 q 94 -122 94 -119 q 92 -126 93 -124 q 91 -130 92 -128 q 90 -135 90 -132 q 82 -168 86 -150 q 78 -240 75 -207 q 79 -250 78 -244 q 81 -261 79 -253 q 86 -281 83 -271 q 107 -317 93 -303 q 142 -335 121 -332 q 163 -335 151 -336 q 182 -329 172 -333 q 218 -307 200 -322 q 226 -300 224 -303 l 232 -294 q 244 -282 235 -292 q 289 -226 268 -257 q 297 -213 293 -221 q 300 -201 300 -206 q 329 -149 315 -179 q 374 -22 354 -93 q 401 110 390 38 q 414 201 408 150 q 418 204 417 203 q 415 175 415 179 m 415 213 q 418 229 417 217 q 419 231 418 229 q 421 232 421 232 q 419 217 421 229 q 417 214 419 215 q 415 213 415 213 m 426 300 q 425 299 426 299 q 426 321 425 308 q 428 322 428 322 q 428 315 428 318 q 427 306 428 311 q 426 300 426 301 m 429 332 q 428 331 428 331 q 431 375 429 357 q 429 332 431 358 m 388 767 q 317 738 351 754 l 329 743 q 335 747 331 744 q 340 749 340 749 q 388 769 363 760 q 388 769 388 769 q 388 767 388 768 m 547 871 q 457 843 511 861 q 404 825 424 832 q 403 828 403 828 q 418 833 411 831 q 547 871 481 857 m 354 844 l 378 854 q 376 850 376 853 l 338 836 l 326 832 q 354 844 336 838 m 140 685 q 168 706 156 696 q 294 781 232 750 q 301 783 296 781 q 310 788 306 786 l 325 794 q 334 799 328 796 q 345 804 340 801 q 356 808 350 807 q 367 813 360 810 q 378 818 375 817 q 378 817 378 818 q 379 815 379 815 q 289 774 326 794 q 283 767 285 771 q 277 763 281 765 q 271 760 274 761 q 265 757 268 758 q 115 664 183 714 l 140 685 "},"K":{"ha":600,"x_min":47,"x_max":572,"o":"m 64 156 q 58 64 63 117 q 60 57 57 60 q 65 60 64 51 q 88 471 82 244 q 86 438 86 451 q 85 286 86 386 q 85 284 85 285 q 83 283 85 283 q 82 254 82 267 q 83 242 83 249 q 82 8 81 96 l 83 -3 q 103 -28 89 -28 q 114 -7 113 -29 q 117 72 115 31 q 122 29 119 47 q 125 24 122 25 q 131 28 129 18 q 132 110 132 61 q 137 105 133 106 q 140 111 140 104 q 143 156 142 129 q 150 151 147 153 q 149 58 150 101 q 150 51 149 54 q 156 54 156 44 q 158 147 157 89 q 164 144 161 146 q 164 140 164 143 q 164 136 164 138 q 168 126 164 129 q 174 131 174 121 q 174 135 174 132 q 174 140 174 139 q 188 135 182 138 q 224 124 210 128 q 258 115 229 122 q 294 108 288 108 q 308 107 301 107 q 321 110 315 108 q 333 118 333 114 q 456 108 385 113 q 464 111 461 108 q 460 117 472 115 q 328 129 381 121 q 260 142 299 133 q 194 163 226 150 q 176 169 186 165 l 175 169 q 175 172 175 171 q 175 175 175 174 q 179 172 178 174 q 214 161 185 171 q 224 158 218 160 q 232 156 231 156 q 249 151 240 153 q 389 133 311 136 q 526 135 446 131 q 535 136 531 136 q 571 157 569 142 q 544 168 572 168 q 444 168 472 168 q 499 174 469 169 q 506 176 503 175 q 501 182 513 182 q 397 183 408 183 q 404 188 404 185 q 396 192 404 192 q 249 219 318 197 q 353 203 293 208 q 463 200 399 200 l 467 200 q 472 206 475 203 q 467 207 471 207 q 353 211 393 207 q 349 215 356 214 q 329 219 342 217 q 308 224 321 221 q 368 217 332 219 q 381 219 376 217 q 375 226 386 225 q 226 256 289 233 q 213 263 219 258 q 210 264 211 263 q 208 264 210 264 q 207 268 207 267 q 208 271 208 269 l 208 272 l 210 272 q 219 299 213 283 q 396 564 269 399 q 400 568 397 565 q 454 632 426 599 q 472 665 468 647 q 468 685 476 683 q 506 738 492 715 q 518 767 517 753 q 503 774 518 783 q 547 826 536 813 q 561 863 563 846 q 533 856 557 882 q 410 715 472 790 q 475 807 446 767 q 481 814 478 810 l 483 819 q 486 828 488 824 q 486 842 489 836 q 454 828 479 856 q 354 704 406 769 q 257 576 296 631 q 183 476 213 519 q 183 664 185 576 q 183 668 183 667 q 186 736 186 722 q 179 767 188 754 q 163 776 171 779 q 158 828 161 803 q 151 850 157 842 q 132 850 139 867 q 132 877 132 858 q 132 904 132 896 q 132 911 132 908 q 114 935 128 935 q 101 915 103 936 q 99 765 99 853 q 97 788 97 776 q 94 810 96 800 q 92 833 93 821 q 90 856 90 846 q 89 863 90 858 l 89 868 q 85 875 88 872 q 75 883 81 882 q 65 878 69 885 q 61 858 61 871 q 65 604 61 776 q 58 383 65 526 q 49 183 50 240 q 53 165 49 174 q 64 156 58 156 m 131 207 q 133 204 132 206 l 133 199 q 131 201 132 200 q 131 204 131 203 q 131 207 131 206 m 168 406 l 168 404 l 168 406 m 135 342 q 131 335 133 339 q 131 339 131 336 q 135 344 132 340 q 135 342 135 343 m 132 140 q 132 164 132 150 l 132 163 q 132 140 132 140 m 146 188 q 146 189 146 188 q 146 192 146 190 q 150 189 150 189 q 150 186 150 188 q 150 183 150 185 q 146 188 147 186 m 165 175 q 164 175 164 175 q 165 178 164 176 q 165 179 165 179 q 165 175 165 175 m 211 214 q 260 200 239 206 q 360 185 306 189 q 218 208 276 189 q 188 219 199 214 q 178 226 182 222 q 178 231 178 228 q 190 222 182 226 q 200 218 193 221 q 211 214 207 215 m 208 308 q 204 299 206 301 q 199 283 200 290 q 196 276 197 281 l 196 275 l 196 274 l 196 272 q 194 267 194 269 q 192 267 193 267 q 192 272 192 269 l 193 275 q 194 279 194 276 q 206 303 199 289 q 213 317 213 315 l 208 308 m 182 336 l 190 351 q 222 411 204 379 q 226 425 226 418 q 243 450 229 428 q 411 665 289 518 q 349 582 385 631 q 221 400 264 472 q 181 326 199 364 q 181 329 181 328 q 181 332 181 331 l 182 336 m 128 517 q 132 735 128 529 q 135 653 135 674 q 135 472 136 569 q 135 399 135 444 q 133 397 133 399 q 132 394 132 396 q 131 481 133 444 q 128 492 131 488 l 128 517 "},"L":{"ha":197,"x_min":-32,"x_max":547,"o":"m 411 -222 q 239 -299 326 -258 q 196 -318 231 -301 l 174 -328 l 163 -332 l 157 -335 l 149 -339 q 79 -356 108 -358 q 47 -343 61 -353 q 22 -318 33 -333 q 8 -286 14 -304 q 0 -251 3 -271 q -3 -197 -3 -228 q 3 -99 -3 -185 q 22 94 11 -1 q 17 31 18 57 q 7 -69 14 3 q 6 -86 7 -78 q 5 -104 6 -94 q 4 -119 4 -114 q 1 -171 1 -161 q 1 -224 0 -201 q 4 -251 1 -239 q 13 -286 7 -271 q 54 -342 26 -325 q 88 -350 69 -350 q 121 -343 103 -350 q 156 -328 131 -340 l 178 -318 l 222 -296 l 311 -253 q 492 -165 390 -214 q 500 -160 496 -162 q 544 -119 543 -136 q 506 -122 546 -104 q 369 -185 439 -153 q 440 -144 410 -162 q 450 -133 450 -139 q 440 -136 450 -132 q 300 -201 378 -164 q 308 -192 308 -196 q 296 -194 307 -189 q 189 -243 253 -214 l 135 -265 l 129 -269 l 125 -271 l 124 -271 l 115 -274 q 100 -278 106 -278 q 121 -269 106 -278 l 157 -253 q 232 -215 185 -239 q 382 -144 310 -178 q 394 -133 392 -139 q 385 -135 394 -129 q 226 -210 326 -161 q 219 -208 226 -207 q 158 -235 179 -225 q 199 -215 169 -229 q 244 -193 229 -201 q 261 -179 260 -186 q 250 -181 263 -175 q 138 -233 149 -228 l 124 -240 l 113 -244 l 111 -244 l 111 -246 q 106 -246 107 -246 q 101 -246 103 -247 q 99 -242 100 -244 q 97 -237 97 -240 q 97 -236 97 -236 l 97 -235 q 97 -233 97 -235 q 97 -228 97 -229 q 96 -175 94 -207 q 99 -146 97 -158 l 100 -114 l 103 -83 l 106 -53 q 120 102 111 21 q 141 287 129 183 q 158 442 153 390 q 158 451 158 446 q 175 578 169 528 q 171 644 181 619 q 160 656 165 658 q 164 751 164 707 q 158 797 165 782 q 142 793 149 819 q 144 844 143 811 q 147 896 147 892 q 147 914 149 906 q 131 953 144 954 q 118 917 121 953 q 93 639 110 794 q 100 806 97 708 q 100 818 100 813 l 100 828 q 97 840 100 838 q 88 857 93 856 q 71 811 74 858 q 28 343 61 672 q -18 -49 -17 -32 q -28 -147 -19 -53 q -31 -199 -31 -178 q -29 -228 -31 -214 q -29 -242 -29 -235 l -28 -250 l -26 -258 q -15 -303 -22 -283 q 6 -342 -7 -325 q 38 -369 19 -360 q 79 -382 57 -381 q 122 -378 100 -385 q 167 -360 139 -374 q 191 -348 175 -356 q 213 -337 207 -340 q 233 -326 224 -333 q 248 -311 243 -318 q 251 -301 253 -304 q 407 -232 331 -265 q 419 -222 417 -226 q 411 -222 419 -218 m 51 -100 q 68 108 61 25 q 67 128 68 119 l 71 174 q 96 378 79 243 q 121 579 113 514 q 107 425 114 490 q 94 319 101 382 q 81 197 88 256 q 69 90 75 139 q 67 53 68 72 q 63 14 63 18 q 61 -6 63 6 q 60 -23 60 -17 q 58 -44 60 -29 q 57 -62 57 -60 q 53 -106 56 -78 q 51 -140 51 -135 q 50 -215 49 -189 q 51 -233 51 -226 q 53 -243 51 -235 q 54 -250 53 -247 q 64 -278 58 -268 q 86 -297 72 -294 q 115 -292 97 -299 q 129 -285 117 -290 l 146 -276 q 181 -260 163 -268 q 250 -226 221 -242 q 204 -250 238 -233 q 153 -276 171 -267 l 129 -289 q 108 -299 114 -296 q 86 -301 96 -303 q 67 -290 75 -300 q 50 -251 56 -278 q 49 -240 50 -246 q 47 -228 47 -235 q 46 -203 46 -215 q 51 -100 46 -187 m 93 -29 q 90 -60 92 -37 q 88 -94 89 -82 l 85 -160 q 81 -157 82 -157 q 90 -54 89 -65 q 93 -29 92 -43 "},"M":{"ha":758,"x_min":47,"x_max":710,"o":"m 69 15 q 71 -38 69 -4 q 72 -86 72 -72 l 75 -93 q 79 -89 81 -99 q 76 360 75 192 q 76 340 76 353 q 76 322 76 328 q 103 -143 81 42 q 103 -150 103 -147 q 125 -181 110 -179 q 136 -157 138 -182 q 131 -71 132 -110 q 140 -117 135 -93 q 146 -124 143 -124 q 147 -118 149 -122 q 142 -29 146 -85 q 147 -35 143 -35 q 150 -26 150 -35 q 149 108 149 19 q 163 -83 150 94 q 169 -92 165 -92 q 171 -86 171 -90 q 167 -30 169 -67 q 164 14 164 7 q 166 14 165 13 q 167 18 167 15 q 167 30 167 24 q 168 44 168 36 q 168 56 168 53 q 169 42 168 50 q 169 28 169 35 q 170 15 169 22 q 171 1 171 7 l 172 -4 q 179 -10 175 -12 q 181 -3 181 -8 q 174 281 175 129 q 174 329 174 293 q 194 283 183 303 q 217 242 206 260 l 221 236 l 222 233 l 225 229 q 236 217 231 222 q 261 193 249 203 q 326 176 292 174 q 390 201 361 179 q 403 213 397 207 q 410 219 407 215 q 415 225 411 221 q 432 247 424 235 q 444 268 438 256 l 454 286 q 494 363 475 324 q 563 517 521 418 q 570 533 565 522 q 575 546 575 543 q 575 545 575 546 q 575 543 575 544 q 567 -153 560 53 q 571 -174 568 -164 q 578 -191 574 -185 q 585 -197 582 -197 q 589 -350 586 -256 q 590 -360 589 -356 q 594 -362 593 -365 q 596 -356 597 -361 q 593 324 589 25 q 593 267 593 286 q 619 -440 593 -143 q 622 -458 621 -450 q 646 -499 632 -500 q 654 -465 656 -499 q 650 -397 653 -442 q 647 -333 647 -353 q 657 -404 653 -374 q 660 -411 658 -408 q 664 -415 663 -418 q 665 -407 665 -414 q 657 -271 665 -390 q 663 -280 660 -279 q 667 -269 667 -281 q 665 -218 665 -233 q 664 -167 664 -194 q 664 -64 664 -160 q 679 -356 668 -151 l 682 -365 q 686 -369 685 -371 q 688 -361 688 -368 q 685 -312 686 -339 q 682 -256 683 -286 q 679 -208 681 -226 q 683 -203 682 -208 q 683 -144 683 -165 q 688 -228 686 -210 q 689 -240 688 -235 q 696 -246 693 -249 q 697 -236 697 -244 q 689 201 689 -42 q 696 639 689 397 q 696 647 697 643 q 701 706 697 668 q 704 758 704 744 q 703 793 706 776 q 695 818 700 810 q 685 825 690 826 q 685 849 685 826 q 686 864 692 863 q 686 865 686 864 q 686 868 686 867 q 686 910 686 890 q 686 918 686 914 q 690 928 688 921 q 694 940 693 936 q 699 999 708 979 q 674 976 690 1015 q 667 961 671 971 q 663 949 664 951 q 671 1035 667 1007 q 668 1083 676 1071 q 657 1085 664 1090 q 644 1057 649 1078 q 633 994 638 1031 q 628 932 632 976 l 625 897 q 623 890 625 896 q 619 882 621 885 l 619 883 q 619 898 619 890 q 619 913 619 906 q 619 927 619 919 q 619 942 619 935 q 619 957 619 950 q 621 968 621 963 l 621 976 q 618 989 621 985 q 615 999 617 994 q 610 1003 613 1003 q 604 1003 607 1004 q 592 963 594 996 q 586 864 589 915 q 546 764 571 828 q 540 760 544 767 q 517 710 519 717 q 547 785 539 765 q 549 801 551 796 q 540 794 546 807 q 503 704 531 771 q 461 601 476 638 q 379 410 400 454 q 357 365 368 386 q 346 343 354 357 q 335 321 336 324 q 324 306 329 311 q 322 303 322 303 q 321 301 321 301 l 321 301 l 319 301 l 319 301 l 317 306 q 314 310 314 310 q 304 328 310 317 q 269 414 288 358 q 267 421 268 417 q 240 522 254 461 q 228 553 236 539 q 213 574 221 568 q 201 576 206 581 q 178 654 188 624 q 175 661 176 657 q 157 690 171 688 q 153 693 154 692 q 149 746 151 722 q 140 769 147 760 q 122 769 129 788 q 121 829 122 803 q 121 836 121 832 q 101 861 117 861 q 90 840 90 863 q 90 820 90 833 q 90 804 90 807 q 88 772 82 800 q 89 769 89 771 q 89 767 89 768 q 89 704 89 740 q 86 708 88 707 q 83 743 85 721 q 79 775 81 765 q 78 782 79 779 l 78 788 q 75 794 78 793 q 64 804 69 803 q 50 776 50 806 q 56 504 51 747 q 52 383 54 461 q 50 274 50 306 q 51 44 47 142 q 58 24 53 33 q 69 15 64 15 m 647 -125 q 643 -29 643 -37 q 640 165 640 39 q 638 339 639 292 q 635 357 638 350 l 635 397 q 650 757 638 563 q 648 692 649 739 q 647 621 647 646 q 642 325 643 469 q 644 51 640 200 q 654 -221 647 -49 q 647 -125 651 -175 m 674 106 q 675 199 674 126 q 675 209 675 201 q 675 221 675 217 q 675 183 675 206 q 676 142 675 161 q 676 104 676 122 q 674 106 675 107 m 576 618 q 553 563 563 585 q 488 411 494 428 q 451 336 468 368 q 433 300 444 321 q 411 263 418 272 q 426 288 418 272 q 439 311 431 296 q 510 468 471 375 q 572 625 533 526 q 575 632 574 628 q 578 636 576 635 q 576 618 576 631 m 585 840 q 583 813 583 822 q 582 811 582 813 q 503 631 561 761 q 585 840 547 746 m 428 488 q 431 485 429 485 q 394 406 411 442 q 390 397 393 403 q 385 388 386 390 q 428 488 404 431 m 228 382 q 254 318 242 343 q 269 289 261 301 q 279 275 275 282 q 286 265 283 268 q 307 250 296 254 q 331 251 318 247 q 353 264 343 256 q 361 274 357 268 q 369 286 365 279 q 385 314 376 296 q 400 342 393 326 q 428 400 414 369 q 478 521 447 444 q 574 764 551 706 q 510 592 521 622 q 443 428 474 499 q 406 349 425 388 q 386 310 394 324 q 367 274 374 286 q 361 267 364 269 q 360 261 360 264 q 335 244 349 249 q 301 244 317 238 q 276 268 288 251 q 271 276 274 269 q 265 285 269 276 q 256 303 260 294 q 238 340 246 319 q 211 422 226 369 q 188 504 200 458 q 228 382 207 443 m 128 129 q 124 251 125 171 q 121 371 122 332 q 117 382 121 378 l 117 408 q 118 499 118 443 q 121 490 119 496 q 124 479 122 483 q 124 478 124 479 q 125 476 125 478 q 125 410 125 454 q 125 361 125 365 q 139 4 125 247 q 128 129 131 90 m 157 219 l 158 279 q 158 293 158 285 l 161 218 q 157 219 160 219 m 122 632 q 122 608 122 622 q 121 614 122 611 q 121 635 121 631 q 122 632 121 633 "},"N":{"ha":611,"x_min":32,"x_max":574,"o":"m 49 -112 q 42 -239 46 -160 q 43 -249 40 -244 q 49 -244 47 -257 q 76 319 65 0 q 76 272 76 318 q 65 -315 65 -215 q 65 -329 65 -322 q 85 -367 71 -365 q 96 -339 94 -367 q 100 -229 99 -287 q 106 -289 103 -265 l 107 -296 q 113 -292 113 -304 q 115 -178 115 -247 q 121 -185 118 -185 q 125 -176 124 -186 q 136 -6 126 -132 q 132 -250 135 -142 l 133 -257 q 138 -261 135 -264 q 139 -254 139 -260 q 142 -126 140 -208 q 146 -122 144 -126 q 150 -74 150 -82 q 150 -96 150 -83 q 149 -122 150 -108 q 149 -143 149 -135 q 154 -158 149 -157 q 158 -150 157 -160 q 171 204 167 89 q 228 26 197 110 q 282 -94 256 -50 q 286 -101 283 -99 l 288 -106 l 289 -107 q 290 -110 290 -108 q 306 -131 303 -126 q 322 -150 308 -135 q 327 -155 324 -151 q 331 -158 331 -158 q 340 -167 336 -164 q 381 -187 360 -182 q 425 -187 404 -194 q 463 -162 446 -181 q 490 -122 478 -147 q 501 -99 497 -111 q 503 -94 503 -97 q 507 -86 506 -89 l 508 -81 l 510 -76 q 519 -43 515 -61 q 533 19 525 -21 q 543 82 539 50 q 565 331 560 188 q 574 578 572 456 q 568 621 574 600 q 557 642 563 642 q 560 857 558 740 q 554 876 560 876 q 551 865 551 876 q 540 390 550 621 q 525 147 535 239 q 508 25 518 86 q 496 -36 501 -12 q 486 -67 492 -53 q 485 -75 485 -71 q 481 -85 482 -79 q 472 -103 476 -94 q 483 -78 478 -93 l 485 -72 l 486 -67 q 489 -57 488 -64 q 499 -15 494 -39 q 531 236 521 94 q 539 488 536 329 q 531 988 542 747 q 529 1003 531 996 q 507 1074 524 1067 q 497 1025 496 1078 q 500 839 500 929 q 493 940 497 890 q 490 954 492 949 q 486 958 488 960 q 485 946 485 956 q 488 753 485 917 q 486 760 488 757 q 481 765 483 767 q 479 750 479 763 q 471 460 479 633 q 468 874 472 653 q 463 894 468 892 q 461 883 461 894 q 464 665 464 736 l 463 667 l 460 658 q 456 575 458 621 q 457 694 457 617 q 450 721 457 718 q 447 706 447 721 q 442 397 447 550 q 419 93 436 207 q 408 19 415 54 q 400 -15 404 1 q 396 -32 399 -25 q 394 -39 394 -36 l 393 -43 l 392 -44 l 392 -44 q 390 -44 390 -44 l 388 -39 q 372 -11 379 -26 q 344 53 360 14 q 297 197 318 125 q 293 207 296 201 q 258 358 276 272 q 236 424 249 399 q 215 443 222 450 q 203 497 213 457 q 189 560 194 538 q 179 594 185 579 q 185 682 182 647 q 181 711 185 697 q 172 732 178 725 q 163 738 167 739 q 160 808 161 772 q 151 840 158 828 q 135 838 140 857 q 135 878 135 851 q 136 914 136 904 q 136 925 136 919 q 118 956 132 954 q 106 928 107 956 q 100 792 103 868 q 99 760 96 783 q 97 724 97 735 q 92 846 92 839 q 92 856 92 850 l 92 863 q 88 872 90 869 q 76 883 83 883 q 63 850 64 883 q 60 501 60 717 q 52 317 57 421 q 42 109 47 214 q 33 -75 36 4 q 38 -101 33 -89 q 49 -112 43 -112 m 446 224 q 450 221 449 221 q 435 94 444 150 q 431 64 432 76 q 446 224 440 133 m 257 157 l 265 132 l 274 107 q 290 57 276 96 q 331 -37 311 -1 q 342 -58 336 -49 q 346 -65 343 -61 q 349 -69 349 -68 q 354 -78 353 -75 q 365 -92 361 -86 q 379 -104 372 -99 q 396 -111 388 -110 q 413 -106 406 -112 q 424 -92 417 -101 q 432 -75 428 -83 q 439 -58 436 -67 q 444 -37 442 -47 q 456 8 450 -18 q 469 103 464 53 q 483 296 479 186 q 489 682 489 451 q 490 408 492 517 q 476 149 488 260 q 460 21 469 81 q 447 -42 453 -21 q 443 -57 444 -49 l 440 -62 l 439 -69 q 428 -92 433 -81 q 419 -111 424 -100 q 400 -121 411 -121 q 379 -114 390 -122 q 360 -97 369 -108 q 344 -76 351 -87 l 343 -74 l 342 -71 l 338 -64 q 329 -51 332 -54 q 315 -24 322 -37 q 272 94 300 11 q 206 342 235 211 q 257 157 228 250 m 129 558 q 129 525 129 547 q 125 546 125 539 q 125 581 125 557 q 129 558 126 575 m 156 135 q 151 136 153 136 q 156 213 154 186 q 157 232 156 225 l 156 135 m 125 319 q 121 99 124 253 q 115 -136 118 -56 q 115 25 115 22 q 119 166 117 58 q 121 332 122 274 q 118 347 121 340 l 119 379 q 119 395 119 385 q 119 408 119 406 q 126 378 124 392 q 125 319 126 346 "},"O":{"ha":560,"x_min":26,"x_max":561,"o":"m 61 124 q 93 32 75 72 q 119 -11 106 8 q 135 -33 128 -22 q 154 -53 144 -43 q 196 -82 175 -72 q 253 -96 224 -96 q 308 -82 282 -96 q 350 -53 331 -71 q 381 -19 365 -39 q 392 -3 386 -12 q 403 14 401 11 q 442 83 424 46 q 494 226 471 146 q 529 372 514 294 q 547 676 560 540 q 547 683 547 681 q 546 690 546 686 q 544 697 546 694 q 543 717 543 708 l 539 736 q 536 756 538 746 q 506 842 525 807 q 428 919 476 894 q 399 932 414 928 q 368 939 385 936 q 306 933 338 942 q 268 917 286 928 q 240 896 253 907 q 221 865 217 872 q 138 742 174 819 q 111 664 121 704 q 117 713 114 692 q 132 786 124 750 q 142 847 140 825 q 146 843 143 846 q 151 838 150 839 q 154 839 153 838 q 156 844 156 840 q 149 864 157 854 l 135 879 l 124 858 q 108 819 115 842 q 72 614 82 729 q 66 510 68 567 q 64 406 64 453 q 63 529 63 463 q 67 656 63 603 q 68 675 67 660 l 69 689 q 68 708 71 703 q 67 724 68 717 q 57 732 64 738 q 47 710 51 726 q 42 690 44 701 q 39 663 40 676 q 28 483 31 586 q 32 304 26 379 q 61 124 39 206 m 439 301 q 399 156 421 218 q 390 128 392 136 q 361 68 376 96 q 351 53 356 58 q 342 38 344 42 q 321 8 331 19 q 296 -15 308 -6 q 268 -31 282 -26 q 238 -31 251 -35 q 210 -17 224 -28 q 165 36 186 1 q 117 175 135 88 q 100 324 104 242 q 113 211 103 265 q 140 104 124 147 q 164 50 150 74 q 179 25 169 38 q 188 14 181 24 q 196 3 193 7 q 238 -24 217 -18 q 282 -17 260 -29 q 321 19 301 -6 q 329 32 325 25 l 338 44 q 342 51 339 46 q 346 57 346 56 q 353 69 350 63 q 403 179 381 117 q 433 288 419 228 q 456 399 447 343 q 471 624 476 522 q 456 736 467 681 q 411 829 442 800 q 368 854 392 849 q 319 850 344 858 q 275 822 296 842 q 239 782 257 807 q 292 838 264 818 q 326 853 308 849 q 361 857 344 858 q 422 822 396 854 q 456 754 443 797 q 469 681 464 725 q 474 605 474 643 q 474 529 475 567 q 467 453 471 492 q 454 376 461 417 q 439 301 449 343 m 135 467 q 150 426 142 444 q 192 368 165 392 q 228 344 213 349 q 236 344 235 342 q 235 351 238 346 q 230 359 233 354 q 223 369 226 364 q 214 381 219 374 q 203 397 208 389 q 161 503 171 443 q 160 615 150 556 q 169 494 153 551 q 178 475 174 479 q 178 490 182 475 q 172 601 165 543 q 201 710 179 654 q 201 694 197 696 q 203 694 201 693 q 206 699 204 696 q 210 708 208 703 q 250 779 229 750 q 276 808 263 796 q 307 831 290 822 q 369 839 342 849 q 417 796 399 829 q 383 829 403 818 q 344 838 365 840 q 301 821 324 835 q 263 783 281 807 q 210 683 233 746 q 194 628 200 656 q 188 571 189 600 q 192 550 186 556 q 194 561 193 550 q 215 676 194 618 q 239 732 225 706 q 269 781 254 760 q 278 783 269 775 q 307 808 292 799 q 338 821 324 818 q 296 797 317 815 q 276 776 285 788 q 258 751 267 765 q 250 728 249 736 q 260 737 250 719 q 282 768 271 754 q 293 782 288 775 q 306 793 299 788 q 331 808 318 803 q 343 811 336 810 q 353 813 349 813 q 369 807 363 811 q 388 790 379 801 q 395 778 392 785 q 401 765 399 772 q 411 731 407 751 q 415 711 413 722 l 418 690 q 422 649 422 665 q 425 563 426 607 q 406 389 424 485 q 294 67 364 171 l 289 58 q 283 51 286 54 q 274 39 278 43 q 264 30 268 33 q 256 25 260 26 q 253 24 253 24 l 251 24 q 249 24 250 24 q 242 28 246 25 q 224 46 233 35 q 206 75 214 60 q 178 147 189 104 q 175 158 176 150 q 154 332 157 233 q 142 422 153 389 q 129 439 135 443 q 129 489 129 461 q 135 467 132 476 m 438 540 q 440 538 439 536 q 421 390 436 468 q 414 354 417 368 q 438 540 433 456 m 146 740 q 185 810 164 779 q 242 872 211 847 q 325 911 282 903 q 376 911 351 915 q 401 903 389 908 q 424 892 413 899 q 485 824 461 867 q 510 746 500 792 q 514 450 535 613 q 488 307 506 385 q 449 165 469 226 q 476 258 463 207 q 521 558 517 425 q 521 596 521 561 q 519 635 519 628 q 511 711 517 671 q 493 789 504 757 q 475 828 486 810 q 447 864 464 849 q 408 893 429 882 q 358 906 385 904 q 310 899 333 907 q 267 879 288 892 q 232 851 249 868 q 204 818 218 836 q 163 747 182 789 q 126 635 138 690 q 124 649 125 643 q 117 656 121 658 q 146 740 128 699 "},"P":{"ha":667,"x_min":14,"x_max":739,"o":"m 40 631 q 45 630 43 631 q 50 629 47 629 q 56 633 57 631 q 49 653 49 653 q 53 675 47 663 q 67 697 57 683 q 104 742 83 721 q 197 815 142 778 q 97 718 132 765 q 90 710 93 715 l 86 704 q 83 693 82 697 q 89 676 79 676 q 117 697 99 676 q 181 758 142 728 q 186 531 182 690 q 179 329 186 460 q 171 153 172 199 q 173 141 171 147 q 178 131 175 135 q 186 128 182 128 q 179 46 183 93 q 182 39 179 42 q 188 42 186 35 q 206 328 200 174 q 207 328 207 328 q 203 -4 203 25 q 218 -35 204 -26 q 235 -18 233 -44 q 239 54 238 17 q 243 15 242 32 l 246 10 q 251 14 251 6 q 254 88 254 44 q 259 83 256 83 q 263 89 263 83 q 272 201 264 113 q 269 42 272 113 q 272 35 269 38 q 278 39 276 29 q 279 122 279 68 q 283 125 282 121 q 285 141 283 131 q 288 157 286 151 q 287 135 288 150 q 286 111 286 119 q 289 103 286 106 q 296 107 294 99 q 304 383 303 264 q 386 458 346 418 q 383 449 381 451 q 393 453 385 446 q 540 596 485 538 q 335 388 446 486 q 328 375 326 379 q 336 378 328 371 q 447 483 392 426 q 454 485 447 479 q 497 524 476 506 q 438 464 465 492 q 428 447 429 454 q 439 451 429 443 q 621 646 539 547 q 703 765 674 710 q 718 800 710 779 q 732 842 728 822 q 736 894 738 869 q 717 956 733 928 q 689 989 706 974 q 656 1010 675 1000 q 594 1029 629 1024 q 486 1028 547 1036 q 303 971 396 1014 q 296 968 299 969 q 189 914 243 946 q 150 879 164 900 q 144 857 136 861 q 76 797 104 828 q 54 757 56 774 q 71 753 53 740 q 42 717 54 736 q 28 696 32 704 q 19 672 21 683 q 28 639 15 651 q 40 631 33 633 m 392 560 q 306 481 350 521 q 304 585 306 538 q 304 589 304 588 q 306 650 306 635 q 299 677 307 665 q 282 686 290 689 q 278 732 281 710 q 271 751 276 743 q 251 751 258 767 q 251 801 251 779 q 250 807 251 803 q 263 814 257 811 q 436 896 354 871 q 493 909 464 904 q 547 913 522 914 q 571 911 560 913 q 593 906 583 908 q 607 897 601 903 q 613 892 610 896 q 614 885 614 889 q 614 883 614 883 q 614 881 614 882 q 613 874 614 878 q 608 857 611 865 q 600 838 606 849 q 549 757 582 801 q 517 718 535 740 q 482 679 503 703 q 410 601 449 642 q 394 578 400 592 q 392 560 388 564 m 253 403 q 252 421 253 415 q 249 431 251 426 l 249 453 q 251 649 250 583 q 256 575 254 594 q 256 413 257 499 q 256 409 256 411 q 256 406 256 407 q 254 404 256 406 q 253 403 253 403 m 218 676 q 214 714 217 686 q 208 757 211 742 q 208 763 208 760 l 208 768 q 204 774 207 772 q 203 775 204 774 q 219 786 211 781 q 218 676 218 738 m 207 353 q 208 413 207 386 q 208 381 208 394 q 207 356 208 378 q 207 353 207 354 m 253 115 q 252 163 253 126 q 251 221 251 200 q 253 291 251 244 q 254 360 254 338 q 256 361 256 361 q 253 115 256 172 m 286 294 l 289 344 l 289 356 l 289 293 q 286 294 288 294 m 304 399 q 304 400 304 399 q 304 403 304 401 q 332 426 319 415 q 304 399 326 421 m 306 450 q 306 471 306 467 q 506 665 415 565 q 601 785 572 739 q 619 817 611 801 q 628 833 622 824 q 633 850 631 842 q 639 881 639 868 q 639 893 639 888 q 633 904 638 900 q 628 913 632 910 q 619 919 624 917 q 628 913 624 917 q 635 904 632 910 q 639 892 638 899 q 638 861 642 879 q 625 826 635 846 q 585 756 610 792 q 533 689 565 726 q 476 625 500 650 q 306 450 401 540 m 697 789 q 708 814 704 803 q 717 840 714 828 q 706 806 713 824 q 693 775 699 789 q 661 721 679 747 q 658 724 661 724 q 685 767 674 746 q 697 789 692 778 m 342 935 q 486 978 415 967 q 564 983 529 986 q 604 978 585 982 q 644 961 626 972 q 675 931 664 949 q 688 892 686 913 q 686 856 689 874 q 676 821 682 839 q 663 790 671 807 q 592 682 639 742 q 421 493 514 585 q 549 636 482 556 q 644 764 618 718 q 664 800 656 782 q 672 818 667 806 q 679 839 676 828 q 686 882 686 863 q 683 907 686 896 q 674 929 679 918 q 651 951 664 942 q 626 965 642 960 q 607 969 615 969 q 565 976 588 975 q 474 969 526 979 q 385 946 431 961 q 221 869 307 921 q 342 935 285 910 "}}}
